<mxfile host="app.diagrams.net" modified="2024-07-15T06:32:32.433Z" agent="Mozilla/5.0 (X11; Linux x86_64) AppleWebKit/537.36 (KHTML, like Gecko) Chrome/124.0.0.0 Safari/537.36" etag="MUK9CMcQvJKAJf9R9LqC" version="24.6.4" type="github">
  <diagram name="Page-1" id="o6zHIRRTQyOn4KJ7PmFb">
    <mxGraphModel dx="2301" dy="1348" grid="1" gridSize="10" guides="1" tooltips="1" connect="1" arrows="1" fold="1" page="1" pageScale="1" pageWidth="1169" pageHeight="827" math="0" shadow="0">
      <root>
        <mxCell id="0" />
        <mxCell id="1" parent="0" />
        <mxCell id="uAa9FCq27htEHlU7-kTH-15" style="edgeStyle=orthogonalEdgeStyle;rounded=0;orthogonalLoop=1;jettySize=auto;html=1;" parent="1" target="uAa9FCq27htEHlU7-kTH-8" edge="1">
          <mxGeometry relative="1" as="geometry">
            <mxPoint x="-780.09974" y="293.25739999999996" as="targetPoint" />
            <mxPoint x="-839.9999999999999" y="292.18000000000006" as="sourcePoint" />
            <Array as="points">
              <mxPoint x="-780" y="293" />
              <mxPoint x="-780" y="293" />
            </Array>
          </mxGeometry>
        </mxCell>
        <mxCell id="uAa9FCq27htEHlU7-kTH-17" value="Extract" style="edgeLabel;html=1;align=center;verticalAlign=middle;resizable=0;points=[];" parent="uAa9FCq27htEHlU7-kTH-15" vertex="1" connectable="0">
          <mxGeometry x="-0.0781" y="-1" relative="1" as="geometry">
            <mxPoint x="-5" as="offset" />
          </mxGeometry>
        </mxCell>
        <mxCell id="uAa9FCq27htEHlU7-kTH-3" value="" style="shape=image;verticalLabelPosition=bottom;labelBackgroundColor=default;verticalAlign=top;aspect=fixed;imageAspect=0;image=data:image/png,iVBORw0KGgoAAAANSUhEUgAAAWkAAACMCAMAAACJW6j5AAAAYFBMVEX///8gvv8Au/8VvP/0/P8zw/88xf9p0P9Sy/8nv/981P8Auf910//i9P+m4f/P7f/w+//p+P/G7P/X8v+z5v+/6v/x+//c9P9NyP9gzf+V3P+H2P+o4v+45/+b3v/K7f9IpVG9AAAP+klEQVR4nO2daWOCOBCGSwKoeFREBcTj///LBbwyR5KJdtlt5f3WqpPwEHLODF9nHT21/fp07QwaUfOjphOT9PRHTf9G1QYOncQ/aTodSZuajKQH0kh6KI2kh9JIeiiNpIfSSHoojaSH0kh6KI2kh9JIeiiNpIfSSHoojaSH0kh6KI2kh9JIeiiNpIfSSHoojaSH0kh6KI2kh9JIeiiNpIfSSHoojaSH0kh6KI2kh9JIeiiNpIfSSHoojaSH0q8inX9vD9lkUlfTSdZsl+twA5djk03qrG5/fzgW+5crUrQVWdRtVRaH464QVSSY9Hq5OzdNW9HDebUtc8c35aTLb6CC+85yu0gjpbS+WtVaqWS6cpWPdWlSfTWgu993Bupzef80N2vgtLM8TyPDjlJqVq8edr5MOybPMNLFoU5UX0pfU6WiNNvZrlZKej/tTT0135GLO7SUTXPX+kYqmrC3hdEpZQ3o6bWwODUrcHYgqLXCdqLWTnK+wmvmhp3K+GEA6fW5bRMRrq5u7+iJ/b6Q9DrBJufI3paB9Cx+snRV+qZdwuC5QZqtulrMTKOZzc5yaq2K0oeuF5mAz42fikkvM2WvbMQ1AhnpnIBWwFh8tEO61lplvv62nM6tt6ozkBbt/Tb/YyEdN86qKH1EpGfGj4Wk95m9WfWFzGgYnIj0PiWgV+bn28Rd8LVwdxdy1D4TqikFpAvPPW/tVMvFe6S3M18ZWlX4ciWkY9p1mLfsu/KVe5Mr3HEhsKETf+9x9N7yTuYdCyYdT/ztqvv5Cv5MQDomLRqAdj+sppQ9lFJ6s8wr4UjLK/NUIOmStDuLVB1ImoDW2hgMY+/Dasg6XSD3UiCO9CugA0l/y4tQqTk2eUnHFQFtzu8OQddGp4a9cBEiMaTDKnNXEOlNSBE6MZZLPtIEdKQ25ueXedhlcfP67CVAlPTuJTtBpC/ecRvW0TDhI01aNARtxaSfK0Xw7wUtYvsaIEI6f+XJiIJIlzPOwH0NxFXyidRDmj7XF/yVFBtvF75pnZ1Xh0lCS1dkrmcB5MVGSOOKCO0EkI4T+ut2AXvebsryclrVik5K1KNpOUnTroOZFBdm5bROFrtn5xRvyYBZ4d9PGRZKz5K0mlZpkjAL/FtZiPSZXX/3dqZpOz+0runkpGsKsgYt7zIhz/Fj5eEkPcWVY1cfz0tUs6akn8KycaOmfYeO6lVx78/j8tJUbOeISC/JF5RpZ19+n6uIhS0mfcQ/V1PCoyQLA730k64JaMKx1/RWbnLmdiZ38AHWcFIdzwjFhoyaZcZ1+ZD0gtohey35gZYmJ427Oa0OHI0Ttp9e/+8gTUFbtony/ovKNlm+wBrOwIf4mW+XypyNJXm8EOlCZide0M0VKekJ/iUZsm51RcswdV3n2UlT0NZ95u28vTL7LvQKWFLmnHqNBnNl3aAjjy4kjbpQxcxxrtqQ6YOQNJpJa80/4H1lUF37f1pJ42/rxLGhn6XOFE5TYMjsPlCTtoNun0r88JrfLediOzmeQAhJV7D0yLVhBu/7tZexkZ5g0Gn4MdVDcHmTPj9A0ybtPPQ5oUZl0oS9tK6tRlqVL5FGTRovK5DAdV0NWUhT0C8f53UCU131/D9a1dn7p14ZxGmQjpEdd6tAHZGMNHguXZtlvQrYqLuNIp40Bf3eMTHoJNSTJxxk1Mph4gvPU0zSsLmro6c6kJqINOqevEeMsFV0zxhLmoAmy41AgQ0w9RizUVNMXSY6gRtmkgZ9qE58duBERUS6gW2C3ykzlIOBVy150njyrd72TtibLeJZTdQUPU3afo6Yw+r6mjS6MyLScMbivZfoce1mwAxpvGf0PmjYeNVjexs+Yuw+HzRjbsIbpOFopfw9XR1K+juse/rCrWjKkSagnQO5UKBNP2aEsKH4b2hsOUdsSKfoUTBpkJQ0mguuGM5wNEOagJ4IzNqVX07HZgKe1kcvsQajjKCh2EhXgXbCScMxVDRswY66IKQJaOtiy6O4ODZ1oua9jw80eSeNHnq/+42FNHRGUQLXklDSMcCmHT49T4EpdXv7EWl8EOdabFmVf5+zqjsK4DeHH6TRKt1vODbn5U/SS1BMIpj5h5Iu4AVsl37lgGy7MAZ/1/ggzjdBp8o3TTVjdsQ50mBA9M/NrKQvoNaSRzuUNF4gSgQR1JA03lMMBR2fauvGPUMaXG8kGA8spMGaT0vGlVDSK9QCg9WuSJzn/2Gzjk1td1Uz9TyFAHUR3FUL6YMOtAMHOAHpxtt8fErcpFVAkvVdKj0lf5AGj5B/3WIlDThYt8lNhZLO3iYdeXxatNQd95IGOJw8SIP/CiZnXxLSEjuhpMkhQLh83kMz0c5SHHTPLaQlzw9PGpQushNKGo4or2jmIy3aW1qHeIz966R5P/H/mrSnn45EE+rCbYGa5ElLCP1a0r65R19zX7+38RXSnbkBi5/Ye0wFXp6eUZH6WRg/7SbwSVVnDTvL+KkRMfvXR0Tq4hCqicSf1n1WxPtotZDn0bRZbZb7rrol2DV9eZYnmnv8L2d5esGRxv/RrrMQxmO5CxirDifzkL5gScNjTcmK479auRwQE9FyHES6bShprXbYgcuxn5dT0GqWbfDc8MKShs4JklU0T/ocvBoPJY0Oh9zn4ra6Yy+Kzg+dHG9Z+z6yTFWs5wdPGvZ+gh0mC+ld8A5T6OkWPHLRrJeYt+6sCxTx1LU4RuFYI5Xwcyye9Dl019RCGh3ACnZNQ0nDg8rA/aB73RHp60SDdAoWTwwU9GHtZjYsadgWld376llbljQ6hxbYCT6xRX5P/hKYukPS91ricA7LqAhHCvsmK086Dz3dAoSsp1uCyUcwadjRKcsj7hQk/Wy55EyAba7Qz8I+FvGkv2AZgmfSQhpuAAXaEZGGQ6Jo1MWye0DiiQ3T5GA37fD12vGk0dLL7/lnIQ3dv1SYHRFp5APkd5igspLeY5dMZlTcA08Xx422kEaEwjxiDNLwxF/QfYR71sBGwQVG+WT3ny79oyLwkndt7VhIw47a7y0GVv6mtxhcA83sFm7lhnuLoTXGCz21IyYAL2DoqAhIKUdqkxNPGjtw+jaH4BGvQRqNzL5GDft1ma8pcnAPzxzkinPx+n6AtuFaOdlIw+5De7xxoausSXqJTtbc3Sg8SxeSRlOE8EHRGbuFg+RwYwG9h2vltLWQRisCT/WRW7u5cw6XWm5PdTwCyUijqoZ7wjhJ5zgmBLVbMCK6lsG2No03yZxuD2g2BEjv5C2OBFkKoy+I05FvK2sNOxh3jO0Fd9XouYRLBusosYTuXAbpUu5hgqO3YEQRaqd2b8I1jWY1PnWQXhNvGEcQ1VfX3cBYN080MwlchcEBcGixBQ6gBgd2ovGps6p5IxeSVQOSJvuPKY9hR3eJpVFyJHos0vYh/NKdrQLUvgh9QgKMimhEY6OO1uSxM0kvSfBbyoysBZPSBkV+khMJJhVSvKFhjQExthX5qar44IDNLSTRRO3NOoEXMGBUREdbOqGUViRnETxdoccZagr3t8szmysMkSYpJ7RKt2a7Xn9n/Bm+mDSzGd+y3uKHp1w9Qz+NNYg3kwqOKYOj4hR/WINZdc7ldoOkY+bauyyCu0ux2Z22TZ1wqe8iQpoJn49UVDWtoc3p3CzSmc1jUB6hv+XctNpCDrtL2T3O67zoUzOaxh+o/dmBTuRCjUeCaUmzxWq7KcrL7tgwWScicmLI5z/hPTZBSYg0n73ilk/RlQAlIL+HJfuQmbQRF/QImBVkvCI5d8yRj/Zdz3ItV4fPZnGkmFAkv8erDqEhOWteqOsdtSSLG87AYU6hcGS8QJj03nK87hHNDvTiLQvKw8QNqZ563lznRfny8HG5mW4hPMsU8TdYChLLMFdASNPELyKF5RYjiQu8uk3XRDkgScM1R8XglkQ9O0LTZvVicovRpKASBebLWwRWVs+PctJMthZjVOTS+7jE+NAULxDi8uXRtKACheaAXAWVoWe3VinM1UsyiJmjYuADxXkrFZLWCCcQbA7IWJRMEpYVnNfUnzr1KbW4H9VL80/jOQbYw2k8wS1oG4nzC8v9t0snW7O2lgyygjSQehUcjwgVCzP8tYun516QlDTeNASj4teGy2/00HxhObEFWnmS/s3b1mGJZgbauFucVlUZHvmJVQienXZpYZ7XibPXk1EL5APYL+zJtdv7yvvlITmTOqtuO8QWN460sqwqezv91b9Nut/acLYMrRK48VLdstz3me6dG/Fn45v9t+FhV55xOdK0rrsBIZ8bP5xbd8DyZsau5lor/VMoJP0Vn/mE2Pruy2YlvTBxeJKaFBO+tn1BswneQy4XhtyHQrtsAYR3k/Jz/dhb0L3LaZTe8+edjN+5dtD3py5xpL4Pfp0ZpdPFzYVbSrrVJksNO/3F66q5X72VdG5eozeJx/pUJzCUuK9wlC42b+RSEinfNZNpOpvNkqqeNNbXQDi1/z4vqiSZzdpnpPNy3y6f4dty0l3g+iq72dFd+s+jMTG1kg6vbXHO6qTbppnPVdRed3fZP/oeGJfiVj9ggpoJIu2w84Ok76Xk5Z4r6LcKkg6OaX/KJC0JWP847QHpl7yYrwLb6l6Hng8UOKsXBbRYBNZh49vGqCBpSQiSRWDt/xPZj/6awLFlSPoALOC5+WpWnr8smHZPmj2ACqY6e6MX+rOCm7eSV3nxgndMEv78acrArsTry7DjDz0bf1dgyvBGBlAQtSJJfvdpAv5OoiWiReYNG6fTjICbgT+Jq1XAr/OdpeavVNH44xmgtwIfdrjO/HcA7Hp82oBYRMp7ycCd1BLMsk4U/0YKsywYqvHShuOvVZ/2xrMUQRkv2Yd+3R0h+VzIoQPfZ63Fy+sBghsRBDTnOo9bglPf2RFo0m+sNH+fivuhhart0fXozJubMTwca1RqX9XglwS89f6DXyYjY9bDDYUInftz20tgT9UWRYpAvzNX/HVCeXDZw8ySOB7SpohyI0+57iUnb0D4oAUijinS0QFTXJK4AaZJY0cxrTN8z9YNdrX8pH28PT3G1/PJ7nlIe1ml9FVZTC9N/Uz1fLp93rRyO6F29Af10iUbwqJUlTWHJptU7Ks0mfUh95LILrIgbe0cmjqdzZmCPmvDFL9O60G7F/sROxu0+VDazXhCcf+eCvbdsA5Zcq3mwR694VH2v1zB/uU2QGGREdqyc/KXFQeFFVhePNrJ510MQOvXNwN/sc5iQjpxtcSd07sY6pWsVX9AhTAnu5q6t95yUUxAt17/vK7jptjugG1o7vdbEsQEdF7vnzYYmtry76g2GyK7wsa6eKNQFBPe/lk6Ohhpbcs7QLVzdiEqlWSo/uvaVvwrYbpo9JC9oF3NPiCd83z9kVMORsvzVBlu9rqPQk+zTegGRb6tNQguaP+aJxOSIuKjFV+O2bRKk6gLLZgcjpcXR6+42DZ1Z6dz1a+z1el1p6cf0D8vr8qmoRxBPAAAAABJRU5ErkJggg==;" parent="1" vertex="1">
          <mxGeometry x="-970" y="267.72" width="128.93" height="50" as="geometry" />
        </mxCell>
        <mxCell id="uAa9FCq27htEHlU7-kTH-5" value="" style="shape=image;verticalLabelPosition=bottom;labelBackgroundColor=default;verticalAlign=top;aspect=fixed;imageAspect=0;image=https://upload.wikimedia.org/wikipedia/commons/thumb/f/f3/Apache_Spark_logo.svg/1280px-Apache_Spark_logo.svg.png;" parent="1" vertex="1">
          <mxGeometry x="-660" y="141.82" width="96.32" height="50" as="geometry" />
        </mxCell>
        <mxCell id="uAa9FCq27htEHlU7-kTH-6" value="" style="shape=image;verticalLabelPosition=bottom;labelBackgroundColor=default;verticalAlign=top;aspect=fixed;imageAspect=0;image=https://seeklogo.com/images/M/minio-logo-4B2D780928-seeklogo.com.png;" parent="1" vertex="1">
          <mxGeometry x="-678.54" y="257.27" width="161.54" height="70" as="geometry" />
        </mxCell>
        <mxCell id="uAa9FCq27htEHlU7-kTH-18" style="edgeStyle=orthogonalEdgeStyle;rounded=0;orthogonalLoop=1;jettySize=auto;html=1;" parent="1" source="uAa9FCq27htEHlU7-kTH-8" edge="1">
          <mxGeometry relative="1" as="geometry">
            <mxPoint x="-680" y="293.70000000000005" as="targetPoint" />
          </mxGeometry>
        </mxCell>
        <mxCell id="uAa9FCq27htEHlU7-kTH-19" value="Load" style="edgeLabel;html=1;align=center;verticalAlign=middle;resizable=0;points=[];" parent="uAa9FCq27htEHlU7-kTH-18" vertex="1" connectable="0">
          <mxGeometry x="-0.3639" y="-1" relative="1" as="geometry">
            <mxPoint as="offset" />
          </mxGeometry>
        </mxCell>
        <mxCell id="uAa9FCq27htEHlU7-kTH-8" value="" style="html=1;verticalLabelPosition=bottom;align=center;labelBackgroundColor=#ffffff;verticalAlign=top;strokeWidth=2;strokeColor=#381A18;shadow=0;dashed=0;shape=mxgraph.ios7.icons.data;fillColor=#F89C9C;gradientColor=#592927;" parent="1" vertex="1">
          <mxGeometry x="-780" y="265.45" width="44.99" height="54.55" as="geometry" />
        </mxCell>
        <mxCell id="uAa9FCq27htEHlU7-kTH-9" value="" style="html=1;verticalLabelPosition=bottom;align=center;labelBackgroundColor=#ffffff;verticalAlign=top;strokeWidth=2;strokeColor=#666666;shadow=0;dashed=0;shape=mxgraph.ios7.icons.data;fillColor=#f5f5f5;gradientColor=#b3b3b3;" parent="1" vertex="1">
          <mxGeometry x="-550" y="201.82" width="41.24" height="50" as="geometry" />
        </mxCell>
        <mxCell id="uAa9FCq27htEHlU7-kTH-10" value="" style="html=1;verticalLabelPosition=bottom;align=center;labelBackgroundColor=#ffffff;verticalAlign=top;strokeWidth=2;strokeColor=#d6b656;shadow=0;dashed=0;shape=mxgraph.ios7.icons.data;fillColor=#fff2cc;gradientColor=#ffd966;" parent="1" vertex="1">
          <mxGeometry x="-500" y="201.82" width="42.49" height="50" as="geometry" />
        </mxCell>
        <mxCell id="uAa9FCq27htEHlU7-kTH-12" value="" style="shape=image;verticalLabelPosition=bottom;labelBackgroundColor=default;verticalAlign=top;aspect=fixed;imageAspect=0;image=https://cdn-images-1.medium.com/max/184/1*oCaq2LTnNtzMTKcyUoYMTw@2x.png;" parent="1" vertex="1">
          <mxGeometry x="-1117.65" y="100" width="111" height="110" as="geometry" />
        </mxCell>
        <mxCell id="uAa9FCq27htEHlU7-kTH-13" value="" style="shape=image;verticalLabelPosition=bottom;labelBackgroundColor=default;verticalAlign=top;aspect=fixed;imageAspect=0;image=https://www.docker.com/wp-content/uploads/2023/05/symbol_blue-docker-logo.png;" parent="1" vertex="1">
          <mxGeometry x="-997.65" y="119.55" width="90" height="63.3" as="geometry" />
        </mxCell>
        <mxCell id="uAa9FCq27htEHlU7-kTH-20" style="edgeStyle=orthogonalEdgeStyle;rounded=0;orthogonalLoop=1;jettySize=auto;html=1;entryX=0.383;entryY=1;entryDx=0;entryDy=0;entryPerimeter=0;" parent="1" edge="1">
          <mxGeometry relative="1" as="geometry">
            <mxPoint x="-630" y="257.27000000000004" as="sourcePoint" />
            <mxPoint x="-629.99286" y="191.82" as="targetPoint" />
          </mxGeometry>
        </mxCell>
        <mxCell id="uAa9FCq27htEHlU7-kTH-22" value="Transform" style="edgeLabel;html=1;align=center;verticalAlign=middle;resizable=0;points=[];" parent="uAa9FCq27htEHlU7-kTH-20" vertex="1" connectable="0">
          <mxGeometry x="0.1561" y="1" relative="1" as="geometry">
            <mxPoint as="offset" />
          </mxGeometry>
        </mxCell>
        <mxCell id="uAa9FCq27htEHlU7-kTH-21" style="edgeStyle=orthogonalEdgeStyle;rounded=0;orthogonalLoop=1;jettySize=auto;html=1;entryX=0.582;entryY=-0.003;entryDx=0;entryDy=0;entryPerimeter=0;" parent="1" edge="1">
          <mxGeometry relative="1" as="geometry">
            <mxPoint x="-584.6800000000001" y="191.82" as="sourcePoint" />
            <mxPoint x="-585.0037199999999" y="257.06" as="targetPoint" />
          </mxGeometry>
        </mxCell>
        <mxCell id="uAa9FCq27htEHlU7-kTH-23" value="Load" style="edgeLabel;html=1;align=center;verticalAlign=middle;resizable=0;points=[];" parent="uAa9FCq27htEHlU7-kTH-21" vertex="1" connectable="0">
          <mxGeometry x="-0.1394" relative="1" as="geometry">
            <mxPoint as="offset" />
          </mxGeometry>
        </mxCell>
        <mxCell id="uAa9FCq27htEHlU7-kTH-28" value="" style="rounded=1;whiteSpace=wrap;html=1;fillColor=none;" parent="1" vertex="1">
          <mxGeometry x="-1120" y="540" width="1040" height="180" as="geometry" />
        </mxCell>
        <mxCell id="uAa9FCq27htEHlU7-kTH-32" style="edgeStyle=orthogonalEdgeStyle;rounded=0;orthogonalLoop=1;jettySize=auto;html=1;entryX=0;entryY=0.5;entryDx=0;entryDy=0;" parent="1" target="uAa9FCq27htEHlU7-kTH-33" edge="1">
          <mxGeometry relative="1" as="geometry">
            <mxPoint x="-330" y="291.79" as="targetPoint" />
            <mxPoint x="-390" y="291.84724137931033" as="sourcePoint" />
            <Array as="points">
              <mxPoint x="-340" y="291.33" />
              <mxPoint x="-340" y="216.32999999999998" />
            </Array>
          </mxGeometry>
        </mxCell>
        <mxCell id="uAa9FCq27htEHlU7-kTH-33" value="" style="shape=image;verticalLabelPosition=bottom;labelBackgroundColor=default;verticalAlign=top;aspect=fixed;imageAspect=0;image=data:image/png,iVBORw0KGgoAAAANSUhEUgAAAYgAAACwCAYAAAAVHflSAAAACXBIWXMAAAsSAAALEgHS3X78AAAWGElEQVR42u2dX2xcVX7Hv5PxH4gT/2G3yYY/sYugZYVWNist21ZBGcpWqwWp8X2pxMPigadZ0SizT7tlHuI8zGp5WiOKdp5gQh+Q9mWGlaBaCcpYoLbw0NhaRY1KtdiwJYWixDZJIMTO9OEek8n4/p25d3xn5vORLMW+95577rk353t+v/M755eq1+sCAABoZg9NAAAACAQAACAQAACAQAAAAAIBAAAIBAAAIBAAAIBAAAAAAgEAAAgEAAAgEAAAgEAAAAACAQAAgEAAAAACAQAACAQAACAQAACAQAAAAAIBAAAIBAAAIBAAAIBAAAAAAgEAAL3OQCductuLmpW0IGmSJo+EVUn5C0+pSlMAQFyk6vV6J8ShQlPHgoVIAEBcdMLFtEAz07YAgEA4gVuJtgUABAIAABAIAABAIAAAAIEAAACQ1KF1EAAAScfKFZvXa61KyldKhb4NJceCAADEwRaHim6ODJyUVDHHsCAA2hxxdQOrkmqSqv08MoQdLPgc68tvBQsCohxxdQOTkubMyHDFyhUzvM2+/5bHfb7jvl1vhEBAHCOubhKLt6xckRXpAAgERNy59gonrFyxzCvtTyqlwhqtgEAAeDGHJQGAQAB4WRIZmgHAJnFRTD97wP6Jg2fP2D+t8tik9Ohh6cgh6a59O4+/sbGpNzau6b1LW/r42vWbjh0c2KNv1dO6fGFQ//pfBI8lmLKkKZoBIIEWRFzi0E7ZRw5Jy38n/dMj0uP37hSH9y5v6q/PXdLfr15R9eK1HeIgSZ9sXtfy1jX999gVfecvL+m7U5t8fclksp/j3gESbUEkjV98X8rd73H8/Jd6+bOvQpX5yeZ16U+u6IcHhvS7927pyXarlAqpJNXHuI4ykvKSxnxOn5VIxATAHIQHLzzkLQ4//+MXocWhkTP1r/Q3f/EFDd0ZwapVSoV5IxLrPqdnaDEABMLTcnj8Xm/LoXrxWtv3Wd66ph8++CUN3jmhWJL/Gg4SMQGoS1xMb2xs6twXW6Guue/WtH4w2trjHTnkbTm8d3mzLcvByZL47tSA/mMFj1+HqEk66XWClStOVUqFFZoKEIgEs7FV1z/88Qt9vlUPdd3+dEoP/vk+jabDu8JfeMj7+M8/in7Ef+3Ql9LKPr7IzlgRNStX9DsHcYC+J/EuprDC0O61j006h7A2WjNOUUrt8snmdf3VnxHZBAAIRGDuGNqjuW8Mhb5u7htDumMo/OM9etj7+Bsb12J71pHbrvFFAgACEYYnvjmk2weDV/X2wT164ptDLd3ryCHv4+9d2ortOf83tcUXCQAIRBhG0ykdPzgc+PzjB4dbmnuQvN1LkmJxL23zyeZ1vkgAQCDCYk0M6nsjad/zvjeSljUx2LUvJD2MSABAMuiquMrjB4f1xB+u+J7TzWxdZWlKt5KQDHsdz5hn5YozkrKyFxhO7/Kzx5JD2soV6x2o/3rDuytjQYTkwZEBzXpYB7MTg3pwhLUEsGvikIQMex3LmGflijNWrliTdEbSiV0Wh+1n7+Yc0mOSjkl6ycoV16xccR6BCGtFHBjWfof5hf3plI4faN96+OiS9/Ewk+VhOTiA9dDFJDGXRGwZ86xcMWuE4SjvIjaxOGnliktWrjiFQATELey11bDWZt4572PF7EvH9mzfqqcFXUuSt+eINGOeKesl3kVHmJa0ZNx4CEQQmsNe2wlrbeb1D72P/2A0vgnwyxcGBRATkWTMM5bDHM3ZcWuithuWRFcKRHPYazthrc28turtZvrB6EAsbqaDA3tIJNTdrHZBHdvKmGdGsS/xLnZNJDq+BX3XOr2tiUGd+86ozn1nNPKw1qff9j7+y7uiz+EweL4380L0EfkuqWe5jWsXeBe7ynSnJ66ZFXXgnfNS6az78QdHBiJzaUnSA6khdnLtckxopdUFo9eWMuYZ6+Fowp9tVZLVqfDe3RI/K1cc79TN6JVceOZdaWzIPSfEM4du0cZWve2cENPpQf3u37EeekgkdqVz6kDGvGzA804bK2Wll3bEjTNDonl3U5Lm5T/BPmbeX7kTz41AePD029L6V+65IX55560aTadazg3xQGoIcYCoOrCa7InMquzFVl4ikWnhFkGueTIpC7y68N3JvLsF+QcBdEwgcDEFsCT+9p/dJ66fOXSLXr57b6iJ64MDe3Tn/+3t2XzUsKudTVwZ8/wWwZ1GHNp+d2vGAvRzU2Y6VafECcSzZ5JX9jvnpenfSD9+U3rl/Z1i8eDIgP7lvn36x8m9mp0YdBSLgwN7NJ0e1D3re/X7f9vHnAPESS2AW2Mq4nsiDtGJxLzPaWOdqk/ieqlnz8QrEu3w2qr9492czk36qaTf8/1Dh1wWZMzrahLzbnAxAUAUjNMEkbGEQABAL5GnCSKzANcQCADoJhZ9jh+1csVyJ2P0AYEAgGQQZN3EnKQVK1dc2M0dSCE6CKUB6BEaEvfEkQ+hLOlXAc4bk50b4oSVKy7LDrmtJsltAggEQD+KQmzbXFdKhTUrVzwl6WSIy6Zlb+63sL0IzKzTAAQCALpZFBxYMPcNe88x2e6nOStXXDXllLEqEIjYSQ9f18jtVzU8salU2k4bW99K6erFAV3+eLijOZ4fm5QePSwdOSTdte/mYx9dshfcvf6h31oKgESJQrMVMSv/rTy8mJTtqvqVlSueVgdzZ0OfCcTA3i1N3Hfla2HYJpWu65ZvXtPwxKYunturzSvxZmo7ckh64aGdotDIXfvsjf8ev9cWi6ff9s9eB4jCbouCg0gsmc3l2hGJbRqtirKxKlZ488mha6OY0sPXHcWhWSgm7rui9PD12Orxi+9Lv/2Rtzg4icVvf2RfC9AsCiYKaEV2zucTSlgKTTOPMCP/0NcwVsVJSR9YuWLVZK0DLIjWGbn9qqc4NIrEyO1XtfHBrZHX4YWH3LcDD0LufntLcb8ERYClkDTMSD9jOvO8/DfzC8oxScdMetSy7IltrAoEIhzDE5vhzv0gesuhHXHY5vF77S3Fn3mXjxFR6D7MDq5l8zx58zxRbCZHuCwC0TpBrIdWzg3CkUPuOSJatSRe/5A5CUQhMlY7LTrG7ZQ1K6lnI7YqCJdFILqHFx5yP/Y/X13X859e1Zsbm/p8yxam/emUHhkd0PEDw7pjaI9rmdO/oW17UBSmjChkOyAKVdkTvUtWrljfjec1I/xtq2LKCEU2Qqtie2J72QhFma8MgUgMj026T0j/55dbeuIPV74Whm0+N6lJ39zY1Mt379W3b9kZVXXXPrtsQmB7ShzmFW5hWVuikLTnN3MHedl5lLctp2NRWhWm3CzzFH0kED+5X/rZA9LokPs594VMrnDhKfdjG1/ZOSh+fda/nEcPu1sOTuLQLBRP/OGKqveMOFoSjx5GIHpEGMZlh4FOx1B8okXBQywarYooLaqjkpasXDGD26kPBOIn90vFDod/jg7duKefSBw55Pz35z+96ikOjSLx/KdX9cs7bw1cNvS9OHSlKHhYFfOS5s2iu1n552D2Y0x2Pm5EotcF4mcP7O69/QTCzb305kbwqCq3c8OspYDEUo1IHHpGFDzEoiqpauWK2/MU+TasijFT1gyRTj0qEIf3ebuVOmFJtEoQ6yHIuYf3SR9e4sPsUusha1weiEI4oViTHca60Ga47KS5dp6vsQcFgo6RNuhyFhCFtsWi3XDZk1auuIAV0YMCIdkTxrtlRWx81fq1+9OpwFbE/nSKL683rYegI15EIZhVUVZr4bLZFsUaki4Qz57p/CR14739+OiS81zBI6MDql68Fug+j4wOuJYNXUuQJD3LkvKVUqFGc4USixXZobLzpuOfC/AuEIgISNxmfb8+KxXebW8034rlUHg3WJir22rn4weGA1kG+9MpHT8wHKps6AoyAayGDOLQnlVRKRWyCpAfm9bqUQtiWyT8OusD3wtX5m0vRlO31z903oPpjqE9evnuvZ5rIfanU3r57r2uq6lf/5APsovxc33M4xePjAVEoE8tiKTz2qq7K+jbt6RVvWdEsxODN1kT+9MpzU4MqnrPiOMqaskuk0VyPc0KTRAZvkJr5i2gFy2IpPP023Y+ByfuGNrjuAguSJnQGUzCG56vz0UEetiCqG+lYjk3CO+cl0pnoyuvdJb5hw6T6fF79rpAZP1OwJ3X5wJx9eJALOcG5Zl3pVfeb7+cV94nF0SHR9fbC7G8aMXZ53fNSXPvbn2+pLy/rPyjmJb50qOha11Mlz8e1vDEpm+uh/pWSpc/Ho6lDk+/bSf7aTU3ROks4tDBjiVjRtZ5+U8o11q4RS1Ax3XGyhVPmXOXohzlduD5dvPdTUmaMpbDXMB3Af0sEFtX9+jiub2eeanrWyldPLdXW1fjM5SeedeOPnrhoeB7KX10yRaXXnYr7VY+goiotnBNOWDnddL8yMoVu+n5ZDbXW1DyM+CV6dqjoaujmDavpHXh7Ii+/GzwpnmG+lZKX342qAtnR7R5JR17Pd45byf7+fGbtsvIKcrpo0v2sR+/aZ/LnENiWTWbyIXCrG9Y7NXnM+JQ6QJxWGR1OhbETZbExge3Rp5zuhVeWyVUtQfItnHtvKS3evT5umVlcp5PGAsCIA6ea2els7n2VK89n9k4b7IL3t+TWA8IBEAcnK6UCm2PPiulwryk0736fAl/f2U+YwQCkkEvOdOeM3v8RIIp61SvPJ+Jtkry+34ygve3mrBvPRH1QSCgVXphNLoq6eE4RtbGknhYuztxHeXzJfF9L0p6ICLLIZ+wZ09EfVL1erzRiLe9qLogNi48pV1LLtFFYY/NnWZNUrWVaJ4W2ykje3I404G2iu35EvK+l83zRZ5Lw+H5VmVvz15NyP+vjtcHgUAgAAAcwcUEAAAIBAAAIBAAAIBAAAAAAgEAAAgEAAD0vkCwfR1tCwAIhCPsrkjbAgACsZMLT6kqyWK0G7nlYJm2BQCIhdhXUgMAABYEAAAgEAAAgEAAAAACAQAAgEAAAAACAQAACAQAACAQAACAQAAAAAIBAADJYIAmgFawcsVx3dgssFYpFWq0imTlijOSZs2v5UqpsNLBe2ckZcyvC5VSYS3k+8xKGpe0VCkV2OcLEAhomZqkafPvk1au+HC/i4SVK06Zdhkzf8pKmurgvd9q+NOspJkQRVQlHW0oz0IkABcTtMp00+8ZmkSzDeIgSZNmVN8Jss3vx1gzQTnqUx4gEADQBuM9VJ9xXifgYoJYMCPntUqpsNTCtTOSVkL60KckKYjP38oVZ5zqZcqYMvde2aV2267DUpjnd2HGyhVv+kM7bkAzTzETtgzzLUTxPNBhyAcBrXYWzR/Oc5LWZLsmJpuOLcueNC0H6IBquuG+etLvGnNdWdKc+fV0pVTIepxbk+1OWdaNSdmsdrqH1mX75ctBO0QrV5yXdLLpz75zM6YDzUs61nRouw7zfoLlcm8n1iVlmgXS4X0uVkqFTMPxWUll00arkmb9xL9hTmbS3Dcf5H1CcsDFBFFxwnRQkw7HpiW9ZOWKS9sjfReyunlu4yUjGl6d0GyDOEjSnJvv3coVs7rha5+WdEb2xO5ckzjI/D4n6S0rV1yISWTHrVyxaupwzOGU7Tp8YAQgCsYktVLWQkMbTQYsY77he2j1voBAQJ8wLWnJY/LUSQz88m7nA5YjtR5RdMJ05JGKgxldHwt4yUljKUXBeATXHPMSe3NsrunPk/wXQCAA/EawVRfLoOZiVXh1Qs3RN+uSlmKo97GILYmydkaC+TEXkSVRjeiavI812MxpPn8EAmBZ0inTIaw7HHd0URhf/WrzucY15IRTZ1ltYzL0VVPvVz0siUwE1kPWxXJYN23mVYeTPm665g75VNOPVSkVWhE6p2uyHi7AvIsoQhdBFBNEzU0Ty6YDWXBwN5ywcsV5h858XtJLDqPRclMnO64bK5b9RCOIoGUbJ12NG8xplJ93sXTCMO9Sh9nGyWgjRlXtnB+ZV7B1CuWoFi9WSoUlK1dcbLLYxsw7KDsIYHOdl1ltjwUB/c1Pm6NUKqXCmokqWnQ4f9bFldFsdRx1mLdw6oQWWwhPXZdDRI75fdahLsf8Js59rIcZ7fTFr8qOLFpxsKgyAdutE5QDil0+oAUCCAT0Cas+rgunTiPjMFJdc+mI8jF1Qq77JZm/O9Vlpo12curwXfdNMkLV7G4aC7lKOhKM+Du5ADNNVk+z1bVOeCsCAf1Nzc9F4fDnKZfTnTr6ue2RuwltnXQQqKgmX/2OZ9pop/GwbedyfLdWOvuJdxbrAYEAaGYlwDmLAUeqK3KepM33YicUYLX5UoKq69TOx6xcccoI+FxAUQEEAiDSjihrInicVhzTCXVGzNbkHK6al7Pb7/RubVsCCAT0bkdUk4O/W84unyr7/Oy+eLtYdgg3AgEQC/MOf5sOeB7EJ95L2ukuHJPDHlyEtiIQAFKwSdOjIct0CnltZrHbXRgBFr5NJbDaQSwDJqcRCABJPrH5Lp3gms9IdS1AR7QQZ71djrczKnZ65ozPNZkA5ax1UlhcQl4bIbQVgQD4mkkTfhqmIw/S0XoJwGoEaTFdt4toyNPcTDsWi9Mzz/sI65xD59sc2bQUptwOWBGIAwIBcHOn4LRXkZUrOuU6kAJsGucR8hqF9SDZvvNas0g07LYaxWrtxudZkvNis7JDHaZc2qjqUG5NO91xjuVGyEKMlh0kAPZigigZk50/4XTDKHtWzhPLYcIfyy4CE9UodVrSitlOe003kgiNxTQqn9fO/abmJGXMtuJrst1DsyHrsKCdSYOay622kuXPRezWrFzxVYd38yqhrVgQAG7MmY7qpIs4rMs/z0MjGReBiTK0dUw3kh6dcOmYX40iKsf45pcdDk021GHOpQ7PeXS+CwHKPePjCgzLDNYDAgEQFdspLwN17h7zAJ3uhJYVbAfVMKK3HvKaxUqpkPca0Zs6+pWbj+IBzK6tTlue1PjMEQiAsGzvWhrGxbEg53mATm4/sRhQ1JxG9msenfmUy4hfLhZTJoB1smTEZ7nNZ/bLNz3uItLzfOYIBMBzDf8+JelP5Z4xbNWcMxO0Y7dyxRkrV6wp/r19nvPoTJdl57cIavFUm8o67fW8Ziv0GUlPetThVUkPmy3TA1EpFZZ8ynXq2H/aZOWVfSyHFQfhXldr2eogoaTq9TqtAK26GGYkrTX7xJsimdbCiILpYLxyFy+bzq+V+s5r5yTuw5VSYTuKqbHcpVbnOLafP6yrxUQtTUVRB49yV9zmMEz7jzvd17RdXs7zIl+LTIvZ6gCBAPDtyFZ8xGF7/mKpxfJdBYLW9xXuMz6nLQZxgUF3gYsJkkRs4gBt4dfxL2r3stwBAgF9glu+iNOSpiIQh5qD6CA4/lQ9RPunIeZooMvAxQSJoSEyZkp29E9N9sKulQjvMSvbl74maR6LJFS7ZWXmKMwP26wjEAAA0I/gYgIAAAQCAAAQCAAAQCAAAACBAAAABAIAABAIAABAIAAAAIEAAAAEAgAAEAgAAEAgAAAAgQAAAEAgAAAAgQAAAAQCAAAQCAAAQCAAAACBAAAABAIAAJLP/wMXGN5Vs+inzAAAAABJRU5ErkJggg==;" parent="1" vertex="1">
          <mxGeometry x="-300" y="191.32999999999998" width="111.36" height="50" as="geometry" />
        </mxCell>
        <mxCell id="uAa9FCq27htEHlU7-kTH-37" value="" style="shape=image;verticalLabelPosition=bottom;labelBackgroundColor=default;verticalAlign=top;aspect=fixed;imageAspect=0;image=data:image/png,iVBORw0KGgoAAAANSUhEUgAAAgAAAAIACAQAAABecRxxAAAYBElEQVR42u3deaBc893H8ffNJpsQa6idx77XLpbapVpSSosqFaqW0tKq9qmW8qC1PFTRCmprKRV7bUmE4KGtaGqtRu1L1ZaQSEju80dEbm7uzJ2Z3/fMmZnzfp1/yJ37Pb9z5pzPPXPmd34/kCRJkiRJkiRJkiRJkiRJkiRJkiRJkiRJkiRJkiRJkiRJkiRJkiRJkiRJkiRJkiRJkiRJkiRJkiRJkiRJkiRJkiRJkiRJkiRJkiRJkiRJkiRJkiRJkiRJkiRJkiRJkiRJkiRJkiRJkiRJkiRJkiRJkiRJkiRJkiRJkiRJkiRJkiRJkiRJkiRJkiRJkiRJkiRJkiRJkiRJkiRJkiRJkiRJkiRJkiRJkiRJkiRJkiRJkiRJkiRJkiRJkiRJkiRJkiRJkiRJkiRJkiRJkiRJkiRJkiRJkiRJkiRJkiRJkiRJkiRJkiRJkiRJkiRJkiRJkiRJktS42vJugNQUrmXHhN/+GefkvQFd65V3A6SmMJDBCb/dL+/ml9Ij7wZIyo8BIBWYASAVmAEgFZgBIBWYASAVmAEgFZgBIBWYASAVmAEgFZgBIBWYASAVmAEgFZgBIBWYASAVmAEgFZgBIBWYASAVmAEgFZgBIBWYASAVmAEgFZgBIBWYASAVmAEgFZgBIBWYASAVmAEgFZgBIBWYASAVmAEgFZgBIBWYASAVmAEgFZgBIBWYASAVmAEgFZgBIBWYASAVmAEgFZgBIBWYASAVmAEgFZgBIBWYASAVmAEgFZgBIBWYASAVmAEgFVivvBsglbAQy7AcS9GLgfT+5N8+ZgqzeJc3eI1XmJZ3E5ufAVDaEFZnNQazMAPoxyDeYQpTeINJ/JMXmZl381pSP9ZnYzZmfVZgYLevfpsXmMjfmMhjvJV305uTAdDZQLZme7ZkdRYq86rpPMJ9jGecf4VC9GAjdmcX1q3qiFyERdjgk/+exN3czWjey3tTmkuWAbAQO1Xx6ilM5NVc98WS7McebPbp5WY5C7AVWwGTuYGrGVvieqAfaya16G98XOIn69Mzoe5zvFPiJwNZLanFALOYUMWre7Ize/AFhiSudWVW5jA+5hFGcTWvJW9Fo1mLvsEVX+RNgPakZZOS5fswuupqb3Ijh7FC3Xdub3bnJmbUvBcmMYI+XdRdO3HvLlayxZOT6u5Z8j27J7HF7bTzQcX7fWl+zIsBa+y8fMxt7BN8wtyW1KIfJq79+Az20hGzS6cVKRUAbVyZUHU8B1XwCTBGbw7h+YDd+QKHzPedSnMFQBtXhRxYp1a037fm+oTIrWR5h9NYPOw4yTMATsxg77zLZ2cXTytTKgBOTW7gW/yYQWFvX9d6M4J/Be7U8Z0u+ZsrAM4I2QeX09btft+EuzI4pLta3udslgo5VvILgFMy2C+vs/6c8mmFug6AbwY1822OSvqsW96mTAzfsR/y4w7XAc0UAEeGbP9d3d5BWYcbmZXBIV16mcZ5LJJ8tOQVAL/IYI88xypzV5BWqqsA+DwfBTb2z3OzKtAAzuHjjA642xn8yVqaJwC+xMyALZ/QzTXbQM4LWU/1y785oIIrk3LyCIA2zstgX/ydpTuuJK3Y/AGwEe8HN/hDvpX01s1vk9AL//mXZ1kLaJ4AGMq0gK1+ft4Daz7DeCHTvd7dMpbVE46Z+gdADy7KYC88+Omfp0+klescACvyeiZv3lUskHTKdzSCDzM/2N5jKM0SAGvwVsAWv8UaZfb5YkE3GNOW6ZxY80fKegdATy7NYA/8iQGdV5RWcN4AWJSnM3vzxoTcElyAc+t0sH3A9k0RAEuFXA1NY2iZvb5hxldc1SwPsWITBEBPLs9g23/X1R2atJIdA6Av4zN96x5mwcTTf0ANfRNqXz7g6MQK2QfAICYEbOlM9iqz1w+pwxVXNcubbNvgAdCbP2Sw3ed3/ehfWtG5AdCD6zJ/6+7usrtNpRZkXJ0PtdS73VkHQJ+gr+OOLtnOvlxc531eyTKDwxs4APowKoNtPqnU6tLKzg2As+vy1l1d873chXgw9wOv2iXbAEjrrDV3ObNkKxfk3tz3Yanlpw0aAH0T19TVMpOjSq8wrfScADimbm/csTWd/gtwX+6HXPVLtgFwWkgbryk5pkSjR+7pDRgA/TPoIjWD/cqtMq347ADYs47f7n7EFlWf/m1ckfvhVsuSZQAcHtLCsSW/nVmEv+S+/7pbzqnierIeATCQseHb+AHDyq0yYkSgLbiyjiML9WJk1V8J/oiv1a19zWE45wVUeZzhTO/yJwsyek5f8wZ2DD/KuwkdDOKOmm5PlvMOO3F7uRekn7ircjP9Mtwt81uD71X1+uGcXNf2Nb4tuDqgi/UrDOPdLn/Sg6sy6b8Z72S+kncTPrEwd7FlcM3X2JYHuntR2gXGbkzK4dLtXRaueCcsxX9yv9SsdcnqI0DMe7BuydbF3F2ozzKtwo+U2X4EWJS/hm/ZP1mp+81KvQIYWclKwi1U7q7mPNq4hEVzaGGrm8GXmFjiZ/vzg7ybV4W+jGLJnNuwBGPYMLjmRLbiue5flhoAee26wyq8hP0mu+bUwlbWziGMKfGzFbkw7+ZVaYmKHmHOzpKMLnM1VZuH2a6yUZGadVjwpflcBa9ail/k3dCW9AOuKPGTHvy2bkO5xNmZQ3Nb9zLcx9rBNW9ju0oHSW3WAIB9KnjNKU14MDa+8/l5yZ8dztZ5N68mZ/Ffuax3ee5l1eCaVzOcqZW+uHkDYLtuX7EeX8+7kS1oFMeU/NmKVXauaRwDODeHta7EOFYOrvlLDuCjyl/evAGwEst184pfZDiaUFE9wv5lZkQ4bf6HTZvGruxY5zWuyjiWD655Bt9mVjW/0LwBAJuV/ek2dX9DW98zDCtzcbkuX867gUnOqOvZsCb3skxoxVkcUf33L808McgaZX/6nYzWOoOnmcS7fMRAFmd1ls17N9TN6+xa9tbSSZmdQG/wFG8ymV4MZDlWy2iw2A3Yjysz2oLO1uVulgitOIOvc00tv5h3R4zal3Kbu3IGTyc8y8lsOV9kLsl+XM/0TLawkToCTenmm+qNMxjqcyq/Z98upgxZkyMZl8H6nirzdWBkR6ANwzunvc8utSZHvQ+kuOXRMlsVPe7PnXyu7HfFi/FT3gnfwsYJgBndHmDXBK/xNY4tOzkbrMJF4cFb+tZyXABsGn6kvMXmtZ7+zRwAr5Tcpv6hJ8jjbFPRnlyYC4KvOxolAGZxUDfbvmjoqD8fcnKFz5esGPz0/PWZB8CWvBf87ryS1o+gngdS7DKj5N/kPcPWMYszKporcI6hvBS4hY0SACd2u92R40E88cmYypU6iKlh6/6o5MjGMQGwLVOC35tnaxzj8BOpNwGfrmImuHlN40Ngh4R192aREjel9k7cqjmm8lVuruo3xrMBN4Y/1ZWviyt4mvLgsLXdxL6Vd2MB4DIm8KfkyUVn68WB/E/YtnS2IzfSP7TiY+zCG2kl0vJnk6R1tyWuvesHkfoHzUzwbo2frPpxa1C6Z3UFcCyDq1i6v7e/Ydjfsytq/JO0cticA6Uen02/AhgWMvtCx2VcN3dJKtDMXwNSYv7XYSHdUabyBR6q6TensRd3VHjfIB9TS04PXptqpoEv5ya+UXJC9PImsSv3B0wABpuyCG+H7Zm59uDapCFt53cL+zAttUgzdwQqFQDbh9Qewf01/+6H7MGkXPZIZdqD68V0uXqSfWs8/ef8dlV94EroGRZnHe3KH4JP/yv4Uvrp35oBMLTKKl35Nb9P+v132ZsZOeyRPPQPuecxnb2r/Ozf2Z2cE7I9WTxAPrSqW8nd+18OTAjLDpo7ALrK1MGdpuiuxSt8P7nGo4V5FHmrkGnbfs4TyTVO5MWAlnT/mFne/pvvRF3FNXcAdGWLgG06nskBLTmVl/LeGXURMfjn65wWUGUqJwRUWSa4k26smRzGqXHlWi8ANkuu8ExtfarnM40z8t4ZdbFGegnOivg8C1zLswFVNghpSxZmsC+/jizYegGQPrzC+WUeeK3OpSVGzW0tKZNuzzaNkUFtmckFDbFF2Xif3fhDbMnWC4DUARam87uwtkzj2nx3RgmR3wK0sVpyjZsCg/KagJtj0YN0xHiLHbg7umjrBcAqib8/PvRb4Jvy3BV1MSR5zma4NbA9r/Pn5BpJnWsz8jJb83B82VYLgMWS+0aNDm3PfdUMz9SUFg6oMTa0RWOSKzTeTcB/MJQnsyjcagHQ3TBh3ftbaHs+CLkp1cjSh119g1dDW/RocoXFQ9uT7j9sxQvZlG61AEi/HH06uEUGQHeeCW5Rer2Fg1uUarEa58SugAHQ2X+CWxTb6z5G5E3A9D3+7+Ctez25QkTHpljfz6pbWasFQPpjQGndUecX8/1240o/WaYEtyi9E1ff5ArxjuOkLMq2WgCkX5BGz3TciAdTpPSbnNF/b9PfweiHpWKcWMHALFVrtQBIP5giHintaOFc9kP9pD/yFD1561LJFWod5CZrJ3U7y3DVWi0A0i+4VwhuUXS9RpP+kWmF4Bald+Np1ACAUzk+tmCrBUD6Wxc7UWPPhu1WGiX9pukqwR+T1kuu8H5oe2KdHvuNQKsFQPrfo01D27NB+D2FCJGfcSuchbaMnokDy3WW/jhYIwcAnFlmdsaqGQCd7RA6V3zKoKfN4d8BtwEj91LviiaOLy9iVIEsnc1RUaVaLQDeS66wFFsEtqeSScyb28yA02XPwPbsGNAz4bnA9mShjXP5VkypVguA5wNqHBjWmg1YP6f9UE/pp8uagR8CIqaEb+TxHGdr41ccGlGo1QLgrYBrgP1YMqg1Vc/V2pQeD6jx3aC2LM/wgCrxATAufITINi6MmI2h1QIg4s3rx/dCWrIee+W9M0qI7egyIaDGXgEjOQIcHzL4ZvrohJ3dy1djBvHsoAe/Sb9abb0AiPj8dlTAMFc9uKAF925X/hJQoye/DKiyDocEVHk+k7Ecb+CgkGHLO+rBJXwttUSriXhqug8XJ0+ZcmzozcRG9hQvB1TZLvmCthcXhUx0c19Aja5cxeHhnYx7cBn7phVoNQ+GVNmSnyX9/jYZzjDXeO4KqXJeYiesnwRFblYBAL/muPCaPbk85bum1guAh4KG9DyeETX/7jqMavJJ16oTEwD9ubXk3Lzd+0pYP/l7g+p05Wx+El6zF1fVfrep9QJgMn8PqdPGRTXeYtmIexic924oK/pC9J6gT7fLc1eNEbAbvw06lh/N+EvAkzN4sr8Xv6v124/WCwAYH1SnJ5dyYtV7aC/GNuCYctl6K+iDF6zFAzV8EDiYUWEPFV8dtldKOZ4Lw2v25hq+WMsvtmIAxI3E28ZJ3MGyFb9+IS7kuoAxCZpP1Lj+sAIPM6KK7tgDGMnIsA9cM4MmhSmnnSO5IrxqH67j87U1J2VJ68HVlrj2bbus2pPXQ2dhf58fVdC9tDcH82rw/O+LlVzb5KS6AR1IOunHO6Fbfm9Fz/S1sRcvhq73npLrui2p7k/nO0avCz5W2mnnw+onNm3FK4CZ/DG03gBO4QVOZ62Sr1iWE3iWkQFDUTSraVwZWm8bJnAzO9Kz5CsG8DUe47oqrs8qEdEboRIz2Y/bw6suwA3VT26eljmNeAUAW2eQru208zQX8g2GsiKDGczybMT+nMUEZma0vua5AoC1M9kDrzCS/Vinwyf8hdmYI7ieKRms7bEyHz1irwAA+jEmg22YyvbVvXFpq2vMAOjBk5kcjvVesgqAb6Sd6yXcnOm+eJsXeS2T037uUu7LtPgAgIE8lMFWfFDNA9Gt+BEAZnF23k0ooB+Gd3XtaDDLMiTTG6xPcUOG1bvyPrvw1/Cq/bm18ghozQCAKwNGh1d1Hq/DV2hZOiHTAOvae+zKU+FV+3MzQyt7aasGwPS63c5pRlkNe30i0/PetJrdkNNErm+yYwYDkAzkDrau5IWtGgBwPq/l3YSGFTnoWUfPZzV/TeYm8+3c1v0KO4Q8TjWvAdxSyfiWrRsAkzkh7yY0rOwmvjg5g8+09XACr+S49n+xXQYfWQdxZ/c36Vs3AOAKHsq7CYXzESOacEL0sVyUcwueZWfeDq+6EHewYfmXtHIAtHNU+Cgs6s5jnJJ3E6r0El/J4fZfZxPZNXyWRBjM3eXHpWzlAIC/cnLeTWhI2c59dwq35r2BVfiQPcPnJ67NI+ySwZxEizCm3FVAawcAnFqmd7eyMYt9QwYKrY8j+HPeTfjUgwzP4HuUwdxR+gnLVg+AWRzQIPleJFMYnsEn2iyczaV5N2Eed2cweCgszj2lBl1t9QCA19grYMpQVeef7NHAU2zOcWEGQ3SlGsWBGdyRWJLRXc9S2foBAPeztzcD6+5+ds7gplakyzgy47shtbmaERm0awj3djXWdRECAG7loIZ8q/NSn33xAMMaOAIuZ0QD3Pvv2mWR039+aknGzH8VUIwAgKs4LGiw0Go06hRTWfUE7Gw8wwJmD87CSA5u2NMf4DxOzKDqEO5ipXn/qSgBAL9heMDcwdUYxVfz3ugS6nc1NJ5NeTrvzZ1v60/ikBz+HFTnZ5yRQdVluXfeCChOAMAtbM9/6ra287z5CMAktuCWvBvRwdt8ocTT+Y3mBC7IoOqyjGa5uf9bpACA/2ODTEd9n2MGh3J0Q19i1tM77M5x4ZNj1uY+NuS2vBtRoXaO4vIM6q7A2LkDqRUrAOBltuOYjA/GN9mJi/Pe0LLqfUO0nbP4bMgcgine4xg+xws5t6Iaszg4k1GKV2IMn5n9n0ULAGjnXLbk4czq38w6jMt7I7tRr5uAHT3O5hyf47cC17EG5zbdVdlMvp7JFcsqjJk9hG3xAgDgL2zOARk8ADqZg9mdN/LevAb1MT9ndS7P4fbbw+zC3k06PsQMvszYDOquyhiGFDUAoJ0rWY0TAg+KmVzM6g3WsbT01uflVQ5kNUbW8Y7Ag+zCZtyZ2xanm8YXM3mwfXVGs0RRAwDgA05nBQ5kYnKlWdzE+hzapH9j6m0Sh7AK52X+HclMbmMntmzqk3+29xnGhAzqrsnoIgcAwAwuZz0240yer7HCG5zGyuzRRM+/NYKXOJrPcBgPZHQ18g9OYDl24+68NzTIu+zMkxnUXbuN05MK/IqXEn67jdOS1v6bwOEU29iYXdiczVmoote3M5E7uZPxZS5n106cqXjxkv0WhifNhvdIA90LX5n92aerXuo1eoI7GMUD4e0cmjTv05M8kdyCIWwVvlW53A9ubD1Yiw1ZkZVYkeVYkAXoD8DHTGEK03iJZ3iaZ5hYwc2+7AKg1SzD9uzA9gkn2Ws8wJ3cmfQHqYAMgEr056OaRrozAKq1CuuxLuuwLitVcGxO4SWe4lEmMMF5IGpjAGTJAKhdb5ZkGYawDAPoR1/60JfJTGcqHzCV13mRl3gv70Y2v6h51aVYH/FyBqPlq5OifwsgFZoBIBWYASAVmAEgFZgBIBWYASAVmAEgFZgBIBWYASAVmAEgFZhdgbs353nA6g3Ku+lSeQZAdwYxjvXzboSUDT8ClNeb6z391boMgHLauIQd826EpHycSXuuy2J57wCpuA7P+fQ3AKTcfJmZBoBUTFszLffT3wBQ5rwJ2JU1uZG+eTdCyp4BML+l+ROD826EVA8GQGeDuJ3l8m6EVB8GwLz68EfWy7sRUr0YAB21MZId8m6EpHycnft9f78FkHLy3dxPeANAysneDdDxxwBQnXkPYLZtuMJ9oeLxoAdYi1EskHcjpPozAOAz3G7HHxWTATCI2+z4o6IqegD04QY7/qi4ih0AbVzC9nk3QspPsQPgbPbPuwmS8nFc7t/z2w9Aysk+DdjxxwBQnRX1I8BGXF7YbZc+VdSTYG07/kjFDQBJGABSoRV1bsDpvJN3EyrQnncDJEmSJEmSJEmSJEmSJEmSJEmSJEmSJEmSJEmSJEmSJEmSJEmSJEmSJEmSJEmSJEmSJEmSJEmSJEmSJEmSJEmSJEmSJEmSJEmSJEmSJEmSJEmSJEmSJEmSJEmSJEmSJEmSJEmSJEmSJEmSJEmSJEmSJEmSJEmSJEmSJEmSJEmSJEmSJEmSJEmSJEmSJEmSJEmSJEmSJEmSJEmSJEmSJEmSJEmSJEmSJEmSJEmSJEmSJEmSJEmSJEmSJEmSJEmSJEmSJEmSJEmSJEmSJEmSJEmSJEmSJEmSJEmSJEmSJEmSJEmSJEmSJEmSJEmSJEmSJEmSJEn5+X8OQF7WL4I0MAAAAABJRU5ErkJggg==;" parent="1" vertex="1">
          <mxGeometry x="-130" y="161.78999999999996" width="100" height="100" as="geometry" />
        </mxCell>
        <mxCell id="uAa9FCq27htEHlU7-kTH-38" style="edgeStyle=orthogonalEdgeStyle;rounded=0;orthogonalLoop=1;jettySize=auto;html=1;entryX=0.013;entryY=0.547;entryDx=0;entryDy=0;entryPerimeter=0;" parent="1" source="uAa9FCq27htEHlU7-kTH-33" target="uAa9FCq27htEHlU7-kTH-37" edge="1">
          <mxGeometry relative="1" as="geometry" />
        </mxCell>
        <mxCell id="CZB_nalEj2wyvRyLv4B4-5" value="" style="shape=image;verticalLabelPosition=bottom;labelBackgroundColor=default;verticalAlign=top;aspect=fixed;imageAspect=0;image=data:image/png,iVBORw0KGgoAAAANSUhEUgAAA+cAAAM9CAYAAAD+WwL1AAAAAXNSR0IArs4c6QAAAVlpVFh0WE1MOmNvbS5hZG9iZS54bXAAAAAAADx4OnhtcG1ldGEgeG1sbnM6eD0iYWRvYmU6bnM6bWV0YS8iIHg6eG1wdGs9IlhNUCBDb3JlIDUuNC4wIj4KICAgPHJkZjpSREYgeG1sbnM6cmRmPSJodHRwOi8vd3d3LnczLm9yZy8xOTk5LzAyLzIyLXJkZi1zeW50YXgtbnMjIj4KICAgICAgPHJkZjpEZXNjcmlwdGlvbiByZGY6YWJvdXQ9IiIKICAgICAgICAgICAgeG1sbnM6dGlmZj0iaHR0cDovL25zLmFkb2JlLmNvbS90aWZmLzEuMC8iPgogICAgICAgICA8dGlmZjpPcmllbnRhdGlvbj4xPC90aWZmOk9yaWVudGF0aW9uPgogICAgICA8L3JkZjpEZXNjcmlwdGlvbj4KICAgPC9yZGY6UkRGPgo8L3g6eG1wbWV0YT4KTMInWQAAQABJREFUeAHs3QecHVX5//GTLSm76Zvee09IJwEC0nsLghRR/oqAIiIoIIoFrCj6U0FUQCwgoNJrKAECIYX0XgjpvZC2m7Il/L/PTTYESMjunTP3ztz7Oa/XZO7evfPMmffc7Mwzc+Yc5ygIIIAAAggggAACCCCAAAIIIIAAAggggAACCCCAAAIIIIAAAggggAACCCCAAAIIIIAAAggggAACCCCAAAIIIIAAAggggAACCCCAAAIIIIAAAggggAACCCCAAAIIIIAAAggggAACCCCAAAIIIIAAAggggAACCCCAAAIIIIAAAggggAACCCCAAAIIIIAAAggggAACCCCAAAIIIIAAAggggAACCCCAAAIIIIAAAggggAACCCCAAAIIIIAAAggggAACCCCAAAIIIIAAAggggAACCCCAAAIIIIAAAggggAACCCCAAAIIIIAAAggggAACCCCAAAIIIIAAAggggAACCCCAAAIIIIAAAggggAACCCCAAAIIIIAAAggggAACCCCAAAIIIIAAAggggAACCCCAAAIIIIAAAggggAACCCCAAAIIIIAAAggggAACCCCAAAIIIIAAAggggAACCCCAAAIIIIAAAggggAACCCCAAAIIIIAAAggggAACCCCAAAIIIIAAAggggAACCCCAAAIIIIAAAggggAACCCCAAAIIIIAAAggggAACCCCAAAIIIIAAAggggAACCCCAAAIIIIAAAggggAACCCCAAAIIIIAAAggggAACCCCAAAIIIIAAAggggAACCCCAAAIIIIAAAggggAACCCCAAAIIIIAAAggggAACCCCAAAIIIIAAAggggAACCCCAAAIIIIAAAggggAACCCCAAAIIIIAAAggggAACCCCAAAIIIIAAAggggAACCCCAAAIIIIAAAggggAACCCCAAAIIIIAAAggggAACCCCAAAIIIIAAAggggAACCCCAAAIIIIAAAggggAACCCCAAAIIIIAAAggggAACCCCAAAIIIIAAAggggAACCCCAAAIIIIAAAggggAACCCCAAAIIIIAAAggggAACCCCAAAIIIIAAAggggAACCCCAAAIIIIAAAggggAACCCCAAAIIIIAAAggggAACCCCAAAIIIIAAAggggAACCCCAAAIIIIAAAggggAACCCCAAAIIIIAAAggggAACCCCAAAIIIIAAAggggAACCCCAAAIIIIAAAggggAACCCCAAAIIIIAAAggggAACCCCAAAIIIIAAAggggAACCCCAAAIIIIAAAggggAACCCCAAAIIIIAAAggggAACCCCAAAIIIIAAAggggAACCCCAAAIIIIAAAggggAACCCCAAAIIIIAAAggggAACCCCAAAIIIIAAAggggAACCCCAAAIIIIAAAggggAACCCCAAAIIIIAAAggggAACCCCAAAIIIIAAAggggAACCCCAAAIIIIAAAggggAACCCCAAAIIIIAAAggggAACCCCAAAIIIIAAAggggAACCCCAAAIIIIAAAggggAACCCCAAAIIIIAAAggggAACCCCAAAIIIIAAAggggAACCCCAAAIIIIAAAggggAACCCCAAAIIIIAAAggggAACCCCAAAIIIIAAAggggAACCCCAAAIIIIAAAggggAACCCCAAAIIIIAAAggggAACCCCAAAIIIIAAAggggAACCCCAAAIIIIAAAggggAACCCCAAAIIIIAAAggggAACCCCAAAIIIIAAAggggAACCCCAAAIIIIAAAggggAACCCCAAAIIIIAAAggggAACCCCAAAIIIIAAAggggAACCCCAAAIIIIAAAggggAACCCCAAAIIIIAAAggggAACCCCAAAIIIIAAAggggAACCCCAAAIIIIAAAggggAACCCCAAAIIIIAAAggggAACCCCAAAIIIIAAAggggAACCCCAAAIIIIAAAggggAACCCCAAAIIIIAAAggggAACCCCAAAIIIIAAAggggAACCCCAAAIIIIAAAggggAACCCCAAAIIIIAAAggggAACCCCAAAIIIIAAAggggAACCCCAAAIIIIAAAggggAACCCCAAAIIIIAAAggggAACCCCAAAIIIIAAAggggAACCCCAAAIIIIAAAggggAACCCCAAAIIIIAAAggggAACCCCAAAIIIIAAAggggAACCCCAAAIIIIAAAggggAACCCCAAAIIIIAAAggggAACCCCAAAIIIIAAAggggAACCCCAAAIIIIAAAggggAACCCCAAAIIIIAAAggggAACCCCAAAIIIIAAAggggAACCCCAAAIIIIAAAggggAACCCCAAAIIIIAAAggggAACCCCAAAIIIIAAAggggAACCCCAAAIIIIAAAggggAACCCCAAAIIIIAAAggggAACCCCAAAIIIIAAAggggAACCCCAAAIIIIAAAggggAACCCCAAAIIIIAAAggggAACCCCAAAIIIIAAAggggAACCCCAAAIIIIAAAggggAACCCCAAAIIIIAAAggggAACCCCAAAIIIIAAAggggAACCCCAAAIIIIAAAggggAACCCCAAAIIIIAAAggggAACCCCAAAIIIIAAAggggAACCCCAAAIIIIAAAggggAACCCCAAAIIIIAAAggggAACCCCAAAIIIIAAAggggAACCCCAAAIIIIAAAggggAACCCCAAAIIIIAAAggggAACCCCAAAIIIIAAAggggAACCCCAAAIIIIAAAggggAACCCCAAAIIIIAAAggggAACCCCAAAIIIIAAAggggAACCCCAAAIIIIAAAggggAACCCCAAAIIIIAAAggggAACCCCAAAIIIIAAAggggAACCCCAAAIIIIAAAggggAACCCCAAAIIIIAAAggggAACCCCAAAIIIIAAAggggAACCCCAAAIIIIAAAggggAACCCCAAAIIIIAAAggggAACCCCAAAIIIIAAAggggAACCCCAAAIIIIAAAggggAACCCCAAAIIIIAAAggggAACCCCAAAIIIIAAAggggAACCCCAAAIIIIAAAggggAACCCCAAAIIIIAAAggggAACCCCAAAIIIIAAAggggAACCCCAAAIIIIAAAggggAACCCCAAAIIIIAAAggggAACCCCAAAIIIIAAAggggAACCCCAAAIIIIAAAggggAACCCCAAAIIIIAAAggggAACCCCAAAIIIIAAAggggAACCCCAAAIIIIAAAggggAACCCCAAAIIIIAAAggggAACCCCAAAIIIIAAAggggAACCCCAAAIIIIAAAggggAACCCCAAAIIIIAAAggggAACCCCAAAIIIIAAAggggAACCCCAAAIIIIAAAggggAACCCCAAAIIIIAAAggggAACCCCAAAIIIIAAAggggAACCCCAAAIIIIAAAggggAACCCCAAAIIIIAAAggggAACCCCAAAIIIIAAAggggAACCCCAAAIIIIAAAggggAACCCCAAAIIIIAAAggggAACCCCAAAIIIIAAAggggAACCCCAAAIIIIAAAggggAACCCCAAAIIIIAAAggggAACCCCAAAIIIIAAAggggAACCCCAAAIIIIAAAggggAACCCCAAAIIIIAAAggggAACCCCAAAIIIIAAAggggAACCCCAAAIIIIAAAggggAACCCCAAAIIIIAAAggggAACCCCAAAIIIIAAAggggAACCCCAAAIIIIAAAggggAACCCCAAAIIIIAAAggggAACCCCAAAIIIIAAAggggAACCCCAAAIIIIAAAggggAACCCCAAAIIIIAAAggggAACCCCAAAIIIIAAAggggAACCCCAAAIIIIAAAggggAACCCCAAAIIIIAAAggggAACCCCAAAIIIIAAAggggAACCCCAAAIIIIAAAggggAACCCCAAAIIIIAAAggggAACCCCAAAIIIIAAAggggAACCCCAAAIIIIAAApktUCOzN4+tQwABBBBAAAEEUi5QW2ssrJzy8/MLP/zww8S0770C+3nf6zqaf6hpd+VUo0aN/a/tvcqfK+dlZWUf+/2+5XZqXq6JggACCCAQUwGS85juOKqNAAIIIIAAAikRyNVaWijBbrVnz57WSqpb6efWSpQTc/3cXD/X1VSo9yzhLtCUoynVxRL8jarPStVjhV6vqHytn1eWl5fbe6s0WWJPQQABBBCIoADJeQR3ClVCAAEEEEAAgZQI1NRauuTl5bVVIptIvJXIttZ7lYl3K/1syXc6ku0wACyB31CZtOv1Sr1eYcm7phUHJPClYaycmAgggAACny1Acv7ZPvwWAQQQQAABBOIvUKg73z1057unktFeSkRt3lPzztq0vPhvntctEM2Hq2QzXfNJmk+uqKiYpDVs8LoWgiGAAAIIfEqA5PxTJLyBAAIIIIAAAjEVaKS74JWJdy9LwDVZMt5O28M5T4CdKsdlcpyk+eScnJxJuss+ReG2BgjJoggggAACnxDgQPUJEH5EAAEEEEAAgVgINFAiPkR3w4coaRyqpHGo5tYcnZIaAZF/uFDmkzWftC9hn6ZVW8d0FAQQQACBJARIzpNAYxEEEEAAAQQQSKlALTVL76/m1ZaAD9mXiHdTDTiPSeluOOzKyrVv5lQm7Lm5uZPUs/wsLVV22CX5AAIIIIAABzW+AwgggAACCIQgUF8xG2qqpammEkvreKymEpcD54nf2fsH/k6vP1RyU6L5ds23a15scyU5xfbevinT7042VGJ3grbVpiM19dNkTpT4Cdj39nV9919SK4cX9Xp5/DaBGiOAAAKpEeCKc2qcWQsCCCCAQGYIWK/dzZVst943rJb17N1GybPNrbfvytc2tFaYpULBi7W+RMK+L4nfrPcO1vu2DaFlSX2Ui1qo5w2V6SnallNU0aGacqNcYeqWnIC+s3O05ItqBv+Snlsfq9fcVU+OkqUQQCADBUjOM3CnskkIZIiA3VVspiSomU7Ym+l1c53UNdMJXTPNm+pnG0+49gFTLb2//2ed4O9/rc9Yb8x2Amjj+5bqc4m5va58T5+vfM/mlsis1+fWab5Ov7NpvU4kEz/v+71mlAwWKNB3r5+aUQ/Uvh+o7bSOxdrqdUu9jmPv3ltVfxsyyxL1A8e/Xqzv9Wy994GmVJfO+v9cmYwfr5U3SHUFWF/aBbapBq9pelH/117QfG3aa0QFEEAAgTQKkJynEZ9VI5DFAva3p7XulNnQRj2UMHS3nzVZ4t1MP1syHuUT9Z2WuKue61XPRMJuP9tre0/TugMSebubaWMLU6IrUE/fxQH6LiYSce1Lm/dQdbPmzq222YbOmqX5TJsraZ6lZvTzZOBzvOvKpuonaz2WlHeK7leCmqVBYI/WOUbTI0rUn9Dc/nZSEEAAgawSIDnPqt3NxiKQcgG7e91Nz4720Ml4d0t4NK9Mxu3OdzaUMm2zjQ9sibs1OV6g+VwlP3P3JT9254iSOoEc3REfrJP/47QfBml/WCLeRavnePjpfWCde9n31ZL2WZrPlNssfWzZpz968HdkPVDLnKNlaap+cCLePbiAXRR6SZMl6s9pnul9LBxcgXcRQCDrBDgZybpdzgYjEJpAnk7EB+hE6midiB+9L+npoLXZM7qUQwjIaaW85tqk14m57rrP1ce5a3QIsyTebqQLRKdquTM0nabJHougJC9gLUbe0vd1jFobvKXXlrAf2DqkrS4+fVHvXa7vdU/NKQgEEbB+FZ7Sd+kR/W20JvDlQYKxLAIIIBBlAZLzKO8d6oZAtAVsjOHhOjlPJOOqqvWoXBDtKsendkp81lrCrhonkna7074vabe78JTDCOhCkQ27dYYMLSEfpilrmqgfhiaMX9vz6mP1nZ0o76P12i6AcFEuDGlibtB37GH9LbxXFIvgQAABBDJNgOQ80/Yo24NAeAIt9w1tZHfFj9EJUm+tihPw8LwPFXmjfmHPAlcm7bN1ojpFP2891AJZ8n5dfT9P1raeoe+nJeWtsmS72UwEslHAWmq8rOkeXYSz5u/2vDoFAQQQiL0AyXnsdyEbgECoAp10x3akEp0LtBa7M87fjFC5kw6+RwmpNYkfpwjjdbI6XvMFSUeLz4I11Hrjc9r2r6nK52uyPg4oCCCQRQL6/79Ym3uvWnE9qDmPA2XRvmdTEchEAU60M3Gvsk0IBBPoqYTcknFLygcEC8XSaRTYpHVP0InrOO3P8bq7/q5+LkljfXyu2obUu0IBr9R3tKvPwMRCAIHYCuxQzR/R34Z71NnmjNhuBRVHAIGsFiA5z+rdz8YjsFdg3/O5lpBfoGSHDpwy84tRoUTdhsmqvLtu8yUx2lS7S25DcNld8nM15ceo7lQVAQRSKzBWq/utWhE9o/mBnRWmthasDQEEEKimAMl5NcH4OAIZJNBbdxi+rO2xhLxTBm0Xm1JFASW6NrzbOM3H67swbt+z67uquHiqPtZSdfuKVvZV1bVjqlbKehDwKaDvrqtdu7arW7euq1WrltOdXbd79263a9cuV1pa6tQk2+fqiLVPQH/bZsj+DiXpT+ktknS+GQggEHkBkvPI7yIqiIBXgRx1mnWmIl6v6USvkQmWCQK7tRFv64T2FSUL1tnSzHRtlFpzHKE6/EDrt2fJ89JVD9aLgAk0adLEtW7dev/UqFGjRKKt+Q5NOzWVK/H+UFMNm+rUqZOrKU8Jub7K+flq9XG4lh7Wb0SppjJ970tt0sWyUiWVpUrky/dNFUroE1NxcXHp2rVrty9fvrx40aJFJbNnz94zbdq0elu3bm2pGG2UkLZWtQ+3zqzZuTKxVkOWpD+pjSZJz5o9z4YiED8BkvP47TNqjEAyAvX33X38pk5QOicTgGWyT0AntDac26va8pd1UmtzG9867NJHF5B+opWM1MQxKmztLI9fs2bN/Qn3gcl327ZtK9q1a1emeQ0l5vn6TsZlZArrV2KVpiVbtmzZuHLlyuI5c+aUTZ061U2aNKnO9OnT623btq2F/m+33ZfA18ymr4C2e/a+JP1xbTdJejbtfLYVgZgIcOITkx1FNRFIUqCbTiqv07JXaKqbZAwWQ8AEdF774XTNX9GFnpd1V+8dvS61X3gqPfRd/bFiXaQpLomQp00nTNgCLVq0cD179vzk9GHz5s2z8Txoq7yXa3pv3bp1C8aMGbPqrrvu2jplypQmSlwH6f/5EM276fcZa6NtnKNt/KkuOv5P28kzBUKgIIBANAQy9g9vNHipBQJpEbCOs07RyYc1XT9NE//P07IbMn6ldodujL5nL6sJ7it6PT/JLe6qpPxHWvZSTSTlSSKymP7Q6bnujh07fjIBd7169Uo0N8fosAJr9AkbhnHC4sWL55x77rk15s6d21uuQ/Yl7O0PGyFmH9B2zdLFxht0sXF0zKpOdRFAIEMFOGnP0B3LZmWngJKcs3Wy8XOdTPXNTgG2Ol0C+t4t1/dulNb/tO5G2Ynu4e6qd9L39Yf63OWacjVREKiygL5rrlu3bm7IkCFu6NChialv376JztaqHIQPHk7Amn0v1mQjO0yeMGHCexdddFHNVatWHXFAwt78cEFi8vun9Hfru6qrbS8FAQQQSJsAyXna6FkxAv4E1N/QAN29/K0iHu8vKpEQSFpgm5Z8UZOd8Nq8+IBIjZWU/0w/f00THb0dAMPLQwu0atUqkYBXJuM2t57PKSkXqNAa52iaZNPTTz+9/NJLLy1QR3WDLGHXe4M1NdQUx7JbFxl/p2PpL1T5A/9mxXFbqDMCCMRUgOQ8pjuOaiOwT6CNEp2f67XdfeT/M1+LKApYD/CvaXpKJ775OoG/Xa+bRbGiYdepQYMGic7HWrZs6QoLC511RlbVSY+qJIbeUi/dbvv27c7mB76ufK9ybr+z4briWtq3b+9OOeUUd/LJJ7ujjjrK2TPjlMgK2DPs1mrmxZKSkpd10aSRmoqfrv/rNjLICE2x6nROf6fWqO7f04XFh1R3Oo0TAgUBBFInwMl86qxZEwI+Berq5OcWnUB8R0Hr+AycCbFkk2jeauMKV042tnDla5tbsmPjC1dONubwoV7HOcnJhP0Z9W3Q/0OnjsWcevYu6dy582Y1ty7p0qVLqZ5/rqGksraG2WpQr169hrqQlp/KbdFztG7Tpk1OPXa7ZcuWOT1H7FasWJH42eY2bdiwIZVVOuS67GLFCSeckEjILSmX4yE/yy8iLWDJ7AxNT2t6oaioaKGGdztRr89U0nuG/q+01Ou4lHd1LPmW/v5PjEuFqScCCMRfgOQ8/vuQLcguAZ3f535FJzl36CQna24lKblxzZo1SyRA++YVbdq02aGmruX6uYamXJ0E5ulz+Ta+sE6ovP5ts8RdvRo7jSu8f37g6wN/t2PHjuz6RmbX1m7URZ7pSiK3nH766XlHHnlkQyWRrXRHvIP+P8bq7mDlblMTXqehtdzGjRvd6tWrncbLdmPHjk1M9nNYxS5oDB48eH8yLsvEBbOw1kfctAnY1Z8XND2uzuVe7d+/f2/dkT5LP1+o70Ac+kaxiw0Pqc43ar5JEwUBBBAIVcDrCWyoNSU4AlkuYD2w23PlOqHpk4kUdre7a9eum/Qs6dqBAwdW9OnTJ79Tp0511QS4SAlRQVy22ZLzA5P1gyXx6lDJ2USJroA1bdWFnmlnn332mksuuaRsxIgRDXXxp7tqbP//UnoHPF1KSkicxspOfFcXLFjgJk+e7N5+++1EAp/MRSi1LNifjJ900knOmvlTskpgs7b2f5oe0fS2jmU99XffRmm4RK87ah7lsl6Vu0b/J56KciWpGwIIxF+A5Dz++5AtyHyBerpb/kdt5hUZsqllGm94+WmnnbZ5+PDh5ephuWbr1q2LCgoKWmn7siLpsf2oZzPdvHnz3Jw5c5zuKCXm9tqaGlNSLrBFa3xTHStO++EPf7jz6quvbqeWGEfpvX6a6LTuILvDHgGxu+32HX799dfdpEmT3IwZMxLN6A/8eI8ePdxll13mRo4c6bp3t2sbFAQSAjZsmyXpjyoxn6L/e8N08flSXRS7SD9HuQf4R5SgX6d6f5DYCv5BAAEEPAuQnHsGJRwCPgV0wjJUJwKP6GQllg9g6kRrre74j7vwwgtXfulLXyrUXfG2uvvYX0ZZ2SFYVb4blrRbsn5gwm5Juz03TPEnoO/mLEV78cQTTxz37LPPFqkfglP1s01x7WnaH06ASHanfdq0aYnO6Cwxb9euXYBoLJolAou0nf/W9KCOdat0zDhB/z+/qp9HaorcBVs7rqmeV+vY/KzqR0EAAQS8CpCce+UkGALeBNTaL+d7OgG4XRHjcudO5ywfLmjYsOGEa6+9dv1XvvKV2h06dOit+g/TVOhNJksDWe/bB0vaaR5f5S9EiT45Wv+vXnr88cdXnHPOOYP085mabOinHE0UBBBIr8Aerd6eT/+Djn2jNW+p/69f0/wq/dxa86iVh5Wgf0uVsub6FAQQQMCLAMm5F0aCIOBVwIZHe1gRj/Ma1X8w6yjnXSXkb6mJ+rwHH3ywhXqsPk3vWXPguFxQ8K+S4oh2p3LChAlu3LhxiWnixIlu586dKa5FZFe3Xif1j6p2L6i38hJ1IPhFvba7cVFuNhtZTCqGQAoFlmldd2n6p/4P79Qx8Vy9vlbT8ZoiU3T8s2HXrlKS/nxkKkVFEEAg1gIk57HefVQ+0wR0AnKBtul+TY0ium0VqtcYnZA8cffdd0/6xje+cax+tjrb3XH+nggh3UUniW7mzJn7k3VL2rPsOXa7+/aqpvtffvnlN9Vs/SK9trtvAzRREEAgXgK7VN2/a7pbSfA8zXvpOPkNzS/XVF9TVMo/991F3xaVClEPBBCIpwAn0/Hcb9Q68wQKdcLxe23WlRHctFLVyZKdJ9UceMZ55513kl5/XpM1B6bEQMCGxKq8s25zeybYkvhMKrpgtErb86A6lfqbXlvngpaQX6ypjiYKAgjEX+AtbcJPlaS/pnk9NXn/ul5/V6+bRmHT9HfnPf39sYvVs6JQH+qAAALxFCA5j+d+o9YZJKBO3wYqUbIea7tFaLOsXfSLmp789a9//faNN95oyfiXNFlnbpSYC+zatSvRu3Zlwv7OO+8khsyK4WbZFQZ7RvV+PY8/oVu3bpfqtSXlGTncoLaLkgECFRpbPqdGjtNQ75TkBKZrsVt0zHxF8wIl6ddofpN+bpFcOK9L7VA0a+b+b69RCYYAAlkjwKEha3Y1GxpFAd0tt2dgH9BUKwr105X/5arHPbr6/4Be290I6+zmCk106CaETC3a327KlClOzcDdqFGjnD23rv0fh819oLy8/Geq6Pc12cWj2nGoNHWMp4Al1Ru37nAbNhe7DVtK3Obtu9yu0jK3Y1eZ27lbc0023zuV731fv0/8bJ/Z99nyCnvyQt2Q5+W6mvma9s1r5eclfv5onpv4zEc/7/193To1XbNGdV2LonquhebNG9dz9QsjcQhJ9Y6doxV+V0n5KM3rKEm/SvOb9bO1nEl3+ZMS9BtUibJ0V4T1I4BAvARIzuO1v6htBgnoRMJOKn6tTYrC/0NrLvhHnUw8raTseL3+tqYzIlI3VYOSSoGtW7e61157bX+ybs3io1Zatmzpbrvttj1XXXVVhf4f5UetftQnXgLbSna79fuS7gPn65WEWyJu723ettPtiehFqzq18pWkK2HXZMl65fzA9wr0mQwts7VddifdWnvV0rHVHg+z0U7apHl7J+iYaq3OVqW5HqweAQRiJBCFpCBGXFQVAT8COnm4UycON/uJlnSU3VryUdXlD6WlpQv02u7iX6+ptyYKAvsF5s2bl7ijbnfWx4wZkxjDev8vU/yiWbNm7tZbb3VXX321q1mzZorXzuriLrBOSfbi1R+4JZoWr968//XWEut3LLNLvYJarqXutndv19T16tAsMdlru3ufIcWSdEvK7VGXmjq2fU2vb9frojRun40YcbFa+LyRxjqwagQQiJEAyXmMdhZVzQgBtWTPvU9b8pV0bY3ujK/Ruu9VU+a/6rX9DbCE/GpN6TyB0eopcRCwYdosQbdE3aaFCxempNpFRUXulltucRohwNWuTev1lKDHeCWrN25z7+9Pwvcm4kvWfOBKdpbGeKv8Vz03J8d1aVOUSNR7d7SEvXni57zcHP8rS13Ed7UqGxt9huaNdMy1BP3rmvI0paNU6Fj7Ax1z70zHylknAgjES4DkPF77i9rGW6C2ThIe1Sacl6bNKNYJwp06Qfit5laF72q6RRPPk5sGJSmBRYsWuSeeeCIxTZ06NakYn7VQgwYNEkn5tdde6woL+ap+llW2/m53WYWbs3itmzh3hZu9ZJ2bu2S9y4Y74WHtb3sGvmvbJq4yWbe77J1aNXY5ObE6ZbSD3COavq0kfaPmNgTb7zU/WVO6ytNq5m59Y2xPVwVYLwIIRF8gVn9po89JDRE4pEB9nRg8q98ed8hPhPcL633oQZ0U/FDztUrMv6C5PeveThMFAW8Cy5cvd08++WQiUZ8wYULgTuW+/OUvu9/85jeucePG3upIoMwVsOT8ny9NcRPmrMjcjUzTltWumed6tLfm8M3d0J5t3NBebZ29F4Nizyv8QNMflaSX6zh8jo6Bv9XrLumou9Y9XRfIrT8Xa8FGQQABBD4lQHL+KRLeQMC7QDM9+zZKJwMDvEc+fMDXlJR/Rx+bqZOCQZr/QdPRh1+MTyAQTGDNmjXuqaeeSiTqb731VrUS9S5duri//vWv7rjj0nEtK9h2V2XpYjWt3rCl2G3autOVlVfsndSDt722nrz3vrdHr+13e3+2uAW18511/FVYu2bitf1cYK8PeK92zfysH6JrwfINStKnulcmvef27Em0EqrKbuEz1RCwu+uDurd2R/fr4I7p1961a96wGkun5aM2Eok1dX9Zc3se3e6o36bX9VJdGx2LlypBP03rtb5eKAgggMDHBEjOP8bBDwh4F+iok4BXUn2VXgf/eVrnTUrMX9DrltqqX2j6sqas/D9vQyBZ09fSsnJNNlcSpPfy9Vxlnk4y83NtyKKcxLBFNrfnMCn+BDZu3OieeeYZ97///c+NHj36kIm67molOnv7/ve/H9vO3tZu2u5Wb9qm4bb29vJtPX1/crKhtcIqNnZ2Qa2arm7BvuG29vXe3Twx5JZ68t43b9KgMG7NlKtNZs+dP/zKdPf0W3M05Fl5tZdngaoLtG3WQEl6BzfiiI5uSM/WUf4b+pq26hodH9/XvLn+5vxW88uqvqXePrlJ5wZnlZWVTfAWkUAIIJARAll5op4Re46NiINAFx1839JJgCXHqSqblYzfpqvy92luXfDeqOn7muqmqgJhrmf7jt1u07YduuO4w32wb175s80/0FBHW7bv3JuIl3+UiFd3+CNLcPYm7LmunsYPblK/wDVuUOCaaCrS6yKbK7n56HVB4u5lmNueKbHtjvrDDz/s/vWvfznrBb6yHH300Ym75T169Kh8K9Jz+04tX7fFLVi2wc3XNE93a+11XJ51tueHmzYsTCTrdtfTnjHu2kZT26LE9zrS+NWs3Jbine6B5ya7x9+Y5UrVOoESrkDDunXcKUO7uNOO7O6O6NIyii057OqYHRd/p+PzHiXo5+p4+Ve9bh6uzKei79A7F+si+nOf+g1vIIBA1gqQnGftrmfDQxZoqsR8og72HUNez4Hh39RB/nK9sVInGsdo/ndNaXmu7sBKVfe1NetdsX6Lhjra7JassekDt1Rzm3aEeMexuvX85Oft+UtL2C2Bb6wE/sB5Ipm395QMtdAYxJb8U5ybNm1a4m56nz593CWXXCKX6MIsWrXJzVu6fm8iriR8oZLxKH8fg3y/Gtevsy9Rt4S9KJG4W4dg1pQ5zsVaNfzl6Ynu+XHzIzteeZx9D1b3Vk3qK0nv5k4f1t11bh25viNs6LXz9XdnkeZFStLv0fzig21HiO/Z1aJrdOx+IMR1EBoBBGIkEN0zoRghUlUEPiFQSwf51/XeUZ94P6wfy5SM/1h3y+/U3NZxm6YfaYr8mbQlNzMXrXXT31vt3lu5MZGQr1i/1Vkz9Ewt9sxwx5aNdKJa5DrpZLWzkh57TdIerT1u382J6lhs7MylicmapmdzsTvt7Zs3UqdgTdzAbq0Tzxt30Pc4jsXGOb/nifHuzWmL41j92NbZWmecoST9rKN6JFofRWRDylWPWzVZJ3Ef6tj9eb2+V1NTTSkrOnb/RMfw21O2QlaEAAKRFSA5j+yuoWJxFdDB3YZvuSQV9dcBfZHWd6meW5uk1621zn9rOi4V605mHdbs3BLxqQtXu2maW8dNdNi0V9I69bK7k4mEXcl6ZdLeXM8MU1IjYBeG3p5hyfgSN2XB6kTHbKlZczzXYo91DOzeKpGoD1TnYJ1bFcWqVcis99e6Pz4+Tvt6VTx3QExrbWOonzS4i/vCif0Szd4jshnTVY+RStCXaN5Ux9U/a35Biut2n+6gf0Pr5NmLFMOzOgSiJEByHqW9QV1iL6Cm7D/Rwf3HKdqQf+hAfp3WZeOXn6P5g5qKUrTuKq3Gng1/Z/YyN31fMr5s7ZYqLceHPhIorFMzkbRXJuuWvHfTHShLjCjBBay5+nNj57m3ZixxfD+DedqzxgO67U3Wh/RonWgOHyxiapYeN2uZ+4OS9PdW2HDYlFQK9GjX1F2kJP10NX2vlf6h2exZ9O9oumffXXS7yG5N3VPZHv9ZHddtuFMbAo6CAAJZKEBynoU7nU0OR0BX2q3H14fDif6xqJbh2jNq/1FSXkuvf6PJkvRIFEvIR09Z5F6dtMhNU1Je3c7YIrERMahEG/WObJ0t9ddkc0vacyL8zHaUSK3nbhtm68k3Z7uZuntKCUfAnjf+3IBO7viBndyArq0i3Tu8teB5bPRM9+enJ7gSDXVHSa1Ag8La7twRvdyFJ/R1rfW9SXN5V+v/vBL0FZq31rH9f5oPT2GdXtLx/Tytjy9iCtFZFQJRESA5j8qeoB6xFsjLyztaifJobYQly2GWd3XQvlArWK71WbfWj2k6IswVViX2xq0lbvTk9xMJuTVbJyGviprfz9TVHfa+nVu4/kqCjtC8jyZrKk/5SGCh7ow+OWa2e3H8AmdjjVNSJ2B31Y/t30GJemc3vHc7VzM/ml1i2N+y3z021o2auDB1OKxpv4D1bWCdx331rMGuQ4u09mlgPalbZ3GvaK7BO3J/p/k391c0/BfP6Fhvz7/bM/EUBBDIIgGS8yza2WxqaAKddOCeqOhNQlvD3sAv62Btz8CVKDH/kubWaU3h3l+l/l+7+/iCej1+ccICN+O9NSTkqd8Fn7lGO8ntpqGxjui698663WFvUVTvM5fJxF9ax24vK9F6aswcN3vJukzcxNhtk3WKOLxPO3fioC7uuAEdI3kRadK8le6XD7+ZGCUidsAZUGFrBXTy0K7uyrOGpLuX91+J8/v7mrlfqtf3a0rVM0X/0zHfmtbzDLoQKAhkiwDJebbsabYzLIGGes58vA7cdhc7zPKoDtJf1gqsZ/afam49sqelrN9c7P6j5p9PKtmJy5jOaYGK4EqbN6rr+ilJH6jngi05svGtM7WU7Cp1j746wz308jS3fcfuTN3M2G+Xte44RUnYecf2dv3U2iNKpUxjotv354HnJjm7GElJvYA9qXOCWltcefYQ113Pp6epjNV6z9RxfpvmfXTMf1Kvu6aoLg/vO/Zn7hAmKYJkNQjERYDkPC57inpGUSBPd8xHqWInhly5e3Rw/paSclvN3ZquDXl9Bw0/V2M8//uVaYmm6zYWOSX+AvZs51F92ycS9SE927jC2jVjv1GWRNnFo3+8NMVtLaZPpTjtUBut4Dw9d3ymhtpqVK9OZKq+RuOj/+aRtxh6Lc175Lj+Hd3V5x6p4fzSkqRv0OafoKR8tub1dez/p+b2XHgqyoM6B7hSK0qcBKRihawDAQTSJ0Bynj571hxzAT1n/nslzNeHuRmKnxj7VPM8recfmqzTuZQVe3Z8jMYCfujl6Ykh0FK2YlaUcgEb3sg6lrM76kf1aZ+4SxWn/uVKyyrc4+rg7e8vTHabttnjopS4Cth30RKx83U3fZi+j1Hp6NA6ufzFQ29w0SeNXyz7m2TPpF9/4dGuacOUP9VlzSeuVIJuibk6OMy5Ra9/rpep6EDhz0rQbZg1CgIIZLgAyXmG72A2LxwBJeYnKWF+NZzoiajKiz+8bs+ePfdqXlvv/FfT2SGu71OhX1Vv1nc/Md6t1NjPlOwTaFy/jhumjrssUbe5/RzFYr1sP/nWnETTY3vkgpJZAs0b13Ujj+vjLjq+r2tQ1/4UprfYaBS3/320GztzaXorkuVrt34LvnLmYHf5aQNczbxU5MYfA7fk3JL0cp0LnKZj9OP6OfQrBVrf/5WXl9/4sZrwAwIIZJwAyXnG7VI2KAUCdXXFfJYOlB1CWleZ4l6uq+Q2VJr14PWsps9pSkmx5ut3Pfo2d8pToh2PldjdKnve0+5mWideXdoURaLic9TB28/++YZbsNxanFIyWaC2xsA+55he7vJT+7vWTRukfVOtz43fPfa2sw4HKekTsEdzbrz4mMQoACmuhTVvH6HzgC35+fmDdSH9Bf3cLOw66JzgV1rXrWGvh/gIIJA+AZLz9Nmz5pgK6Fkze+47rCFVdutgf46ujr+ig7BlQPZM++BUUG3YUuLu0Z3y58fNc3sfb0/FWllHHAWsI7kTB3V2Jw3u4np2CP189FNE1tnbvU9OSDxbzrB9n+LJ6DdsFAL77l1+2kDXp2PztG7rqg1b3Q8feI0LmWndC3tXbn1m3HTpsa5L65ReOFyvtQ/WMXuF5l100X6UXncOm0PnBj9Wgn5H2OshPgIIpEeA5Dw97qw1pgJqwnaMDoxvqfph/d+5THfMH9E6WmsdNr5qr7CpdqsDLeuR+O8vTnE7uQsUNnfGxW+lO1c/v+qUxPPqqdi4N9UHwp0Pj3HraMKeCu5Ir2Ngt9buy6cPdMf06+DS1T+CXRx6aNQ09+enJrhS9e5OSZ+AXbi5+MR+7psXHOWspUWKSonWM1xJ+SzNm+nivd1BT8UF9f+nc4V/aF0UBBDIMIGwEowMY2JzEEgI1NaV8Rk6CHcLw6Pyavi+xPxtraNjGOs5MKZ1cPR//x3r1qo3YgoCyQh85+IR7rJT+iezaLWWsefJ7/z3W+6Nqe9Xazk+nPkCnVs3dt84f1g6mjbvx120cpP7wf2vuPdWbNz/Hi/SI9C2WQN3+1dPdv27tkxVBezZhtN1bjBa87pK0O0Z9FNDXnmp1neSWtnZuQIFAQQySIDkPIN2JpsSroAS8zt1MLw5pLX8W1fBv6jEvK7ij9PUN6T1JMLac5J29/G5d+aFuRpiZ7jA1ecOTQxtFPZmvjh+gfvlQ286a85OQeBQAn06tXDXfX64G9KjzaE+Eur7duf85+oDgb+roTJXKbj18G8XDa8dOdzVzM+t0jIBP2Tji35Z5wgPa27DrP5N8y8FjHm4xTfqvGGoPrTkcB/k9wggEB8BkvP47CtqmkaBfR2+TFAVwjjKj9UB1np/t6vvT2sKtVf2+eo869a/jHLL1m5JoyirjrvApSf3d9+9ZESom2HJzq91t/zJMdb3EgWBqgkM1+gC37xgeFr6Q7AaPvLqdPe7/4x1NpIAJb0CHVs2drdfeVKq+iewHX6rEvQ7bat1Qf+Xev29MAV03jBXz58P1zq2hbkeYiOAQOoESM5TZ82a4iuQr4PsVB1k+/jeBB1Y39eBdZjibtTrX2l+i+91HBjPThr/8L9xroxnIw9k4XU1Bc4d0cv96IoTQ33O1zrbuunel9z8ZfTEXs3dw8clYM+gW4eF3zh/uGvfomHKTSbOXeG+9+dRbmvJrpSvmxV+XMCeRf9/ZwxyV50z1OWnZti1P+l84ZtWC507/ECvf/bxGnn/6SVd4LeL+hXeIxMQAQRSLkBynnJyVhg3AR1cf6KD649DqPdmHVDtivcCJeaXa/6vENaRCLmleKf7sXoVfpuxecMizpq4Jw/p4n559Wk66Qzv8GGdvv34b6+57Tt2Z40rGxqOQG5Ojjt3RE/39fOGuaIGBeGs5BBRV67f6m64+3n3/qoPDvEJ3k6lQLe2Tdxvrj3D2TPpKShPaR0X6NzhQ51D/FTz28Jcp+L/Qc+ffzvMdRAbAQRSIxDe2VVq6s9aEAhboK+eHZuileR7XlGZDqan6mD6hhJzS9Df0FTL8zoS4SbNX+luu+8VZ0OlURAIInB03/bu/751lh6ozAkS5pDLVuzZ4+5+fLz716iph/wMv0AgGYHCOjXdteo07qIT+oV6YemTdbN+En54/6vOLjhR0i9QV98D6yzu+IGdUlGZF3ScP8tWpJFe7tKx/jshr/RqXfC/L+R1EB4BBEIWIDkPGZjwsRaoocR8orZgSAhbcZUOovfrYN1WsSdpCmXA3sffnO1+pY60GAs6hD2YZSF7aTzzv33vAlcrpCGKtpXsdjfe/YKbunBVlsmyuakU6NG+qfvBl453vVM4RrpGW3N/eXqCe+D5Sc5eU9IvYEPwXach18JsAbRvK59Rgn6evdb5xJ80+8a+98OYlWtdp9hF/zCCExMBBFIjQHKeGmfWEkMBHUitp9V/hlD15+35MCXmhYo9VlP/ENbh/qm7j3/47zthhCZmlgkU1S9wD//4C655IxtMwH+xYdK++btn3aJVm/wHJyICnxCwnrwv+FyfRKdx9QpCabD0iTXu/XH0lPfdjx541e3UaBmU9AsM7tHa/fKa05z9fQu5PKqk+VKtwy74P6D5V0Jc3wc6v7B+bN4LcR2ERgCBEAVIzkPEJXSsBfSoYs48HVC7et6KrTpw9lZivlpxH9c00nP8RLh7n9JdmufshjwFgWAC1oT9vpvP15jBrYIFOsTSS9dsdt/43TNu7abth/gEbyMQjoAlZTd84Rh3xvDu4azgIFFtHPQb1EJk9UY61z4IT8rfatqw0N359dNTMSb633Q+caU2MEcJ+kOaW7IeStH5xTx1NGtDrBWHsgKCIoBAqAIk56HyEjyuAjp4htVBW2Vz9h/L5ie+fazJ5F2PvuUefW2G79DEy1KB76sJ8Od1lzGMMuv9te5bf3jObS2mR+swfIlZNQEbF/0HXz7etWueml7drYPOW+4d5aw/EEr6BazTwBu+cLSz4SFDLn9Ugn691qFTjNz/aH5BiOu7XzcCrgoxPqERQCAkAZLzkGAJG2sB3TTPmauDqO/bKW/oYHmirmpbB3Bva/Laq5aNqXvHP0a7Z8fOizU+lY+OwMjj+rjblLSEUcZq5ICbNVTartLyMMITE4FqCdRWXwrfvuhod+Hx/UIdIrCyUtb54V2Pvu3+M3pm5VvM0yxw8pCu7qdXnuxq5ueGWRMb+/z7WkG+EvQnNU90GBfGCrUe63T2lTBiExMBBMITIDkPz5bIMRXQAdOam/3bc/V3KDHvq8TcbpVM19TTZ/zyij3uB/e97F6dtMhnWGJlscARXVommrOHMS7w8+Pmu9sfHO0sQaEgECWBI3u1dT/56kmh9a/wyW196q057lcPj3Fl5QxR/UmbdPxsj+/8XiNS1C8MtS+CHypx/pm2r5bON17W/LgwtlXnG8vVvL2vYvMMRRjAxEQgJAGS85BgCRtbAbtrPlsHTq/Jsw6SN+og+X+a3yGZH/rUsQTnxj++wBjmPlGzPFYzdfz27x99IZRxoa1lx+1/f41eq7P8OxblzbdO4m657LiUPYs+Y9Ea9917XnSbtu2IMkvW1K1z68bunhvPDfsCzQ06z/i9UBvrnGOiXncJCfg+3Ri4OqTYhEUAgRAESM5DQCVkfAV0FfsLqv1jnrdgog6ORykx76W40zTl+Yz/83+94Z7QkGkUBHwI1MzLdQ/ceoHrE8JQU69NXuS+95dRzh7BoCAQdYETB3VOPIvesG6d0KtqHcRd9eun6CgudOmqrcBGprAE3RL1kIr9Efy8knJr2t5D5x4TNG8Qwro+VPI/pKysbEoIsQmJAAIhCHh95jWE+hESgVQK1FAC7fWutipfqsT8K4pr22FDqHhNzB9Tx28k5kZL8SVwvZ67DSMxHz97uR69eIXE3NeOIk7oAjb02YW3PeLenbsi9HW1alLfPXDLSNe6aRj5WejVz7gVrNPwjl/91eNu+ns2sEooxW6O/VfnBtbsfL6S9Is0D+PZhhpqtWct9igIIBATAZLzmOwoqhm+gK5cX6ADZG+fa9KB154rm6vpOk1H+ow9fs5yd9dj1q8cBQE/Ava87cUnHuEn2AFR7AT3O/e8wHO1B5jwMh4C1tTchvp75NXwR8BoUVTPPfC9ka5tMxL0KHw7tpXsdtfc9bR7Y+r7YVXHep4bp/OERtZxm+bfDmlFZ+Tn5w8MKTZhEUDAswDN2j2DEi62AjXU9GuGknO7iu2l6EC7VFesu2neSgEtQS/wElhBbGzoL/3sv654Z6mvkMTJcgHrAOm/d1zq7Hlzn2X+8g3uqjuf5LvqE5VYaRE4++ieiWbu9uhHmGW97tpaE/fl67aEuRpiV1Egp0YNZ0NKjjzO67X7A9e+VD901flHuW4S/Emvv3HgLz29fkqt+EZ6ikUYBBAIUYA75yHiEjo+Ajognu8zMbctV7xfalam6a+avCXmW0t2ues1NjSJuVQp3gRu/eLnvCfmy9Zucdf+9hm+q972EoHSKfDcO/Pclb98wm3YUhJqNewCmd1B79CiUajrIXjVBPbosbSf/+t198zbdo09lNJBUV+yyEqgr9fsNXvtuZyneH08xyQcAgiEIEByHgIqIWMn4P1Zc90tX6GD7D80v1wap/oSsSHTbv7TS27F+q2+QhIHAXfakd3cqZp8lhK16rjhj8+7zdt3+gxLLATSKjB7yTp32e3/cbPeXxtqPZo0KHT36xn0ji1D65As1PpnWnDrNuan/3jdvThhQVibdpLOF36r4OU6d7hQr32vqIZuQtwcVuWJiwAC/gRIzv1ZEimmAnl5eSfrLnd/z9X/lQ6u9uDg733GtfFwJ81f6TMksbJcwHolvvXyz3lVsBPZ2+5/xS1du9lrXIIhEAWBjVtL3JV6VCPEO6mJzSxqUODuu+X8MHsMjwJnbOpgd9B/9MCrzjoKDKncqPOGLyr2Fj0Sd7bmvq/CX6SYNMcIaecRFgFfAiTnviSJE1sBHQyv9Fl5xVulA+vfFPMOTd5ue1inNE+OYcg0n/sq22PpUUp3+1dPcjaus89y37MT3ZjpS3yGJBYCkRIoK69wt/99tLvz32NcxZ49odWtqL4S9JtHui5tikJbB4GrLmDDQN6q4SDfnrG06gtV75PW4m6QFnlP0w3VW/Swn66lu+cXHvZTfAABBNIqQHKeVn5WHgEBu7ttV6h9ljt1cG2ugN6Sfnu+/JcPjfFZR2Ih4C48vp8bqh7afZY3py129z37rs+QxEIgsgL/GT3TfV09em8pDu/xjUb16ihBP991a9sksg7ZVDF7vOymP73obMSUEIr1NjhG5xCN1Lz973r9gud1XOY5HuEQQMCzAMm5Z1DCxUtAV5E/rxrX9lVrHVDX6q75/Ypnz3bl+Yr7+/+OddaUkoKALwFrMnvdBcN9hUvEsVEEfnj/q86atVMQyBaByfNXuS/e8V+3cMXG0Da5Yd067q83ne96tGsa2joIXHWBUrWcuPHuF5zt+xBKoWImrsYrQf+aXvs8+I9QvPYh1JmQCCDgSYDk3BMkYWIrYM93+Sy/VoLeUAG93TWfsmCVe+qtOT7rSCwE3I1fGOEK69T0JmEdwNnJaskuhvfzhkqg2Ais3rjNXfHz/7lXJ1lr5HBKg7q13V+UoPfs0CycFRC1WgK7S8vdtzVyyoxFa6q1XBU/3FfnEjfps2vUJ85fqrhMVT5mw8ZeWpUP8hkEEEiPAMl5etxZazQErD3vcR6rsl53zW3YtO9q8vIQb2lZRaKHWO5EetxLhHJDerZxpw/z2zv7jx98jQ7g+G5ltcAuJWu3/HmUu+eJ8c46Dwuj1C+s5f7y3fNc74725BQl3QI7dpe56/7vWbdo1aYwqvILJegtysvLrRf3XR5XcKHHWIRCAAHPAiTnnkEJFx8BXT22Z6/UJZafooPoXZrqKNrX/UR0iWd3l6/b4isccRBw+Xm5zsY091me1fjPr4fXg7HPqhILgdAFHnxhsrvhD887a00SRrEOHP9Mgh4GbVIxrU+Y63//nPtgm/d+B+zRuFc12a35B5Oq3EEW2jc6Dc0vDmLDWwhEQYDkPAp7gTqkS8Bnk/aNumt+rzbEelct8LFB9vziP1+a6iMUMRDYL3D5qQNch5b+RtOx5ry/eeSt/fF5gQACzr09c2miozhL3MIodfVIyj03nOPaNrM+TSnpFlizabv7zj0vOHsW3XPpo4v+l+nZ8z95jGtjnh/vMR6hEEDAowDJuUdMQsVHID8/f4CuHvf2VWMdPG34E7vKfZ2PmDZcyx0apifMIXp81JMY8RJoWVTPXXn2EG+V3jvu72uh3SH0VlECIZAGgdlL1iUS9O07doeydnsG/Y/fPsdZU3dK+gXs2fM7HhwdRkV+r6BzdY7h82r9CWFUlJgIIBBcgOQ8uCERYiigg5zPu+ZOV6EfFoMl5vV9cDw2eoabu3S9j1DEQGC/wE2XHutq17RrSH7Kwy9Pc1MXhtJbsZ8KEgWBNAvMUYJ+jYZa21YSToLevkVDd9e1Z7q8XE7n0ryrE6t/ccIC98Bzk3xXpYnOWa5QUDvP8FIUj+TciyRBEPAvwF9z/6ZEjL5ArpqgX+KrmjrIzSotLV2keNakPXCxHmDtmUUKAj4FjtR45p8b0MlbyEUrN7l7n5zgLR6BEMhUgXm60HrNXU+5rSU++/T6SGtwj9buti+Ta30kkt5Xf356gnttsp0SeC2/0nnLo4ropd28Wg52USzrFJeCAAIREyA5j9gOoTrhC+Tl5Z2oA1NLj2uyq/BEmusAAEAASURBVNnWCVxjHzGf1LBpIXQs46NqxIixwDc9jmlepucqf3D/K2E8XxljYaqOwKEF5i/b4L7+m6dDS9DPOaan+39nDDp0BfhNygSso/4fPvCq79ZvzXUj4FhtxBRfG6IWf5/zFYs4CCDgT4Dk3J8lkWIioAOczybte/r06fM/bboNnxa4WNLzLzqBC+xIgI8LHD+ws9ehl/41aqp7Tx0WUhBAoOoC85dvcNdYgl4czh30b15wlDtxUOeqV4hPhiZgLeBu+OPzbv3mYp/rsKHVXvcVUDcpBviKRRwEEPAnQHLuz5JI8RAoVDVHeqzqmzNmzBimeF4GnX3unflund+DucdNJVQcBXJq1HDXjrSvqJ9ivbM/8DyPXfjRJEq2CSxQgn7Vb55yW4q9D7vl9F/d/exrp3i9EJdt+8fn9m7YUpK4g+5xyPvOZ5555ixfdVSi381XLOIggIA/AZJzf5ZEioGAmnGdrWpagu6rPKRAXu7EWw/t/3jJW4s1X9tHnJgLnDG8u+vUyssTFwkJGzbN7gpREEAgOQFrdXLVr59ym7f7T9BrqcPH33/rLNdCIzNQ0i8wad5K9+SY2d4q8uijjw5UsDIfAZWc23PnFAQQiJgAyXnEdgjVCV3gTI9r2PnAAw+8qXin+og56t2FbuX6rT5CEQOBhID14Hz1eUd603h7xlI3ZvoSb/EIhEC2CliHilcrQQ+jf5GiBgXuj9ef7Qpr18xW3kht9+//+47btHWHlzoVFhaep0CTfARTs/aOipPrIxYxEEDAnwDJuT9LIsVAQFeKj/NYzWeuuOKKMxQv8MHNmr09SFNhj7uGUCYw8rg+rnUTL6P7udKyCvfrf48BFgEEPAksWqUE/TdPhpKgd2lT5H55zakuJ0dt3SlpFSjZVeqzVVynxo0bL/S0QXb1pp2nWIRBAAFPAiTnniAJEwuBjrpS7HPoEOul/TIfW/7mtPfd4tUf+AhFDAQSAjae+dfOHuJNw4b3W6XnzSkIIOBP4P1VH7iv3fmk27TNz53VA2t2TL8O7rsXjzjwLV6nSeDxN2f72sc1fvaznzX0tRkavYam7b4wiYOAJwGSc0+QhIm+gJ43t2FIfJUNq1evnq9gw30EpIMtH4rEOFDg/GN7O2ve6qPY4xb/eJH+EHxYEgOBTwosWbM3QQ+jF/eLTzrCfeHEfp9cJT+nWMD66XjstRle1jpy5Mg+XgIpiMZO7+orFnEQQMCPAMm5H0eixEPAZ5P2x5o1a3aRNjtwm8EJc1a4eUvXx0OQWsZCwHpov0Qn5b7K3U+MZ0xzX5jEQeAgAkvXbHY33vNCKP/PbrrkWHd03/YHWStvpVJg9JT3vayuqKiog1oBeomVk5PDnXMvkgRBwJ8Aybk/SyJFXEDPm3u7c64D4xPaXC+9tD//zryIy1G9uAmMOKKDa9OsgZdqz1+2wb02+T0vsQiCAAKHFpi2cLW748HRh/5Akr+x585/cfWprpWn/ieSrEbWL2YXYJav2xLYQecfeaecckrgOBZA50XcOfciSRAE/AmQnPuzJFK0BVrrgNbZUxV3L168uESxegWNt3N3mXtj2uKgYVgegY8JXHpy/4/9HOSHu58YpxO4IBFYFgEEqirw4oQF7q/PTKzqx6v8uXoFtRIJem4Op31VRgvhg295Gu3i+uuv3+2jegyn5kORGAj4FeCvtF9PokVUQM+b+2zSPrFt27af97GpNiyVJegUBHwJWC/NQ3q28RJu8vxVbvzs5V5iEQQBBKom8Ndn3nUvjl9QtQ9X41P9OrdwV587tBpL8FHfAr6GojzmmGPyfNRNNy06KQ65gA9MYiDgSYD/kJ4gCRN5AZ9N2m08KS+9tL8UwglY5PcEFQxVwO+z5uNCrSvBEUDg4AK3/320s2buvstXzhrsBnZr7Tss8aooMP29NW5bSfCb3gUFBbmdOlleHbgwnFpgQgIg4FeA5NyvJ9EiKuBzfPNf/OIXm7WZgW9Nbine6cbPWR5RMaoVR4EGdWu7M4Z191L1N/W4xaz313qJRRAEEKieQFl5RaKDuBUaKcFnsc4if371Ka5+YS2fYYlVRYGKPXvc2FlLq/jpz/7YiBF+hsljOLXPdua3CKRagOQ81eKsLx0CzdR0q4enFZd961vf6ukj1quTFrnyij0+QhEDgYTABcf1cbU0vnnQYs+Y3/vkhKBhWB4BBAII2NBq1/3fs25rya4AUT69aPNGdd2Prjjx07/gnZQI+HrufNiwYV7qq5sXHb0EIggCCHgRIDn3wkiQKAt4Ht98cq1atc7ysb0vTVjoIwwxEEgIWEdPF53Q14vG+NnL3KJVm7zEIggCCCQvYL17f+fuF53dSfdZThjU2Y3UxTxK6gXGzVrm5cJ87969vVReyXkTL4EIggACXgRIzr0wEiTiAt46gxs0aNAMbWvLoNu7ZtN2N2OR/+cJg9aL5eMrcNKQLq6Z7oj5KI++Zl9zCgIIREFg6sJV7o5/vO69KjddMsJ1bNnYe1wCfrZA8c5St3StPR0XrHTo0CFYgI+Wrv3RS14hgEC6BUjO070HWH/oAj6fN7/pppuKfVT4JQ2Xw/BUPiSJUSlw6UlHVL4MNF+2dosbpzvnFAQQiI7AC+Pmu/uefddrhewRmF9dc6qrmZfrNS7BDi+wYl3wvgSaNm16+BVV7RN0QFA1Jz6FQEoESM5TwsxK0ijQWM+b+2q7V3HGGWd4ORqOokl7Gr8SmbfqPh2bu74aJslH+c/rM7lw5AOSGAh4FvjL0xOd78ehurZt4q6/6GjPNSXc4QSWr99yuI8c9vf5+fnOR4Kek5PDnfPDavMBBFInQHKeOmvWlAYBPW9+pFZbw9Oqp2v4ksBnMYtWbuJ5Xk87hDB7BS45ub8XihI1t3xu7DwvsQiCAAL+BW5/8DU3e8k6r4Ft+MUR/Tp4jUmwzxbwcefc1tC1a9fPXlEVfqvWhdw5r4ITH0EgVQIk56mSZj1pEdBBx0vP6lb59u3bT9KsS9ANeUedwVAQ8CXQtGGhO1nPm/soz74zz5XsKvURihgIIBCCQKk6hrv1Ly87u5Dms/zkqye5ogYFPkMS6zMEVqijPx+lZ08vpzjcOfexM4iBgCcBknNPkISJpoCatHfzVbObb745eA8uqox17kNBwJfAhcf3dXm5wf+UWx8Ij9ERnK/dQhwEQhNYtWGr+8VDb3iN36heHffTK09xGgadkgIBH83arZqDBw/2UVuScx+KxEDAk0DwMzpPFSEMAiEJBG/ztbdiH15yySUNgtZxjzKg6e+tCRqG5RFICNTMz3UXfM5PlwpjZy11K9YH76SIXYMAAuEL2LPnz6mli88yrHdbd8lJfh6R8VmvTIy1fnOxKy0LPjxer169fPDQrN2HIjEQ8CRAcu4JkjDRFFCzdi/JueIsrF+//lFBt/J9PW++fcfuoGFYHoGEwIkaq9juePkoj73K8Gk+HImBQKoE7nx4jLNx0H2Wa0cOcy2K6vkMSayDCFhLJR8XQzt27HiQ6NV+izvn1SZjAQTCEyA5D8+WyOkXqKNm7W18VKNevXrvK07foLGmLmRs86CGLP+RwClD/Ty1sXTNZjdh7vKPAvMKAQQiL7Bjd5n73l9GuTI9h+6r1KmV77532XG+whHnMwR8XFjx0Vu7qsid88/YT/wKgVQLkJynWpz1pVLAesny8gTdhRdeuEOxAg8GS3Keyt2f2esqrF3TDe/TzstGPjZ6BsOneZEkCAKpFZi/bIO7+4nxXld6bP+O7viBnb3GJNinBVZ4Gk6tSZMmnw5evXe4c149Lz6NQKgCJOeh8hI8nQIaRs1Lk3bbhvPPP99L22E6g0vnNyKz1n1s/w6uZl7g60WuWL0+P//O/MzCYWsQyCKBf78yzY3zPArIzZcd6+wCICU8gZWe+vho1KhRoErqsT2S80CCLIyAXwGSc7+eRIuQgA44ftr8apuGDh3aNuim2fNlm7baDXgKAsEFThrs59rTM2/PddY8loIAAvEUsOeXf/S3V92mbf6OL80b1XVfP39YPEFiUmtfw1bWrh04t6ZZe0y+M1QzOwRIzrNjP2flVup5cy/ZS05OjisqKuoRFHHqglVBQ7A8AgmBAj0XenTf9oE1bPSAx0bPDByHAAggkF6BD7btdD+6/1Wvj6dcfGI/16N90/RuWAav3Udv7cbjITkPnN1n8G5i0xBIuQDJecrJWWEKBbwk50cccUSpEv3A7fum0RlcCnd9Zq9qhJ4JtWHUgpaxM5Y6GzOZggAC8RcYP2e5+9fLU71tSE5ODXfbl09wOQx+7s30wEClnjryq1Ur8I3vwAEO3C5eI4BAMAGS82B+LB1hAV/N2gcPHrzBx2ZOITn3wUgMCZw02Po6DF5eGL8geBAiIIBAZAT+pM7h5i5d760+vTo0cxfpDjrFv4CvXvY93DnP8791REQAgWQFSM6TlWO5qAvU093u5j4qOWDAgOKgcTZsKeEOZVBElk8I2FBHx3ho0r67tNyNnbkUVQQQyCCB8oo97lYNr7bTYz8S1+rZ86YNCzNIKRqbUla+x0tFPCTnO71UhCAIIOBFgOTcCyNBoiaQn5/vpUm7bZeS88DDsU1/b3XUiKhPTAWO6dfe1aoZ/EbHO+rd2ecJfEw5qTYCGSdgnY/+5emJ3rarsE5Nd9Olx3qLR6C9AhFq1s6zTXwpEYiQAMl5hHYGVfEnsGfPHm89tXfu3Lle0JotXv1B0BAsj0BCwFcv7a9NXoQoAghkqMAjr85wC1ds9LZ19ijNiH4dvMUjkHNlZRVeGILeOVcrw21eKkIQBBDwIkBy7oWRIFET0PPm3u6cN2zYsHHQ7Vu+bkvQECyPQOKOud05D1qsl+C31RkcBQEEMlOgYs8e97N/vuFsRAZf5ZYvHudqe2i146s+cY/j68550ORcjiTncf8yUf+MEiA5z6jdycZUCvgaRk1DqDkNpRa4J9Pl62g1VrlvmCcvYM+a2zPnQcu42cucrzF2g9aF5RFAIByB2YvXuifHzPEWvFWT+u4rZw72Fi/bA/lKzj301s4JSrZ/Gdn+SAmQnEdqd1AZjwJe7px37959l486LVu72UcYYmS5gK9e2mnSnuVfJDY/awTufnyc27Rth7ftveyU/q6ofoG3eNkcyFez9oKCwPuDO+fZ/EVk2yMnQHIeuV1ChXwIqFl7ax9xNMZ54GHUNm/f6Yp3lvqoDjGyWMDGNbfxzYMWG77nrelLgoZheQQQiIHA9h273e8ee9tbTa3lztfOGeItXjYH8nXnvLAwWE/6Ol/iznk2fxHZ9sgJkJxHbpdQIR8Catbe0Eec/v37B77lwPPmPvYEMY5Wk/YCD03aJ8xdwcUivk4IZJHASxMWuon6f++rjDyuj2vdtIGvcFkbx9c450GTc+0A7pxn7beQDY+iAMl5FPcKdQoqkKsAdYMGseV79+7t4XlzOoPzsS+yPcbnBnTyQjB6Er20e4EkCAIxEvjlQ286X3dq83Jz3NfPPzJGWx/NqpZpTHofxUOHcNw597EjiIGAJwGSc0+QhImUQH3VJvDY5LZFHTt2tFiBCnfOA/Gx8D6Bob3aBrYo18ngm9MXB45DAAQQiJeAHYcefH6yt0qfdmQ317VtE2/xsjFQnZrBO/c0t4qKYEOyMZRaNn772OYoC5CcR3nvULdkBby1t1Nv7STnye4FlvMm0LZZA9e8UfDGIO+qaeu2kt3e6kUgBBCIj8A/Xpzilq3105Irp0YN980Lhsdn4yNY08I6Nb3Uatu2wK3SuXPuZU8QBAE/AiTnfhyJEiGB/Px8L8+bN23a1OWpBN00hlELKsjyg3u08YJAL+1eGAmCQCwFrFn7Lx56w1vdR/Tr4Pp3beUtXrYFqhuR5Jw759n2zWN7oy5Ach71PUT9qi2gnke93Dnv2tXLaGyOZu3V3oUs8AmBQT2CDz5QsWePe2MaTdo/QcuPCGSVwKR5K92LExZ42+Zvff4ob7GyLVCEknPunGfbl4/tjbQAyXmkdw+VS0YgSsn5xq0lbufusmQ2g2UQ2C8wuHvw5HzqgtVua/Gu/TF5gQAC2SnwpyfGe+scrn/Xlm7EER2yEzLgVkelWXtZWVngdvEBKVgcAQQOECA5PwCDlxkj4KVZe7t27QKD+Hq+L3BFCBBbAXvevJmH580nzV8ZWwMqjgAC/gTWbNruHn9jlreA111wlLNn0CnVE6hbm2fOqyfGpxHIDgGS8+zYz1m1lb7unDdpErwn2hXraS2WVV++EDbW1/Pmk+evCqF2hEQAgTgKPPDcZFeys9RL1bu0KXKnDevmJVY2BalbEJnknDvn2fTFY1sjL0ByHvldRAWTEPBy51w9tSex6o8vsnn7zo+/wU8IVFPAR3K+q7TczVmyrppr5uMIIJCpAluKd7p/jZrqbfOuPvdI7p5XU7PQ053zrVsD3QSwkxSevavmvuPjCIQpQHIepi6x0yKQk5PjpUM4H8n59h0MW5WWL0EGrXRQ9+C9Ic9ctMaVqadmCgIIIFAp8PAr092mbTsqfww0t8dvjh/YKVCMbFs4Cs+cq6XhhmxzZ3sRiLoAyXnU9xD1q7aAr2btjRo1+rDaK//EAsUk558Q4cfqCLRr3tDL8+aTF9CkvTrufBaBbBCwzkrvf3aSt0390mkDvcXKhkB169TysplBxjnXMGpLvVSCIAgg4E2A5NwbJYEiJOClWbuS8z1Bt2m7p2f6gtaD5eMpMNjDEGq25TxvHs/9T60RCFvgyTGz3aoNgZpF769i384tGPd8v8bhX/gaSm379u2HX9mhP7H00L/iNwggkA4BkvN0qLPOsAW8NGuvX79+4Hpy5zwwYVYHGNS9TeDt53nzwIQEQCBjBcor9rh7n5rgbfu+dNoAb7EyPZCPZu0aBs1VVCT/yJJaGi7NdGe2D4G4CZCcx22PUd+qCHhJzgsKCqqyrs/8DM+cfyYPvzyMgI875zxvfhhkfo1AlguMmrjQLVju59Hj4/p3cu1beGm8lvF7xced8507g3U6S7P2jP+asYExFCA5j+FOo8qfLaArwV7ODGrXrh34/0cxzdo/e2fx20MK2PPmTRsWHvL3Vf0Fz5tXVYrPIZCdAh+qd5W7nxjvZeNtuPPLT+XueVUw6xUEf+a8uLi4Kqs65GeUnC875C/5BQIIpEUgcPKRllqzUgQ+WyDwnfP8/HyXm5ur04xgheQ8mF82Lz2oe2svm8/z5l4YCYJARguMm7XMTVu42ss2nnVUT9e4fh0vsTI5SPNGdQNvXtDkvLy8fGngShAAAQS8CpCce+UkWBQEdCU4cHLeoEHgEAkKmrVH4RsRzzr0aN80cMV53jwwIQEQyBqB+59718u21szPdV848QgvsTI1SEGtfNegbu3AmxdwjHPr9HZF4EoQAAEEvAqQnHvlJFhEBAK3FfPRGVzFnj3OhqqhIJCMQPd2wZNznjdPRp5lEMhOgQlzVriFKzZ62fiLju/ratfM8xIrE4O0bFLPy2atXp18awc9AmhjbHKS4mVPEAQBfwIk5/4siRQdgfKgVfFx57x4R2nQarB8lgrYc5td2hQF3nqeNw9MSAAEskrgX6Ometleuyt8zjE9vcTKxCCtioKPBmMuCxcuTJqH582TpmNBBEIVIDkPlZfgaRKIRnK+c3eaNp/Vxl2gTdMGzpo9Bi2+niENWg+WRwCBeAi88u57bt3mYJ2MVW7phcf3q3zJ/BMCvu6cL1269BORq/VjoIWrtSY+jAACVRYgOa8yFR+MkUAkkvPt3DmP0VcmWlX10aTdtshXE9Vo6VAbBBAIS8DGPX/01Rlewndu3dj16djcS6xMC9KyiZ8758uWJd/ZOmOcZ9q3iu3JFAGS80zZk2zHgQLRSM65c37gPuF1NQS6tW1SjU8f/KOrN25zdEh4cBveRQCBQws8MWa2K/E0DOg5I3odekVZ/BtfzdqD3DlnjPMs/gKy6ZEWIDmP9O6hckkKBE7OfXQIV7yDZu1J7r+sX8xHcr5guZ+OnbJ+ZwCAQJYJWGJuCbqPcurQrs56b6d8XMBXs/Ygd85Jzj++T/gJgagIkJxHZU9QD28CaqoVODn30SHcdk93HrzBECg2Aj6atS9csSE220tFEUAgWgLWtN2auAct9QpqueMHdg4aJuOW93Hn3MY437lzZ9I2GuM8+TbxSa+VBRFA4HACJOeHE+L3cRQInJwXFhYG3u7y8orAMQiQfQL1C2u55o3rBt5wnjcPTEgABLJWwDqFe3li8j2BHwhHr+0HajhXS0PMNa5f5+NvJvHTypUrk1hq/yJ25WX5/p94gQACkREgOY/MrqAiHgUCJ+e6ohy4Ork5/PcKjJiFAXw0aTc2mrVn4ZeHTUbAo8Cjr/npGO7IXm29XHD0uGlpDdWyyM8Y54sXL056O9TCcI0WZrzXpAVZEIHwBMgewrMlcvoEAmfWpaXBj1m5ufz3St9XIL5r7ta2aeDKW0dw1iEcBQEEEEhWYO7S9W7Rqk3JLr5/uZwaNdxZRzHmeSVIK089tc+fP78yZLXnPG9ebTIWQCBlAmQPKaNmRSkUiEZyzp3zFO7yzFlVt3bBe2qnSXvmfB/YEgTSKfDs2HleVk/T9o8Yfd05D9IZnGqz6KMa8QoBBKIkQHIepb1BXXwJBE7OfTRrz8ut4Wt7iJNFAj6atZOcZ9EXhk1FIESBF8fP99IxXNtmDdwRXVqGWNP4hPZ15zzIMGpq1j4zPmLUFIHsEiA5z679nS1bG4nknGfOs+Xr5m877TvTuVXjwAEXLKen9sCIBEAAAffBtp3u7RlLvUh8bkAnL3HiHsTXnfMgyXlOTo6fDgXivjOoPwIRFCA5j+BOoUrBBPQsVeDkvKysLFgltDTPnAcmzLoAnVo3dvl5wccEXsgY51n33WGDEQhL4Nmxc72EPqZfBy9x4h7E153zIM3a1TqQO+dx/yJR/4wVIDnP2F2b1RsWODn30aw9N4dm7Vn9LUxi49s3b5jEUh9fxMYmfn/1Bx9/k58QQACBJAXGzlzmNm3bkeTSHy3WWRcffSWmH0WN36s2TRsErvSOHTucjXOeTFGT9rVajuZVyeCxDAIpECA5TwEyq0i5QDSSc3prT/mOj/sKWzetH3gTlq7Z7MrKKwLHIQACCCBgAhV79rgXxiXfM/iBitl+97yofoGXMc5Xr159IGu1Xqt1IU3aqyXGhxFIrUBealfH2hBIiUDg5NxHs/Y8emtPyc7OpJW09nBHZYmScwoCCGS+gCV6rXRBr7WG5rI70o31c838XFdTj8bk5eW4/Fy91s/5ulCcn5jv/dladdkFvO07S13xDk07d2uy1/vm9rryPb3eVrzLvTRhofvSaQMDo444ooP77+vZ26LaR4efthPef//9pPcFncElTceCCKREgOQ8JcysJMUCgZNzL83a6a09xbs9/qvzced85Yat8YdgCxBAICHQtGGh69mhmbPezq059IHJeO2aqTuF27PnQy97ZEiPNs7qvas08GHaS31SHaRr2+BDZVqdA45xnr1XR1K9w1kfAkkIpO4vexKVYxEEkhQIfNT3kpxz5zzJ3Ze9i/l4FnHVhm3ZC8iWIxBzgYZ167ghPVtrausskW3fIng/FD5Icjz1oWJ38gd1b+3embXMR7ViF8PXnfM5c+Ykve0VFRU0a09ajwURCF+A5Dx8Y9aQeoHAybmXZu08c576PR/jNebUqOF8DLGzKgZ3zps3qus6tmrkmjWs6+oV1nL1C2u7BprXK6it1/q5YO979losbseuMrdFTWu3bN+5d168023erp81t/c+0LR87RYvnVbF+CtE1WMoYMnqkb3auqGWjPds47q2aZL4zsdwU6pcZRvvnOS8ylwH/eCMGUnn16UK6KcDgYPWjDcRQCCoAMl5UEGWj6LArqCV8nLnnOQ86G7IquWbNa7r8jx8Z1ZG6M55nVr5iXHbrSln1zZFbu+8SSIBr87OtbuJVenlee2m7W7i3BVugqZ3NW1W0k5BIIoCXVoXuYtP6udOPbKbK6xdM4pVDK1OXfS3IBuLDZPZoWWjwJuuZ8bd7Nmzk4qjZS0xDz5WbFJrZyEEEKiKAMl5VZT4TNwE1gWtsI/knA7hgu6F7Fq+jYee2u25UEtQ01Hszr89G2t3AW1uyXgbPSdr76eqtCiq584d0Ssx6fzVLVixwU2cs0IJ+3I3deFqV1pGL/ap2hes59MC9n/huAEd3cUnHpG4S/7pT2THO/a3IRtLRyXmPi7Arlixwu3evTspQnpqT4qNhRBIqQDJeUq5WVkqBHRleLUOQIFW5aNZey4dwgXaB9m2sI+e2td+sD0x7FGq7KyzquG927nhfdq5YZo3qFs7Vas+7HrsT0CPdk0T05dPH5hIzK0p7TNj57q3ZyxxlrxTEEiFQD09pnH+sb3dRSf0rVILkFTUKZ3raNWkgStQq5odu7PrBq6v580nT56c9O6jp/ak6VgQgZQJkJynjJoVpUpAifmqoOvycec8lw7hgu6GrFrex53zsDuDsyGaBnZvpWS8fSIpj1PzVHu29/iBnRLTMj2f/u9XprnnNHbz7iztNTqr/nOlaWPt/8sVZwxyl586wBXWya6m659FbhfOOrVq7GYvCdzI7bNWE7nf+UrOp06dmvS25eTkzNyjcespCCAQXQGS8+juG2qWpICS89X2TFaQ4iU59/D8cJBtYNl4CdjdpKAljGHU7CKT3Rk/Y3h3d1z/js6eI497sR6wv/+l4921I4e7f46a6h55Zbor1bjPFAR8CfTv2sr96IoTvDxj7KtOUYpTkIUXK3wNozZzZvIjoencJume5KL0/aEuCGSyAMl5Ju/dLN02HXxW5+bmBtp6H83a62bhyUcg9Cxf2Med89Ub/Q2j1qdj80RCfsrQbq5x/ToZuXesGf63Pn+UO0/Pqf/yoTcTncll5IayUSkTsM7drtN36sLj+2Z8r+tBULOx/wdfd84D9NS+Xvssu5orBPmSsiwCaRIgOU8TPKsNVSBws/bi4uLAFWyg4aGsWSN35AJTZkUA6609aAnaU7s9936m7pCfPqx7ZMZXDmpSleXbNW/o/vzd89xLExa63z32NkOyVQWNz3xKYES/DokWGc09/F/+VPAMe6Msy1qqNGlQ6BrVC36Rs6SkxK1alfQpDnfNM+z/EZuTmQIk55m5X7N9q7YKYIemgmQh1q5dm+yiH1uuiTrM8nk382PB+SGjBOxiTtCyar199atXcnJquOMHdHKXnHyEG9itdfUWzrBPnz6smzq2a+tuu+8VN37O8gzbOjYnLAHrgfvGLxyjodGOCGsVGRd3a0lyvY3HFaJbuyZeqp7sEGq2cj3yl3x7eC+1JwgCCFRFgOS8Kkp8JnYC+3ps75JsxTdv3uwqKipc0Obx1ps1yXmyeyF7lrPOymrXDP7neNM2uyZVtWKPXZynHqQvPrEfPUgfQGZ3t+6+4Rz3h/+94x56edoBv+ElAp8WqKX/t7+99gx3VN/2n/4l7xxSYJ1Glsim4mv4uHfffTdpNnpqT5qOBRFIqUDws8GUVpeVIVA1gX09tiednNtatm3b5ho1alS1FR7iU00aJH3z/hAReTsTBXzcNTeXbVW4G2Vjj1+qO3zn6DlrG86I8mkBa01wg+6E2jOiP/3n64yP/mki3pGA9cD+x+vPdgO6tcKjmgK5+j+WTQOpdWvbtJpCB/94gOfNnXpqn2E3HSgIIBBtAZLzaO8fape8wOrkF9275KZNmwIn500bBX+OOOh2sHz0BXwk5+UVe1zJrtJDbuyQHm3cpaf0dyOO6OBybCwjymEFzjyqh2ur59G/9ftnq3Th47AB+UDGCDSsW8f96cZzXM8OzTJmm1K5IblZNpqJr87gAvTUXqqObuelch+zLgQQSE6A5Dw5N5aKuICP4dTsufMuXQLdfHfWrJ2CwOEE6nt43nxrya6DrmZor7buG+cPc/06tzjo73nzswXM7Z4bz3XX/Popt2N3Nt3r+2yXbP6t/V23DgRtrG5KcgJ5GqIxW4p1DNuhZcPAm2vjkwd45nyyKnDoq7eBa0cABBDwJUBy7kuSOJES0EFslRL0QHVasWJFoOVtYZq1BybMigA2pFfQsu0Tybk1tbWkfFD37O7kLairLW/Dyv3uujN1B/05Rl/wARrjGPUKapGYe9h/ubnBjs8eqpCyED3aN3W5Hi5GLF++3JWWJpdf63nzsSnbYFaEAAKBBEjOA/GxcFQFlJgH7mp50aJFgTevaUOatQdGzIIADQprBd7KrcV775z31Z3er583LNHreOCgBNgvYC0QfnH1qe7mP7/k9uz5cP/7vMgeAbve+0t9B6J2x9w6glyzcZs6H93uNmwpcbvLyhP9JHw0r9DP5Xp/73zPhx+6enVquboFNZ1dbKir1/X0eu/cft73vt6rX6AhQdVhpe/iI1n1Xaew4g3o6qdPgilTpiRdRZ0TkZwnrceCCKRWgOQ8td6sLUUC6vRkftCe1hcvXhy4tk0a0iFcYMQsCODjmfMyPXP+h2+f7WysZUo4AicM6uxuvvQ496uH3wxnBUSNtMBlpwxIW6/sFWrSPGfJejf9vdVu1QZLxPcm46s3bXO7S8tDdStSx6atm9R3rZvW18gODdzXzz8ycL8V2fTMeX9PHQZOnTo12f38oc6J3kl2YZZDAIHUCpCcp9abtaVO4D2tyrolTfqS/5o1awLXlmfOAxNmRYD6Hpq1W/N1OnoL/+ty0Ql9EwnSqIkLw18Za4iMQI92Td11FwxPWX10c9stWrnRTZq/0k2cu8JNXbD6Mzt8DLNim7bucDbNfH+tevyu4a4dOSzw6tTMOnCMOASw1hb9u7T0UtVke2qXtXUE94GXShAEAQRCFyA5D52YFaRJoFQHpPfVlKtbsutfvTpwh+/O7ohas8HtO3YnWw2WywIBH3fO45iYr9tcrARkk9u8fWfi/4gNBWf/V4o1bd+59/WOXWVqflvLNdQFDOshu1G9vXP7uZXu5vXq2MzL85zV+Zrdevnn3PRFa9zaTdk1VnN1jDLps3U05OAvrjnV5atjr7DLyvVb3WOjZ7pRExe4D7btDHt11Y5fWLtmtZc52AI7s6RzxQ4tGjsffYqY4cSJEw9Gedj3aNJ+WCI+gECkBEjOI7U7qIxPAR2Q5ite0sn5ypUrvVSnfYtGbvbitV5iESQzBXydvEVVp6y8wi1Zs9ktWL7BLVyxcf9U+Zx8kHpbsjCoR2s3TM+EH9m7revYMvwetO2C20+vPNldrR7c7fldSmYLfPeSEa6D/o6HVewrNGHOcvfYazPc2FlLXZS/Uja2u49iF92yoQzo5ueu+ZIlS9zmzZuTJRub7IIshwACqRcgOU+9OWtMkYA15VKCfk6yq9u2bZvbtWuXq107WE/aHVo0JDlPdidkyXL1PXQIFyUquys2ef4qN14Jx5QFq9yS1R84G4c9jGJju781fUlisvjNGtV1RypRP+voHs7Gdg+r2GMEl586wP1zVNLPgf5/9s4EPqrq+uOHhIQtEJaw7zvIDiKbuKEiiopL1WqtWttqW2tXa//Wva3VutRWpWpVQERFQEXZQfZV9jWsAoEQIBCSkD0h/s9JJc2emXvPm3lv5nc/n/lk5r13zj33eyczc9499xynTINeRQL9u7akmy7ppaixtKrFGw/Q6zPW0KHjxo5XaYUOv6pXO8q6hzy+WefU54G1ccoK+islg1u8eLGxZbzfHM65MT0IgkDgCcA5Dzxz9BggAuyYyz4rqyb7zjt27GilQ1bO0UCgKgINFeqcV6Xf6XOy0rf3SDKt2ZFQ9JCQb1ktD0Y7yaHyX66KL3r04hJoP75+MF3a3+5/uLJxPDBuCIcf7yUJz0cLTQK/+t4IRwZ2Ki2T/jZ5GS3ZdMAR/U4prasQ1p7FN9TCpQ3gmzsabeVKM/+aFylkf95BDRugAwRAIDAE4JwHhjN6CQKBiIiIeK53btXzvn37rJ3zDi3hnFtNQhgIaySECzQmCeeWJFVz1+4pWrWWck5uazsPnqDf/GtWUYbtR++6lNo2i1U1sXZ0TRIH/dkJX6nqhTJ3EJDoiH5KybxKjujTZTvpn9NWeTIXSYyCc54ZJiHtcbH1OMO9zmeOqXOO/eYl//PwHAS8QQDOuTfmCVYaEMjPz7cup7Z582a6+uqrDXr/n0h7DmtHA4GqCGgkhKtKv+a5fbxnfM6aPZ5aMV69/TB974kp9MQ9V9B1w3to4qAbRvSk9+du8kxYsurgQ1zZj8ZeqDpCuaH1/OSlNH3pDmO9NSMjqFvbOGreuD7XKufa5Jz/QHIgSJ1yKaeYxLXOT6ScpeMpGZTEZdYkyaJmq6sQ1p6VHR4r51r7zVNSUkj2nJs0Xjk3W3I36QwyIAACKgTgnKtghBKXEkiXkC6+c9zK1L6vv/7aVLRYrl2zhkUlrpA4qhgJnpQgEB0VSbIC6+YmWcnncvj2XHbK9yeedrOpldqWl3+OnnhnYVF2+F9+b7ha2TkpLfVzLi31h/FzK+0bJ7xHoGeHZjSsVzs1w6VO+ZP8/pu71r8SfE0a1KWB3VtRn04tqE/nFtSzfTOSzwxfmmw32bDnKM3gmwFLNn2jstWkMdtj28Jl5Vxrv/ny5cuNkUdGRq60jSA07hyCIAACRgTc/YvQaEgQAoH/Efhu37mxc757tyR8t2vyQ6pFk/p07FS6nSJIhyQBt66ayw/7tbsS6KOFW2mVyzNI+/PGkARuZzKy6an7riSpQazRRg3qQuLMxR86qaEOOlxA4EfX6a2aSwK0R/nmzTJOXOhrG9yzDd12RV+6bEBH41KB8v6WpIjykHKFL3+0gubwNhSbJuULbduZs+7bAmM7porkByglg7NwztM5gnBbRbbhGAiAgHsJwDl379zAMh0CkhRulKmqAwcOcFmbb/lHvN2veAlth3NuOguhLec25zwnr4Bmrd5d5JQfTEoJSfhfrIynBpyE77e3X6wyPvl4EGfukTfmqOiDkuASaM0O6OUDO6kZ8Y+pK31yzCP4jXTLZb3p+1f2I+1cJY3q16En7xtFezhx44FE8//rVnH1rbkc49D7UG9S4lG2H2g00/3m3PcafgQnM6fGwKEDBMKUAJzzMJ34cBk2O9ZSTs14uAUFBZSamkqNGtkldZMauZLJGg0EyhIQJ9ENTULXpy7eRp8t36m+T9V0fOJQSNRJXGxdyuWw9LNZuZTBj7NZeZSRnWtVjumD+ZupFeu+gx0hjSYrnBKC7MbEeBrjCycdUoZPHGWNtmLrIZr6VfWLl7Extem5n46mYb31QunL2i9RXH978Br6wTNTSVbzTVpLhZXzcLhR3Ze3IMiWF9uWm5tLW7ZsMVKD/eZG2CAEAkEnAOc86FMAA5wkIBnbZeXbpiUkJFg75yinZjMDoS1bu1ZwP4alvvLbM7+mBev3UWGh3f+KzUxJoqvLBnQqStjWkSsctOCEV9XtrZUbCtsOHOdHEm3df5z2JCT75bC/+skqkozcXRVWuCIjIopqq0/i5HBo3iZwSb+OKgM4nZZFT7+3qFpdF/CWiBd/cS215JtFTrcurZsUZRA3jYpp1cQ+rD0cnPP+3Yx305V6C0jeG9M94/z7B/vNS9HECxDwBoHg/ir0BiNY6WECvPJtnbE9Pj6e+vWzW13rgIztHn4XOWt6pNIKnb9WJian0dtfrKfZa3YH1SkXh0RCeW8ceUHRyrM/45BVdXlcfVHXIjFJ+rbj4HGauSKe5nMCu+pWB+X8Y2/PpylP3lHtjQBf7Bo3shfBOfeFlHuvadygDvXgpGsa7Y1P1xTt9a5Kl6yuvvabG0iiRALRpL66qWMuiSuFj207xjfVQr31V6pvvnTpUlNU+fz7xz6jrWnvkAMBEDAmAOfcGB0EPUIgie1M44dxsVG5c33HHXdYDbc9ap1b8Qtl4RoKoY/+8JHV5ndmrS9yYCWDdDBbs0Yx9OFTd5CE9Go0WWkf2K110eM3t4/gEP1dNG3JdpIxV9Zk/+3k+Zvo/rGDK7vE5+OSW2IAr5ht3nvMZxlc6C4Cw3u3V0kUePJMBt/4qj752pAL2gbMMRfS6+MTjYG3VFg1l85DfeVcomgku75GW7VqlakaCeEJj8x7poQgBwIuJRDhUrtgFghoEpCkcMZt69atxrLnBZs1jKE6taLOv8RfECgmoLW3tVhhJU/SMnLo+Q+W0Y3/N5k+XbaTgu2YS8DAs/dfqeaYlx12w5g6dN+1g2jW3+8pSvwmP5graxPncAZ3zmat0a7nuudo3iUwok97FeMnc06DfB/2dV83rIdKf74qWbvTPPdJ66b2Ie1Sdz0zxOuc92zfVKU8pmzJW7NGcrr53zjXzkr/pSABAiDgBgKV/1pxg3WwAQR0COyyUbN3r391aSvqSxyRds0bVnQKx8KcgE3CQl/QScoFSfI27rHJ9AknfPPFYfBFr+01P7h6AF3Eq4ZON7n58YPRA+itP4yrNGw+MyePQ/x1IkBH9uugsvLqNBfoL09A3itDFRKyyY0wuQHmS5NQ8UC1LfuSiraxmPankqn9dOiXFJU8FhpNttRlZmYaqUIyOCNsEAIBVxCAc+6KaYARThLgL6nNNvqTkpJIsrbbtk6t7DK+2/YPeXcSiHQwrF0SpN333DT688TFJA6DW5rsr33olmEBNUfC3T98+g7q16Vlhf3OWLqDUtLtV88lY3uXNjollCo0FAcdI9CtXRxplDacy7XEs3PzfbLzzZnrqNAyaakvHcmKteRXsEn6qJGpPelU6DvnWhn3lyxZ4svUVnRN4blz51ZUdALHQAAE3E8Azrn75wgWWhLgjKWy98qqnThxwkpehLu1a2qtAwpCj0C9OtHqg5Ja5S99tJzuenZqUTZz9Q4sFcqNgqwc35wXy65KiTdtWI+e/tGVpY6df1FwrtBqVfG8Hvkr+4jRvEdAsqZrtFXbD/usZv/R0zSPkxc63Z6Z8FWVuRd86V8nU3vl+R98scHt18j2Nck7odEs6ptLGNBpDRugAwRAIPAE4JwHnjl6DDABXvWWTeNWma/27dtnbXU3hXJN1kZAgesIyEqrZpPV8juf+Zg+XLjVapVM06ayumSl8Ov4o2UPB+S1JG2rzAn7YqXVDphi+4fCOS9m4aUnbRW2HknFgA17/Eu6Nv7TtZScaha+7Atf+SxYsumAL5dWeY1KWHuIr5wP7tmGompGVsnR15OmzjlHC87ztQ9cBwIg4D4CcM7dNyewSJ9AJn9ZWS1NSMZ22wbn3JZgaMonnEhVGZhExk5ZsIV++JdpdCjpjIpOJ5Ws25XgpPoqdY8Z2r3C85K5fcdB+yiZgbznVOsHeoWG4qAjBNo1My7qUWzPRnbMczlyxZ8m2cvv/Sv/3x7X/b+VEPZ/frKqKIrGH3squ7ZVnH1CuFDP1K6VUFC208nDpEVGRsI5NwEHGRBwCQE45y6ZCJjhLAFOumW179xi71fxwGSFtEms7ippsXI88SyB9Kxca9slyduv//UlvfzxCtckfKtuUOt2HqnuEsfOjx7SlSrLkr/wa/soGUny1a+LTiklxyBAcTkCbZvZJ+0U59ykJXG5vx89N0Pl5pD0L1tHfvHKTJo0z3pXV9Fw6nK4tkYt9lCvcT5cKdv/V199ZfI2EpnT+fn5602FIQcCIBB8AnDOgz8HsCAABHjl3OoXypYtW1SsxOq5CsaQUuJr4qiqBi3JnlZsPVTVJa47l8irhcu3HAyKXYnJ6ZUm4Vq7S+emwYCuOvtOgwIoTDtto7BybrP6nZqRTQ/8/bOi6go2VRVka4vkm1in9F6Wt0M73g6i0UJ55Vy2zLRWiC4QzvPnzzfFvZAFrbbxmXYMORAAAR0CcM51OEKLywlwUjirlfPk5GTKzrbP5NwdSeFc/k4JvHnZConR6tSOCrzhCj0+9e4iOnEmQ0GTfypkj29lbd+RU3Q6Lauy0z4f79FeJ7mYzx3iQisCcbH1VGpTJxy326YiN+ukusL1j75PUitdyvz52o6eTKO/vr+E7uGtLdpOsEYp0LMcJRTKNc61Qtp5McHGOZ/r6/sF14EACLiTAJxzd84LrFImwEnhrJxzMefwYd8z8FZmPlbOKyMTvsc1Vs4DWStZc6bSMnPosbfsyjv5a896TkS3fnfVyejW7kzwV22563u2R3WGclBcfKBNM/v91JL3IeGknXN+HtFJvmn1j6kr6drfT6Q3Pl1DW/cnVejYykq9lAH83euzadxjk4ue5/E2F+3WXiFZnoTuh3Ib3ru9yvC2bt1KKSkpJrq+5RJqC0wEIQMCIOAeAjXdYwosAQFHCaTw3ehDvPe8g2kvmzdvph49epiKF8nBObfCF5LCWT7WQ65q8LJ/uhbvc/Y3EVVVOgN1bvPeY/SfL7+mB24cEpAuxdGprsm+4euG2/2vt2hSn2Jjaruqvnx14w7n8xr7qY+nnCXJ1q7ZZLX53Vkbih6it3mjGIqKiizKLSE39mRLSyCaxsr5YcuogkCM07QP+fwdxIkgNdqsWbOM1PBvHNl/d9xIGEIgAAKuIYCVc9dMBQxxmoAbksJ1aNGIovmHFRoInCegsXIuuiRhk1fbf75cT4s27HfUfFnVlNrv2w5U/9s1/nCyii1YPVfBGBAlGtn1k06nO26rbAOR8PUTKRkBc8xlULKf2rYlnNDNRm9rj6a8OObioGu0efOMk60bC2rYDR0gAAI6BOCc63CEFg8QsE0Kt27dOutRRkTUoC6tm1jrgYLQIZDDZZek7rdtq+Nh51xKPv1h/Fx6fcYaFRZlWUpyrcfenl9U+73suYpeH0g8TRqhwdh3XhFddx7TcM5z83RXzd1ESqMGfCivnGuFtJ89e5ZMf2twbh045276p4EtIGBIAM65ITiIeY+A7cr57t27qbDQPgkqksJ5773jtMXioNs2L6+cnx/7e7M30MOvfqm6IijbBkTn/HV7z3dT7d+Cc4V04Ojpaq+r7gKsnFdHyD3no2vaRzTZZFh3D4nylsj2jNh6tcuf8PPI4RM6+/H97DYgl2slg5Ms7ZIQzqClc26d1QZyEAEBEHAZATjnLpsQmOMcAU6UYlVOjeVJsrbbNuw7tyUYevIaGdtre3jlvOSMrt5+uKgMlGRNt21rOLHbj56bblRSKv7wSdvuCSvn1ggDpiCqpv3PoXy+qROKTWO/uXCxzWTvVrZSPk0j7F/GN3eucbJ1KYxuf5fXrZBhFwiEEQGdDTJhBAxD9TSBJL4jfYJX0JubjmLXrl3UvLmxeFG3cM5N6YeunMa+87oeLadW0awmJqfRD/78CV03rDvdM2aQXz98JURe9q9PnLORdnO9Z9Omse+8TdNYqlcnusIs26Z2Qc4ZAjUjsXJeGVmNTO1SmUEeodiG99HJ0i5sLOqbG3v1oTgnGBMIeJkAnHMvzx5s95sAO+ayej7Gb8HvBFavXk2XX365qXiRnDjnnFybQ9es1EA4hAhoZGyvo5SMyC1YJUT48xW76IuV8XTpgI40sl9HGtyjNbVmh7dskz37kiRr7c4j9MGCzUXPy17j7+v4Q/Yr5/J/3r1tU9q0N9Hf7nF9gAlorJzLjaFQbBor56G6ai7zrRXSHh8fT8ePV5+wsqL3GEf2za/oOI6BAAh4jwCcc+/NGSy2IMAr55vZQTd2zpcuXUp/+tOfLCygopW0Vk0aUOIp5zP7WhkK4YARwMp55ajF8V6y6Zuih1wlJcqKyklxGHIUr3bKjQ0Jgde4wVHSiv2851z2nteMtAt37sH1zuGclyTrzucaJdBiOEoiFJtGyHao7jeXRIKDe7ZRmXaLEmq72IAEFSOgBARAIOgE4JwHfQpgQCAJfLdybtzl1q1bjWVLCnZr1xTOeUkgYf5cw7H0crZ2f6b/+OmzJA+nm2Rr/+ZYCtluQ0FSOKdnSkd/OtcTt22SOC0UGzK1Vz6rA7q1Iq3PXtP95pKlXSNZbeWjxBkQAIFAErBbEgikpegLBBQIcOjXZhs1KSkplJWVZaOiSNb2B7+1AVDgKgI5vPpr27R+INraEUryGqHtSArnjXdEeob9fuhQdc5VwtpDtMb58N7tVN7g2dnZtGrVKlNdKKFmSg5yIOBCAnDOXTgpMMlRAt+wdqt6Lt98IyrsWvd2cXYKIB1SBLJy4Jy7cUI1ksJ1bNmIaoVYPgA3zpWtTRrJyjTKjdmOQ1s+LrYeaZRpDNUa51rJ4BYtWkRSEcagZXEJteUGchABARBwKQE45y6dGJjlKAGr1fONGzdaG4da59YIQ0pBNuqcu3I+NcqpRUTUoK5tcDPOlRNcwqj0TIWwdq4FLkkAQ6m1iqtvPRxJfpoQgjXOJTlll9ZNrPmIAtOQdhZdyg/7Ny8rQQMBEHAHATjn7pgHWBFAArzv3Mo5X7JkibW1LTmpVeMGdaz1QEFoENBICIewdv33wl5ONKeRgbtTq0b6xkGjKgGNlXO5EdOAHfRQao0b1LUezsnUDMpRuAFpbYiygisv7Kym0dQ55yS3CGlXmwUoAgF3EIBz7o55gBUBJMBfZl/bdLdhwwYb8WLZXh3t6qUXK8ITzxNQCWsPoTrnbpnQXHYovklKsTanfQs459YQHVagsXIuJmqtpDo8XJ/VN6pvfxP5REqGz/156cIrL+yiYu6BAwfoyJEjRro4ERzqmxuRgxAIuJcAnHP3zg0sc4gA7+taY6N67969xHu8bFQUyfbu1MJaBxSEBgGVhHDRUaEBw2Wj2HM42dqi9s0bWuuAAmcJnCsspDSFpHChluxTwzk/czbb2ckLgnaJftO6wW5RQk0S4OwPwvDRJQiAgIME4Jw7CBeqXUsggVfPj5laJyVLTO9yl+yzN1bOS+II6+capdTqYuXckffQwaQz1nrbtYBzbg0xAAo0anGHWj4ROOcVv/FGKa2ai/Z588wi07mE2syKrcNREAABLxOAc+7l2YPtxgR437nV6vn69euN+z4veEHHZuef4m+YE9DZc14zzCk6M/zDx+2d87acOCrUEoU5Qzu4Wvck2EdJhNzKuUJulJR0+/KjwX1nlO9dK6Q9JyeHli1bVr4D345M9+0yXAUCIOAlAnDOvTRbsFWNAK+cWznnc+bMsbZFyu60bRZrrQcKvE9AZeW8VrT3QbhwBBoloKSUWvPG9lmvXYgnpEySBIC2rVPrxhQZETo/rbByXv4d0bxRDPVR2pb2xRdfUF5eXvlOqjnCv2ESeXud1e+YarrAaRAAgSARCJ1vkCABRLfeJMDhYFZfahZ3uksB690JSeFKAQnTFxor57VrYeXcibdPwslUKpRaUJYN+84tAQZAfE+CvXMeXTOSpLZ9qDQ45+VnchRnadeKhJk+3Wzxm3/DzGDL7D+Yyg8PR0AABIJMAM55kCcA3QeHAN9xlmLl/t+u/s5c2XMu4Wi2rVdHJIWzZRgK8hrOed1aSAjnxHshL/8caWSbbo99505Mj6rO/Ue5dJ7CjZhQCm2Hc17+LaYV0p6bm0sWUXhmXn354eAICICAywjAOXfZhMCcgBHI5Z6s6p3v27fP2lisnFsjDAkF2bn22f9R59y5t4JGaHs7ZGx3boKUNEst7oQTqdbaurWLs9bhFgUqznl66GRrj4utR327tFSZHnHMTW7yc0j7cV5gWKViBJSAAAi4jgCcc9dNCQwKFAHbpHCrVtl/N/Zo15RqRuLfMFBz7tZ+snKMgziKh4Rs7cUo1J8knLBPCgfnXH1aHFG4VyG0vVvbpo7YFmil9epEk4Tp27ZQKqV2xaDOFKEU0z5t2jQjtPzb5VMWLDQShhAIgIDrCcArcP0UwUCnCNgmhTOtTVpyPNFRkdSlTZOSh/A8DAlorJxLEqoohR/SYYi/2iEfOm6/mtq+RejsQ64WmIcv0EgKFyph7Rqr5vJWCCV8YXNlAABAAElEQVTnXCukPT8/n0x/Q7BzjpB2D3/GwHQQqI4AnPPqCOF8yBI4d+6cVVK4NWusxIu5ot55MYqwfZKbbx/WLvDkZg+aPgGNcmqt4uojSkZ/atQ1apRTa8zlxyT82etNwznP5KigvIJzXkdRZL/M68DurVTGIrXNs7KMSsyd5JD25SpGQAkIgIArCcA5d+W0wKgAETgi5UhM+0pLS6PUVPsVtd5KJVlMxwG54BPQCpP8thDJe52YzQSFlXOJbGjdtIET5kGnIgGNlXMxJxT2nTeuX8ea7JkQ2m9+xcDgh7TzhHzOj9C422H97oICEAhNAnDOQ3NeMSofCdjuO9+1a5ePPVV+Wa+OKKdWOZ3wOBMRUUNloOcUMk2rGBJiSpJOn1VZ/cO+c/e/MZJTM1XCsHu2b+b+wVZjocbKOULay0PmlW+S+uYmjX+zmG1UN+kMMiAAAkEhAOc8KNjRqVsI2O47X7JkifVQOrZqRPVqR1vrgQLvEtBaOS/EyrkjbwIpr3X0ZJq17pZN6lvrgALnCWisnl/ct73zhjrcA5zz/wFuGFOHLuzR5n8HLJ4tWrSIMjIyTDScZsd+qYkgZEAABLxDAM65d+YKljpAICIiwmrjuEWN0uLRiGPWs0NoZPctHhSe+EWAV0P8ur6yi+GcV0bG/rhGia1Q2IdsT9L9GjT2nffp3II0nNtg0mqoEdZ+NjTKqF0+sBNpRTh98sknptMqIe06CUpMLYAcCICA4wTgnDuOGB24mQDfhd7E9knNc6O2adMm4tV3I9mSQghtL0kj/J5HKoW1F36L6jpOvXtOnsm0Vt20ofeThFlD8IACjZVzuel6cd8OHhht5SbWjq5Z+Ukfz6Rl5vh4pbsv08rSzoloaebMmUaDRZZ2I2wQAgHPEYBz7rkpg8HKBMQx32yqU8qhHD9+3FS8WA5J4YpRhOWTGgrOudwjUrhPFJb8fRm07EW2bXFwzm0RBkR+58ETKv1c0r+jip5gKSk4Z3+zTxIher01qFeLBvfUCWlfunQpSTJZg3aGFxO+MpCDCAiAgMcIeP9T02PAYa77CNgmhduyZYv1oFBOzRqhpxVEKoS1a0RweBqiw8YnpxrtES1lFVbOS+Fw7YvDnJ1fkgDatmG921FUTe+WN9Qogebl8Z+f/8v6d1Irg2gR0i4Z5PLP24S/IAACoUsAznnozi1G5iMB26RwUq/UtjVvHENNYuvaqoG8RwlorJyfK7Rf5fIovoCYrbFyDuc8IFOl0smKrQet9dStFcVJxFpb6wmWgvx8+4pdUTW9/zNz9JBuKlNQyJ/Rn332mamu6aaCkAMBEPAWAe9/anqLN6x1IQHeA2aVFE4yr2o0rJ5rUPSmDo0950gG5+zcn0rLsu5AMj7XjMTXrjXIAChYttneORczL/VwaHt+gb1zHu3hyAGZP7mhNuSCtvLUuq1cuZJSUlJM9KTz75QFJoKQAQEQ8B4B/Erw3pzBYn0CR3n1/Kip2r1795LULbVtvTuh3rktQ6/Ka2Rrl3JfaM4RSFZICCe7FxAh49wcaWresCeRMnPyrFVe0s+7+84R1k507bDualnap06davp+kpB2+zejae+QAwEQCCgBOOcBxY3O3ErAZt+57PU9fPiw9dD6dm5prQMKvEkAK+fun7e0zGzSWElsGouM7e6fbd7cy6vGa3cesTa1Bde279o2zlpPMBRovN+9vuf8hot7qqCX3wmffvqpqS6EtJuSgxwIeJAAnHMPThpM1idgu+983bp11kZJXVyEvFpj9KQCjZXzc4VYOXdy8iUwQSO0vWkjOOdOzpOm7uVbwju0PU9hz3l0lHcT4kmJ044tG6u8pdasWUPJyckmujI4pH2+iSBkQAAEvEkAzrk35w1WKxOIjIy02nc+e/Zsa4ukpmyP9s2s9UCB9whITWTbJiszaM4S0EgKF4eVc2cnSVH7iq2HSGO7iFdLqqmEtXs4x8L1I3RWzeUtaRHSPovFQ6NYvOL/JlSBQCgTgHMeyrOLsflMgOuVb+KLpea5UVuxYoWRXFmhgd1alT2E12FAIEKhzjlWzp1/o5xSqHWOjO3Oz5NWD6kZ2bRt/3Frdb06NPdkrgGNsHavrpxLIrvRQ7paz70okBunM2bMMNX1kakg5EAABLxJAM65N+cNVusTkGQrW03VHjt2jDIzM03Fi+UGwDkvZhFOTzRWzgu/RSk1p98zGivnjerXcdpM6FcksFyhpJoExozs20HRqsCoyi+w/0yp6dFs7RLtEFuvtgroxYsX0/HjRjd5kjmkfa6KEVACAiDgGQJwzj0zVTDUaQJ8d3upTR/btm2zES+S7d+lJSlEOFvbAQWBJRARYf9RjFJqzs/Z6XT7cmp1akc5byh6UCOgte981IVd1GwKlCKNsHavllLTDGmfMGGC0ZRxLpIpLJhvJAwhEAABzxKw/0Xo2aHDcBAoTYC/CJeWPuLfK41957ExtdUS0PhnPa4OJgGFqHaCc+78DGZm21czqlc72nlD0YMagW+OpdDRk2nW+ob1akfNG8VY6wmkgvwwTQjXpEFdGt6nnQpqiagzzdLOv0kmqhgBJSAAAp4iAOfcU9MFY50kwOFjK1n/OdM+Zs6caSpaSg6h7aVwhMULjZXzc0gI5/h7JSvXfhGrbi2snDs+UcodaIS2S16J65XKcikPr1J1uQrOeeP6dSvV79YTY7i2eaRCNJOM7+OPP6a8PP9v6nEk3xbOhWO81c6tbGEXCIBA9QTgnFfPCFeED4GzPNSNpsONj483+hIu2x+c87JEQv+1xp7zb1FKzfE3SlaOvXOOsHbHp0m9g2VKJdVuHHmBp7YtpWfZJwlvUK8WeS20/QbFLO0TJ040fT8aC5p2CDkQAAF3EIBz7o55gBUuIWC773zPnj3WIxnYFRnbrSF6TEGkQlw7srU7P+k5WDl3HrILe9i89xhlKGxpaB3XgAb3bOvCEVZskkYCRNEc17BexR248GiP9k2pS5smKpYdPHiQpL65QcsvLCz80EAOIiAAAiFAAM55CEwihqBHwHbf+cKFC62NadGkPskDLXwI1FBwzpGt3fn3C8LanWfsxh4KzhXSym2HVEy7iVfPvdLSMnJIo5xaXKx3Qts1E8G99957plM9hwWTTYUhBwIg4G0CcM69PX+wXpmA7b5zi1qmpUaC1fNSOEL+hYJvzgnhQh5T0Aeo4pwjIVzQ59HEgDlr7KOipN/LB3VWK9FlMg5/ZU6l2VcoaOqRlfOakRE0Zmg3fxFVeL3UNp88eXKF53w4ONGHa3AJCIBAiBKAcx6iE4thGROw2ne+YcMGYgffuPPzgth3fp5EePyNioy0HiiHQVrrgIKqCWRrhLWjlFrVkF16dvWOw3TyTIa1dbL/+lpOOOaVphHa7pWw9pH9OlDDmDoqU7Ns2TI6evSoia5T/BtitokgZEAABEKDAJzz0JhHjEKRgM2+c3HMDx8+bG0NnHNrhJ5SUL9uLWt7c/IKrHVAQdUEshUSwsnqXBQ7aGjeIiClCr9cFa9i9DgPhbarOOex3thz7oaQdtQ2V/kXgxIQ8DQBOOeenj4Y7wQB233ncsfctnVs2Zik5jlaeBCIUXDO07NywwNWEEepEdYu5qOcWhAn0aLrz1fEk0bFwq5t46hXx+YWlgRO9FRqpnVnXghrlxXzi/t2sB6rKMjKykJtcxWSUAIC4UkAznl4zjtGXQWB7/adGy9DTp8+vQrtvp2qUYOof5eWvl2MqzxPQGPl/Cycc8ffBxql1MTI2rVqOm4rOtAnkJicRhv2GIUqlzPGK6vnOivn7k8Id+2wbiRRLRpt6tSplJPjfxk6jtrbxrXNt2jYAB0gAALeJaDzSeTd8cNyEKiIgOw731TRCV+OrVixgldXvvXl0iqvQWh7lXhC6qTUArZt6ZlYObdlWJ28VkZ8js6priucdymBmct3qVh2zZBuVDva/TdpNJxzL6ycj0Vtc5X3NZSAAAjYE4Bzbs8QGkKQgM2+cwlpO378uDWVgd1Q79waokcUYOXcGxOl5VR/y/uX0bxJYNHG/aQRpVKvTjRdNbir6yFohLW7PSGc1DXv0a6pylxIzplVq1aZ6CrgpJ5TTAQhAwIgEFoE4JyH1nxiNEoEIiIiltioWrt2rY14kWyP9s08sbJiPVAooAYKe841HAZMRdUEIiN0vjILFSJrqrYUZ50ikJd/juau3aui/qZL3F/zXGPlXPZza4WMq4Avo+TWy/qUOWL+csKECabCUtv8pKkw5EAABEKHgM4vjdDhgZGAQBGBgoICufUd1H3n8mOmT+cWmJEwIICVc29MslY0umT+RvMugc9X7FQxvn/XViTJ4dzcNJxz+b9x6+q5RDCMHdFDZQpkO9ukSZNMdU00FYQcCIBAaBGAcx5a84nR6BGwqnf+1VdfqViC0HYVjK5XUl9lz7n/CYhcD8ZlBkYoeedYOXfZxPppzu7DybQ7IdlPqYov/+HoARWfcMnRtMwcyis4Z21Nyyb1rXU4oWDs8B5q1RMk38yRI0dMzJTa5rNMBCEDAiAQegTgnIfenGJESgRs9p2fOnWKUlNTrS0ZwCsraKFPQGXlPDsv9EEFeYQIaw/yBLio+8+VEsON5sRwzRrFuGhk5U05nZZV/qCfR1o0ducYb7+ir58jqfxyi5D2j1hrfuWacQYEQCCcCMA5D6fZxlj9IsD7zpf6JVDm4o0bN5Y54v9LCWvXcgj87x0SgSKgsec8nVe40JwloLRwTghrd3aeAqF93ro9JPvPbZtsX/r+lf1s1Tgqf/JMhrX+Fo3dt3I+5IK21KFlI+uxiYLs7GwyLaPKvzUmqhgBJSAAAiFBAM55SEwjBuEEAd53vpL1Gu87nzlzprVZdWpFUY/2OllkrY2BAkcIiMMn+x5t21mUUrNFWK281o0yhLVXi9r1F0jpwq82HlCx85bLelO92vafASrGVKAk6bTs8rJrzV3onN+muGr+ySefFDno/lLiCL3tXNvcuHSrv/3hehAAAfcTgHPu/jmChcEjIMsFxsvfc+ZI8lX7dmGP1vZKoMG1BGLq1CKNvcxns1Hn3OlJRik1pwl7S79WYrgYvjk3zsWZ248rOOdu23PegvfAX9q/o9obbuLEiaa6jAVNO4QcCICAuwnAOXf3/MC6IBOw2Xd+6NAhkprntm1or3a2KiDvYgIa+82lMldGFvacOz3NSpXU6BxKqTk9VQHRv2H3UUpMTlPp666r+rt2C9PxFI2Vc3ftOb+VoxUiIjhsSaEdPHiQJBmcQUNtcwNoEAGBUCcA5zzUZxjjsyJgu+98x44dVv2LsCSFi46KtNYDBe4k0LRhPWvDMnPyCKHS1hirVVArqma11/hyQUFBoS+X4RqXE5B7LB8t2qZipazkXjW4i4oubSVJp+ydczftOY+uGUk3XdJLDdMbb7xhqms+C54wFYYcCIBAaBKAcx6a84pRKRGw3XeuEdoujrnUw0ULTQLNFbIYnzmbHZpwXDaq2Hq1rS2SGynnCuGcW4N0iYLPl++ks1k6W0rudmlZtSSFlfMGXC5Scqi4oV11UVdqVL+Oiim5ubn03nvvmep6y1QQciAAAqFLAM556M4tRqZDwGrf+WeffaZihWSVRQtNAi0VEiWdSLHPphyadHVHFRtj75xLIjG00CGQlZtPM5baR0gJkZ4dmpEbc4xoJIST8bll9fz2UXrl0z744ANKT0+X4fnVeMvcQa5tPtsvIVwMAiAQFgTgnIfFNGOQNgRs9p3v3LmTcnLsS1wNhXNuM4WultVYOT+hsLLlakguMa6Bwsp5GkreuWQ29cz4aNFWyi+wL6smFt19zUA9w5Q0ZWbnUQY/bJsbap336ticevNDq73++uumqv7NggihMaUHORAIYQJwzkN4cjE0HQK2+863bNlibUh3LqemEVJrbQgUqBOQvaa27ThWzm0R+iTfUGPlPMP+Zp1PxuKigBFITs2keev2qvR3cZ8O1LFlYxVdmkqSTvm/Oly2f43PurI6/X192xV9/BWp9Po1a9bQ9u3bKz1fxYmcwsJC41j4KvTiFAiAQAgQgHMeApOIIThL4Lt958bLBtOmTbM2UEptDe7ZxloPFLiPgEaoJ1bOAzOvOivnCGsPzGwFtpfJ8zerdMgf9bx6PkBFl6YSjRuAGlFCNmNqGFOHRl/UzUZFKdnXXnut1Gs/XnzE157243pcCgIgEEYE4JyH0WRjqMYEZEPvKlNpDedc+sa+c9MZcLdciyb2JYY0fji7m5I7rIvlpFa2DWHttgTdKb//6GlasyNBxbhrh3WnJg3qqujSUqKx7zzYK+dSS16r8klycjLNmDHDCC9H4xnHwht1CCEQAAFPEYBz7qnpgrHBIsD7zueb9n3s2DFKTU01FS+WG9oLSeGKYYTIk1rRNUlWc2ybRh1iWxvCQV4jIVwawtpD9q3y/rxNKmOTUl8/HOOuvedJp+3D2ps3sr8RaQpYos++d7leSPtbb71FnNDNxJy1+fn5Om8Uk94hAwIg4HoCcM5dP0Uw0A0EIiMj59nYsXr1ahvxItnWTWOpdVwDaz1Q4B4CWgmSkK09MHOqkfchHQnhAjNZQehl3a4jtCchWaVncSQbN7C/cadiDCvRiM4JZjTAyH4dqKVCfg/hKU75m2++aYoWq+am5CAHAmFCAM55mEw0hmlHgO90b+PV8+OmWqZMmWIqWkpuCFbPS/Hw+ovmCmXUpJSTVp1lr/N02v5mCjXpEdbu9CwFV//keTp7z2tzVM09YwYFdzAlete4AdgoiDcbbh/Vr8Ro7J5+/vnndPy40c+Bk+zY2yehsTMf0iAAAi4nAOfc5RME81xD4NsaNWosMLVm9uzZxM69qXixHPadF6MIiScaK+dIBhe4t4JG5ArqnAduvoLR0/yv95GGIyu2u2n1PPVstjXORryFRxLeBbp1aNFINWeLafk0/g3wHx67cXLZQHNDfyAAAsEhAOc8ONzRqzcJGIe2Z2RkkOw9t20X9WwblB83tnZDvmICGpnaNcJNK7YOR0sSaMDJ4OrXtU8Ip5FYq6RdeO4uAucKC+nDhfblM2VUblo9P6PgnEdE1OCSoIEP1f8el0/TuikQHx9PK1asMHnT8Vuj0DgW3qRDyIAACHiTAJxzb84brA4CAQ5HW8jdFpp2/dVXX5mKFstJQqru7ZoWv8YTbxPQyF6stUrnbZLOWy85HzTa0eQ0DTXQ4WICny7fSZnZOgukblk9T8/KIbnxYNsa1Q+sc16nVhTdMKKnrdnF8qar5qxgJj+OFivCExAAARCohACc80rA4DAIVEDgFB/bWMFxnw5NnjzZp+uquwih7dUR8s55jbq/CGsPzHy3aWqfjFEytWs5bYEZNXoxISBzPGPZDhPRcjJuWT2XXVmpCpUGAp3k7oaLe1K9OtHluJockAi4999/30SUV+5rIBGcETkIgUD4EYBzHn5zjhFbELApqbZ8+XLT0iulLB5yQbtSr/HCuwSaNqxnbTzC2q0R+qRAY+Ucq+Y+oQ6Jiz5auJXyC4xKbZUbv1tWzzVC2wPpnEdGRNAPr9ErSTdx4kTKzvZ/7z3/bthVUFCwpNzE4gAIgAAIVEAAznkFUHAIBCojEBERYVzvXMqv7Nu3rzLVPh8f2K0VRUdF+nw9LnQvAY0QT6ycB2Z+NZLBJSbb14oOzGjRiy2BE2cyaObKeFs1RfJuWT3XcM41PvN8hTp6SFe18mnS5xtvvOFr12WvMxYsqwivQQAEQp8AnPPQn2OMUJEA3/1ey+qMN41K1nbbJo55/66tbNVAPsgEJEGRZC+2bafSsmxVQN4HAm2a2e85x8q5D6BD6JJ3Z60PqdVzlYzt9esGZIbl8/Xea/VK0S1evNj05no6J4Izi4UPCCl0AgIg4DYCcM7dNiOwx+0ECthA48xu2Hfu9ukNnH0N6tUmyV5s286k+x9madtnOMp3axtnPWysnFsj9JQCSdYYSqvnGivngQprH9mvI3Vp3UTt/fLaa6+Z6prEghmmwpADARAIPwJwzsNvzjFiewLGoe07duygnJwcawuQFM4aYdAVaIR3FnKWpjMZcM6dnszmjWJIY76wcu70TLlPfyitnus454FZOb9PcdU8MTGRZs2aZfTm4u1s440EIQQCIBC2BOCch+3UY+CmBPjL1rjeufS5detW066L5Xq0b8r1YmsXv8YT7xHQcPYk+3dhIadRRnOUQHf+f9Noh5LOaKiBDg8RkNXzz1fsUrE42HvPNZzzRvWd/94awHlZ+nVpqcJclIwfP544qZuJvkUstNtEEDIgAALhSwDOefjOPUZuTiCBv6iNv3CnTZtm3vN3khG8oW5wzzbWeqAgeAQ0nPMUhLQHZAJ7KjjnMlfJqZkBsReduIvAe7M3qO4916jyYEJIwzlvHIA955qr5rm5ufSf//zHBJfIoHyaKTnIgUAYE4BzHsaTj6GbE+Cs7car5xrOuViO0Hbz+XODZOP69sngUs4iGVwg5rJH+2bW3ew+fNJaBxR4k4Csnn+2XG/1/MFxQ4ICQsM5b+jwynlXzg1xcd8OanzeffddSklJ8Vsf38BP4Cg7s1h4v3uDAAiAQCgRgHMeSrOJsQSSgPG+c9m/lpqaam0rnHNrhEFVoLFyjmRwgZlC2UZi2+IPJ9uqgLyHCUzg1fM8pbrnN158AXVq1TjgNFLP5lj3WTPS2TKg947Ry9DOWdbppZdeMh3zv1lQp9C9qQWQAwEQ8CQBOOeenDYYHWwCXFJtGdtg/Etl7VqpyGbXpLSTRu1lOysgbUogVqGMWko6Vs5N+fsq16RBXZKEcLZtTwKcc1uGXpaXuuefK62eS5WHh28dHnAcBeysurnJ9+Hoi7qqmfjxxx9TQkKCib5cduzfMRGEDAiAAAjAOcd7AATMCEiK7OVmokRTpkwxFS0ld3G/DqVe44V3CETVtP/4PZud550Be9TSIb3aqliOlXMVjJ5Worl6fkn/jjSwW2tP89A2/odjBqqUpzxv1/PPP3/+qb9/32eBU/4K4XoQAAEQEAL2vw7BEQTClADvKTMObZ89e7YKtUu4liuaNwnkF9ivQkXXdDZE1Jtkda0e0aeDtcKzWbmUmJxmrQcKvE3gv6vnO9UG8evbAr96rma8siKpny7h/lptzpw5tGuXUZ6AQt5r/qKWHdADAiAQfgTgnIffnGPESgQ4bM04KVx6ejodO3bM2pILe7SmurWirPVAQeAJ5J+z344YBefc0YmTqgjDe7ez7mM3QtqtGYaKgvdmb1Tbe967Uwu68sIuoYLGahx3XtWfoqP0blZarJrP4IHssxoMhEEABMKaAJzzsJ5+DN6SwC5ePT9qqmPx4sWmosVy4pwNVXAeihXiScAIFCgkh6ql+GM0YAP3UEcXdGxOsTH2dZnjDyFTu4em3VFTTxbtPddbPX/olmFUMzK8f8rVqxNNt13RV23e1qxZQ6tXrzbSx5VcXjAShBAIgAAIfEcgvD/R8TYAAUsCNWrUMA5tnzBhgmXv/xWXvYdo3iOgEdYeBefc0Ykf0ae9iv6NuxNV9EBJaBB458sNlJNXoDKYds0b0s2X9lbR5VUlt17Wm2LYQddqf/vb30xVLczPz99oKgw5EAABEBACcM7xPgABOwLGoe3Lly8n/iK3652lR3JNVwm/RfMWgXyNlXOEtTs66SP62jvnefnnaP1u4wAbR8cH5cEhcCotkz6Yv1mt85/ecBHVq63nnKoZFgBFknfjB1cPUOtJ9pnLfnOTxjfrjTPImfQHGRAAgdAkAOc8NOcVowoQAU78soi7Mto8zCHxtHmz/Q80qZfdu1PzAI0Y3WgRyD+nkBAuqqaWOdBThkBDLnV3QYdmZY76/3LjnkS1VVL/e4eEWwlMmruJzpyVoh/2TZKh3X2NnoNqb1HgNIwd0ZOaxNZV69Bir/l6LrFqv1dNbSRQBAIg4FUCcM69OnOw2y0EUtmQdabGTJw40VS0lBxC20vh8MQLjZVzzQRInoAWQCMlEZxGRMrKbYcCaDW68gqBzJw8evuLr9XMvXv0AFUnVc0wBxVJvfd7uHyaVjty5AhJbXPDhr3mhuAgBgIgUJoAnPPSPPAKBPwmYFNSTeqdywq6bYNzbksw8PIaznktrJw7NnHDFULaxTg4545NkecVz1i6g46c1CmxV4erdjx44xDPM/FnAJKpvm2zWH9Eqrz2xRdfJK7CUuU1FZ3k7/A9HEX3WUXncAwEQAAE/CUA59xfYrgeBMoQiIyMNNugxnoyMzPp8OHDZTT6/7JL6ybUKq6B/4KQCBqBXN6LbNuaNapnqwLyFRDQKqEmjpeW81WBmTjkcQIFvLXl9RlmWcErGvq4Sy6gDi0bVXQqJI/de+0gtXGlpKTQu+++a6SP95pLXXP/vXqj3iAEAiAQ6gTgnIf6DGN8jhPgpG4b+M65ccanzz7TueE+sl8Hx8eKDvQInErNtFYmN2QktBNNl4CUUJM957YNq+a2BENffuH6/bTj4AmVgUZGRNAvbxmuosvtSiRarEe7pmpmvvrqq5Sbm+u3Pv7uT+RV88l+C0IABEAABCohAOe8EjA4DAL+EOA75zP9ub7ktePHjy/50vg5QtuN0QVF8GhyunW/Ut+4ReP61nqgoDQBrRJqq7bbR8WUtgyvQpHAq1NXqQ3r8oGdqH/Xlmr63KhIipP84qahaqZlZWXR66+/bqrvHyyYZyoMORAAARAoSwDOeVkieA0CBgTYOf/cQKxI5ODBg5SaKnnl7NqF3VuHbTkdO3LBkT5++iydM9jfWNba1k2xnaEsE9vXlw7oaKuCcrmO9QaUULPmGA4KNu1NpBVbD6kN9VffG6Gmq6Si2tH21SE0cqxcfVE36to2rqRpVs/ffPNNSk83ull6hveov2XVOYRBAARAoAwBOOdlgOAlCJgQ4BIqS1nujImsyCxZssRUtFguiuu9Du3Vtvg1nribgDjm4qDbNs2ESLa2hIJ8dw6V1QiXldrmUuMcDQR8IfDPaas4GZl9clDpq1+XlnT5wM6+dOvXNU1j7XNcZOXm+9Vn2YtlG49m4jvelkavvPJK2W58es03Gt7gCzN8uhgXgQAIgICPBOCc+wgKl4FANQQK+Pzsaq6p9PS///3vSs/5cwKh7f7QCv61GqHtrZvGBn8gIWTBTZxUS6Ot3IaQdg2O4aLjm2Mp9MWqeLXh/vLWYSR70DVbXEN75zwlLcvKpOu5rnn7Fg2tdJQUnjx5Mh0/frzkIV+fZ/Oq+b98vRjXgQAIgICvBHQ/uX3tFdeBQGgSMA5tl5VzuYNv2y7u20GlNrOtHZD3jcBRhTJKbeCc+wbbh6ukbvyYod19uLL6S7DfvHpGuKI0gX9/tpZyeDuERuvQohFp3Wg6b09cbN3zT43/nk43d84lOuyBGy4y7rusoITY//3vfy972NfXkto92deLcR0IgAAI+EoAzrmvpHAdCFRDgDO2zuNLcqq5rMLT8iNh8+bNFZ7z52Cj+nWoT+cW/ojg2iASOJpsX+O4XXOsnGtN4ZWDulD9urWs1R06foYSFebW2hAo8BSBZK7gMGXBFjWbH+C651L/XKuprJynZxubc8tlvalFE70EmFIpZf/+/Sb2FPD3/csmgpABARAAgeoIwDmvjhDOg4DvBKQ21iLfLy995aRJk0ofMHyF0HZDcEEQS1TI2N61TRwSASrN3bhLeqloWoWQdhWO4ahk4tyNlJph7sCWZNaEV7rvHj2g5CGr53EKe85PpcnXpP9NktHdP/ZC/wWrkHj++eerOFvlqY/57KEqr8BJEAABEDAkAOfcEBzEQKASAp9Vcrzaw1OmTCGNTLaX9LPPNF2tsbhAhYBGWLskSBrQrZWKPeGsRBLrDeKKBxpt0Qaj1TiNrqHD4wQys/PoP1+sVxvFPWMGUuMGdVT0NW1oH9aeYhjW/v0r+1GTBvb9nwexaNEi2rRp0/mX/vz9llfNX/BHANeCAAiAgD8E4Jz7QwvXgkA1BPhL+0u+pLCayyo8nZGRQYcP2yeR6ty6MbWOQ3mtCiG77GDCiVQq5C0Ntm1QDx2n0tYOL8vLqrnUT7ZtB5NSaOv+JFs1kA9jAtOWbFfbFiFh7T8eO1iFZkuF75XTBmHtMXWi6Yd8k0GzPfHEE6bqJPHrDlNhyIEACIBAdQTgnFdHCOdBwD8CkiBmlX8i/7v688+Nc8r9Twk/G9kfq+elgLj0hZQV+iYxxdq6wT3aWOsIZwWS1fr6ET1UEHy2fJeKHigJXwIF5wrptRlr1ADIXu1Wlo51w5g6KivXp3hfvb/t7msGUmy92v6KVXr9rFmzaP16s+iEGjVqYNW8UrI4AQIgoEEAzrkGRegAgRIEODTd2MMeP358CU3mTxHabs4u0JIb9yRadyl1uevx6hKaGYGL+7Ynjf20+QXnaNaq3WZGQAoEShBYuH4f7Tp0ssQR86eS5fzBcUPMFbCkRGRpNIkW8qfJTYG7ru7vj0iV18rWsccff7zKa6o4uaqgoGBlFedxCgRAAASsCcA5t0YIBSBQmgDXPjV2zr/55htKTfXvx0vp3v/7alD3VkgSVhEYFx7TcM5l3/nArth3bjq9Nyklglu6mf9/lZJ5mY4FcqFBQHa7vPqJnh947bDuVg5259ZNrMGmZeaQZKT3p/3oukFUVzHj/LRp02jHDuOodOMMcv6MGdeCAAiENwE45+E9/xi9MwS+4bvz201VL1261FS0WE5WSob1blf8Gk/cS2DTXvuVcxkd9p2bzXHzRjF0cd8OZsJlpD5bvrPMEbwEAXMCG3Yn0spth8wVlJCM4IQKP79pWIkj/j3VWDk/kHjar06b8f/mbVf09Uumqov5xjk9+eSTVV1S6Tn+Tt/BOWVmV3oBToAACICAEgE450ogoQYEyhAwztr+73//u4wqs5coqWbGLdBSKZwgSZKI2TYtB9PWDq/J38FZoCXywLYlnkqndbuO2KqBPAiUIvCvaatVkkaK0ssHdqLenVqU0u/riy4KK+f7j/r3Offj6wdTdFSkryZWe937779vWteck0XWeIY7sM/eWa2VuAAEQCDcCcA5D/d3AMbvCIHIyEjj0PbFixdTfn6+tV2yj1ZWS9DcT2DjnmPWRnZq1Zh6dmhmrSecFEgm65sv1altPnPFLi6FGE70MNZAENjPq82aeQx+eav/q+dy86pb2zjr4e4/espnHa2bxtK4kRf4fH11F/JecXrmGfGv/W+8ar6ZV81n+C8JCRAAARDwnwCcc/+ZQQIEqiXAzvVm/kI/XO2FFVzAcrRly5YKzvh3SBLpaNVt9q9nXO0vgQ27j/orUuH1Y4frZByvUHkIHrzh4p5Uv24t65EVFn5LX6yMt9YDBSBQEYG3Zq4jSTao0aSyw9Bebf1S1atjc5WEk/v9qEzx4I0XUc1IvZ+ob7/9Nh05YhbZwqvmkkEOt978etfgYhAAAVMCep98phZADgRClEBERMRM06FNmjTJVLSU3NUXdS31Gi/cSWCTwsq5jOyaId1Uf9C6k5aOVRJVctdV/VWUrdp+mE6eyVDRBSUgUJZA0umzNH2pcRKzsurooVuGlztW1YEhF/jnzFemy9c95xIFNIYT2Gm1nJwc+utf/2qqbhWvms8xFYYcCIAACPhLAM65v8RwPQj4TsA4tH3KlCkcImt/o37UhZ1JajijuZvAqbRMOnT8jLWRjerXoRF92lvrCQcFlw7oSG2axaoM9dNleo6TikFQEnIE3p21nrJy7bc7CZgLePvLqEGdfWak4Zwf5xsMZ7Nyferz5zcNVd2S9cYbb9CJEyd86rvsRbxq/qeyx/AaBEAABJwkgF/tTtKF7rAmwHvcljMA/zLgfEfs7NmzlJCQYM1PQtsvuqCNtR4ocJ7A8i0HVToZO6Knip5QV6JVO1lurKzcZrSDJdQRY3yKBCRx5AfzN6tp/MXNw3xKhFg7uib17WyWRK6ksVv3J5V8WelzyZtxhR83DipV9N2JzMxMev554wpoC/l7fFl1feA8CIAACGgSgHOuSRO6QKA0Adkk+GXpQ76/+uwz44TvpToZzaHOaO4nMGfNHhUjR/brQA3q2e+jVjHGpUrEARjYrbWKdV+u2k3nuEQTGgg4TWAyO+epGdkq3XRo2Yiu9+FG3oBurUhKc9q2r+N9y6vxC14112yvvPIKnTljFpXEW9NkrzkaCIAACASUAJzzgOJGZ2FIwDi0/fXXX1fBdfmATio/rlSMgZJKCew9cor28cO2RfMP6euGITFcVRy1Vs3FKf/kq21VdYVzIKBGIDM7j96dtUFN3wM3VJ90TSOkXQz2xTm/sEdrGq64LSctLY1efvllU14zObHr16bCkAMBEAABUwJwzk3JQQ4EfCDAiWQW8GVGSx2HDh2ikydP+tBL1ZdINurhvdtVfRHOuoLArNW7Vey4Z8xAEicdrTyBZo1i6OrBOokSF3y9n04gEVx5yDjiGIFpi7fTiRSd5IMtmtSna6tIvCaVOK+8sIv1WCShXWJyWpV6JEHj779/SZXX+HtSwtkzMoxYFfJ39xP+9ofrQQAEQECDAJxzDYrQAQKVE8jiU+KgG7Xp06cbyZUVuvoihLaXZeLG13PW7iEpy2XbxAEdd4lejWBbe9wkf/uovmoZ7T9YoLcH2E2MYIt7CeRxSbU3ubSaVrt3zCASJ7yiNqBra2oV16CiU34dW+9DSPtNl/ZSqaV+3rDk5GR67bXXzr/09+/HLLDdXyFcDwIgAAIaBOCca1CEDhComoBxaPsLL7xQtWYfz0pm6lqc2AfN3QROp2XRmp0JKkbed92F2M5QhmR0VCTdfEmvMkfNXm7ck0jxh+wjW8x6h1Q4E/hyVTwdSjLbR12Wm+w9v2xAxZnbrx+hsz3m6/gjZbst9TqmTjRJhnbN9pe//IWkhJpBK+BV86cN5CACAiAAAioE4JyrYIQSEKicAH/RS1I4SQ7nd0tMTCR52La6taJoZN8OtmogHwACWqHtzWX1fCRWz0tO2WiOIImNqV3ykPFzzczZxkZAMCwJSHTN65+uURv7fdcNKqdLbuZqhLSL4upWzn/Ke9+lDKRWk+/Mt956y1TdRBbcZyoMORAAARCwJQDn3JYg5EGgegKn+ZIV1V9W8RUfffRRxSf8PHr1RTr7bP3sFpf7SWDJpgMkiZ802o+wel4K421X9Cn12vRFwolUWrH1kKk45EDAmsDijQdox8ET1npEQe+OzWlwj9IlNyWRaD1e0bZt+xNPU3JqZqVq2rdoSHdc2a/S8yYnnnnmGeISaCaiuXwz/VkTQciAAAiAgBYBOOdaJKEHBKog8O233xqHtr/44otVaPb9lKycywo6mrsJ5OWfowXrdRZumjeOoRsv7unuAQfIul7sgMhDo324cAsVfmufG0DDFugIXwKvTV+tNvh7y6yejx2uE9K+8OuqP8t+e8dItRwQAuPAgQM0ceJEIy41atSQ5faqY/CNNEMIBEAABHwnAOfcd1a4EgSMCRQWFs40FT59+jRJ5nbbJmGKsvcczf0Epi3Ry0X0Ew4Z1VgBcz+1qi3UWjVPy8yhL1bGV90ZzoJAAAhIuPi6XTq+5LBe7ahH+6ZFVjdtWI+G8muNNmft3krVSNk07e1WTz31FCfVLKy0zypOZPJq+3NVnMcpEAABEAgIATjnAcGMTkCADjED402C77//vgpC2XOL5n4Cuw8n08pth1QMlR/av7xlmIouryqRfeZa7/3pS3ZQTp5RyKxX8cFuFxN48/N1atY9cOOQIl13Xd2fIiIqSeHuR29b9iVVWkItMiKCfnfHxX5oq/7SXbt20dSpU6u/sIIrOLrtX3xYZ59ABfpxCARAAAR8JQDn3FdSuA4ELAnwl/8UUxWvvvoqsbypeLHcMK53LnXP0dxP4O2ZX6sZeevlfahP5xZq+rymSBLjSaZ225bPZaymfrXNVg3kQUCNwNb9SbRpb6KKvkv7d6RRgzqTfF5otDlrdleqRiJZOrZsXOl5kxO///3vTb8n03i1XWf/mInhkAEBEACBEgTgnJeAgacg4CQB/vKXW/pGS27p6em0f/9+a/OiakbS5QM7WeuBAucJSLKn1dsPq3QUwYWMn7j3CtW9nSqGBUCJjF3L2Vi4YT+dSqs8uVUAhoMuQKAcgQmzN5Y7ZnrgsR9erpKbRG5kLVxf8XeWRLKcX6U3tbOs3Jw5c2jBggVlD/v0mm98v8QX6tSm86lHXAQCIAAClROAc145G5wBAW0Cp1jhfFOl77zzjqloKTmt8N5SSvHCEQJvfaG3et6ldRO6Z8xAR+x0s9IRfdtT67gGKiZ+glVzFY5QoktgFd/E23tEvl7sm1ZJs5XbDpPkZ6io/WzcUGpQTy+CSzKz//a3v62oK1+OJfON81d9uRDXgAAIgEAgCMA5DwRl9AEC/yNgHNo+fvx400Q3/+udn110QRtqGFOn1DG8cCeB7QeO05qdCWrG/eT6i6hts1g1fV5QdPsVfVXM3J2QTNt4PtBAwI0EJs7RWz3XGF9lIe1yk/DWy3prdFGs47XXXjOOLONV8+dZUUaxMjwBARAAgSATgHMe5AlA9+FFgGuoStZ2ox8C2dnZFB9vnyVaEvGMurBzeIH38Gg1957Lvusn7h1FEuodDq15oxgaynkWNBpWzTUoQodTBKT8YmJymlPq/dIrK+Yrth6qUOb33x+pkmzuvHKpZiJ1zU0aO+aJvGo+3kQWMiAAAiDgFAE4506RhV4QqJhAFh/+rOJT1R998803q7/IhysQ2u4DJJdcIgmftMolyZAu7NGafhEm2duv41rNGjci0jNzae66yktCueStAjPCmEBh4bc0ae4mVxCQigZ5vOe8bLtsQCeO3Gpb9rDV6z/96U+UkWF0v1v6/TM/Ko69t7IKwiAAAiBgTgDOuTk7SIKAEYEaNWoYh7a/++67KqHtA7u3orjYekb2QyjwBN6YsYazEOv1e9+1g+jKC7voKXSpprHsnGu0mSt3US7Kp2mghA4HCXyxKp5Op8v93+A1+T/5cOGWcgZIMtLf3n5xueM2B7Zt20bynWjSeNX8G141f89EFjIgAAIg4CQBOOdO0oVuEKiAACevWcQ/DIzqqebl5dGWLeV/+FTQTZWHZDXxqsGh75xVCcFDJyVz++crdqpa/PT9V1Ln1rqljFQNtFTWu2Nz6tCykaUWKropMm3Jdms9UAACThPIyz9HE2ZvcLqbKvV/tnwnnTmbXe6aO6/qR22U81386le/Mi2dRnyT/I9sZH45Q3EABEAABIJMAM55kCcA3YclgXMREREfm4789ddfNxUtJXf1RV1LvcYLdxP457RVqqtidWtF0Su/HBuyde/HjuipMqGrdxymoyfdsZdXZUBQEtIEPlm8nQ4lBacqWMG5Qpo0r3xofZMGdenH1w9W5T5jxgxasWKFqc7lnP9lmqkw5EAABEDASQJwzp2kC90gUAkBm9D2KVOmkJSOsW19O7ekFk3q26qBfIAIyL7nlz4y/jFaoZWSuf25B0ar7MuusIMgHZQQ2tFDdG4+fbJ4W5BGgW5BwH8C4iC/9LHu54SvVsxZs4dOpJTf//0Q57ioVzvaVzXVXpebm0uPPPJItddVckEh3xz/VSXncBgEQAAEgk4AznnQpwAGhCOB/Pz89RzabpRhiu/40/r1662xScLuqwfrODDWxkCBTwTmc1Ky1VzTWLON6NOe/nDXpZoqg67rkn4dKLZebWs7JDx3zY4Eaz1QAAKBJCCfESu2HQpkl1TISTEmzCkfUt+zQzO6/mKdKJbzA3r55ZcpIcH4//Jd/v613xt23hj8BQEQAAFlAnDOlYFCHQj4QcA4Mdw///lPP7qp/NLrlUJ/K+8BZ7QJPDd5KeUoJye77Yo+JCWOQqVpva/n8c0QWYlEAwGvEXiFV88D+d79asMBOnw8tRQmuQH8yPcvUY3MOX78OP3tb38r1Y8fL9L45vbjflyPS0EABEAg4ATgnAccOToEgf8S4Eyxxs657LeT5HC2TRKC9evS0lYN5ANI4NipdHrz83XqPd55VX/61fdGqOsNtMLGDerQiL7tVbr9krNfo4GAFwmIo1xR1nQnxiKVJN6dVT6aa9zIXtS/q+73y6OPPkrZ2eUTzvkyLo5Wk9JpJ325FteAAAiAQLAIwDkPFnn0CwJEBxjCWhMQ/CODVq9ebSJaTubmS3uVO4YD7iYwZcEW2pOQrG7kPWMG0s9vGqquN5AKrxnSnSIj7L/a9ieept2H9RkHkgX6Cm8C//lyPaWkmzmy/pD7cnU87T1yqpRIk9i69OvbdG/2yXYuybli0vg7cx/fEP+XiSxkQAAEQCCQBOx/wQTSWvQFAiFGgH8wmP3SYA4vvfSSCo2reN95TB29ZD0qRkFJlQTOFRbSk+8uIimdpN0kq/JPlDMra9tYlb7rR+jUNp+9andV3eAcCLieQGZ2HkmVBydbBvfxrwr6eJTzWNSvW0uta7kh/fDDDxvr4ySsv2VhlE4zJghBEACBQBGAcx4o0ugHBCogwHfyp/Jho9Tr8+bNo5ycnAq0+neodnRNunaYjkPjX8+42obAPl6pem7yEhsVlcr+jFfPH7hxSKXn3XqiS5sm1L1dU2vzCgu/pdmceRoNBLxOQLZmLNn0jWPDGP/Z2nKr85cN6ERXXthFtU9ZMbdIhDqf95rPUjUIykAABEDAIQJwzh0CC7Ug4CMBiZtd4OO15S5btmxZuWMmB25BaLsJtqDLfLEynqYt2e6IHQ/ceBG98LMxJDdvvNLGDO2uYuranQl0Ki1TRReUgECwCTw78Ss6eaZ8iTNbuxJOpFLZUoP1OArrjz/Qrf4ge8z/+Mc/mppbwI75b0yFIQcCIAACgSYA5zzQxNEfCJQn8EH5Q74def755327sJqruraNo94dm1dzFU67kcCLHy6nrfuTHDHtqsFdaMJjt1LLJvUd0a+t9PKBnVRUzlqNkHYVkFDiCgJpGTn0+H8WFJU70zRIapfXr1M6dP3hW4dTs0Yxmt3Qc889R5Kl3aRxOPt4los3kYUMCIAACASDAJzzYFBHnyBQggDf1Z/JL42WNVasWEFnzpwpoc386c2X9TYXhmTQCEi5pEfemOvYSq+EiX/w5O00sFvroI3Rl46l8kCHFo18ubTKa2Sf7pLNzoUBV9k5ToKAQwQ27E6kCbM3qmqXpG9//enVxaXSJDP7rZf1Ue3jyJEjNvlVThcUFDytahCUgQAIgIDDBOCcOwwY6kHABwJZfM3nPlxX4SUTJkyo8Li/B0df1JVkJQTNewQkBFscdKfqGjeqX4fefGQc//B27w2cKwZ2Vpm4Bev3Ua5yHXkVw6AEBCwJSAnGHd+YrUBX1vXwPu3pJzdcRFE1I+mJe68gqW2u2X73u99Rfr5ZHjdOIvck26Jz91pzUNAFAiAAAlUQiKziHE6BAAgEiEBkZKQ46D8w6W7VqlUktV85fM9EvFhGflwlnT5L8YdQBrYYioeenEjJoFQOXx3Zr4MjVkdE1GDdHakbb4HYvPcYZeWY/WB2xDhW+gfODi0rebbtpY9W0HH+P0ADgVAjIBnPv45PpBsv7knRUXo//wZ1b01tmjWgwT3bqiJbvny58V5zHusOTrj6EzaIq7CjgQAIgIB3COh9OntnzLAUBFxHgH9EHGLn+gF++L1ZT1YVxowZQ61b24cdN2sYQzOW7XAdHxjkG4FdfGOlUf261MvB/AEdWzammy/pRVJCKf6wO27ktGkWSw/dMsw3SFVclZicRv/4ZGUVV+AUCHibwNmsXDqecpZGDdLLpi73hbu2iVMFw9+JdPPNN9OJEyeM9EZERNzJOg4YCUMIBEAABIJIAGHtQYSPrkGgBIFz/GPi4xKv/Xr6+OOP+3V9ZRf3aN+UenZoVtlpHPcAgb9PWUZfcPkkJ5tkZP6/uy+j9/7vVpK93sFuowbphLTP/3of8eIiGgiENIG5a/eS25MevvHGG7Rt2zbTefic95p/ZSoMORAAARAIJgGsnAeTPvoGgRIEOLT9NIfiSRie3+3gwYP08MMPU+3atf2WLSsgwfHLtx4qexivPUJAfMvlWw5Sq6YNikLQnTS7ReP6dBOvosuWiG0Hkugc1wcPRvvdHRerZIh+6eMVdCoVJdSCMYfoM7AEvt51lK4a3JVi69l/Z2hbLkngZNWcHWwT1bmcZHUcC4b6XnP5qpZwhQb8kP08OfwIzgcwd4wGAiCgRwAr53osoQkErAhwePp6ds73miqZNGmSqWgpudFDulHdWlGljuGFtwgU8vLv0+8uojlr9zhuuDjmP7l+MH35wj1051X9qFaA66I357JNvTq2sB7nsVPpyLdgTREKvEIgMyePHntrvmNJJG04PPjggyS1zU0af4e+ynKhEs4eU7NmzeEcVfcAP57nG/hT+LGcnx/kv7n8SOZHEj9O8CObjx/gv4v48R9+/gBzaGXCEDIgAALBJSB33tBAAARcQoC/UJ/kfefPmJgTExNDKSkpxDpMxEvJ/HniYvps+c5Sx/DCewQkidtffnI1XcM3XALVTqdn0eR5m2naku2Unet80rjvX9mPHrnzEuvhTZ6/mf4xFfvNrUFCgacI3HvtIJLa5G5pH330Ed19991G5rBjfpz3mcuHnRczOrZlp7ofj6E//wboz3/78V/Zr2PzO11W0tfz4z8cTSB3753/QOZO0EAABOwIIKzdjh+kQUCVAH8hH2Xn+pes1O8v5Ly8PLruuuuoVSv7m+VxnPUazrnq1AZFmeyflprdUv+7c+smAbFBoi6G9mpHt1zWiyL5RtHeI6cov+CcY33/+rYR1LKJRHbatVfYMT95JsNOCaRBwGMEtu5Por6dW1JbTqoY7CY3l8eOHWu8as7O7MP8Hbou2OOopv8obn3Y1mvYGb+H/z7K3/mv8OMxlruTX1/Bfy/gv5LMw+/fAWX6FnnJFHsD6/shP7KZz3Z+7dwHchkD8BIEQMB/Arb/+P73CAkQAIEqCfAX9kK+4MoqL6rk5JVXXknz5s2r5Kx/h+946qMix8o/KVztRgLiJD/3wGjeY6qXodnXcUr47OKNB2guh9h/HX+UChX3pTduUIcW/ON+irAsIyhO+ZjfT0AyOF8nFdeFFIHYmNr04VN38E2u+kEd1z333ENTpkwxtWEDrw5fxMJu2HfdkB3wTryK34md4U7sFHdiu84/b8fPg7ZvjO3ZwnbdzDYc5AcaCICACwnAOXfhpMCk8CbAzvlNTOBTUwqnT5+m2Fj7VZBPFm+n5z9YamoG5FxGQELcH/n+JXT7qL5Bs+x0WhZJRnRx1HceNCuRVNL4G7he89M/MrqPVVINfbxoK/39w+WljuEFCIQTgQu4Ssd7j91K0ZxDIhht4cKFRSVBLfr+mmUlb8sBdoYPsKMu+87FAc2y0FlWVLLnNWXHuyn3U/zgY825z478t8gJ57/BL2HBRlTRUtje73PCvQVVXINTIAACQSIA5zxI4NEtCFRBgBc6I6TueZsqrqn01KuvvkoPPfRQped9PSF1rK/+zbuUk2eUMdfXbnBdgAncMeq/e7QtF5utrU44kUortx3iLO/HaTs/kk77v01UHHNx0G3bj5//lDbtTbRVA3kQ8DSBmy/tRY/fc0XAxyDJ33r16kUJCQnafcsqego70mn8N42/U4v+8vN0ec0PaTX5ISvZ8ij7PJqPNRJHnGUlM3oMP0KlFfJAfvTdXvRQGRPGAQIhQQDOeUhMIwYRagTYObdKDHfmzBniHxPWWJ5+bxF9sdLZmtnWRkKBzwRkVey139xAg3sa3ffxuR+TC2VVvchR/+a/zvo3x1IoNSO7ylDzT/58J3Wx3EsvCexG/+Y9kgz3aCAQ7gSeum8U3TjygoBi+P3vf09yUxkt4ATy+XfCrIMwagAAQABJREFUGNSEDzh3dAgCVRKw//VepXqcBAEQMCTQksPbD7Os0d60devW0aBBgwy7/p+YOEv3/nXa/w7gmWcJSFj7iz+/li4fKJGX3mjnCgtJnPZT/JC/yVyDXJxpSTBXKyqS7rvuQuv95jOW7qC/vr/EG0BgJQg4TCCa/68mPvY96tG+qcM9/Vf9hg0baNiwYXwTDjfHAgK8fCdpvHo+jA/jLnx5NjgCAkEhAOc8KNjRKQhUT4Cd80/4qu9Vf2X5K6655hqaNWtW+RMGR2574kPan3jaQBIibiEgQRRPSQj4CPsQcLeMScuOn7/8Oa3deURLHfSAgOcJtIprQFOeup1i68kWa+caO4VFN5F37NjhXCfQ7AuB1TwXF/OFuEPiCy1cAwIOE4hwWD/UgwAIGBLgcLPxhqJFGdvT02VbnX2TfYho3ibw29tHwjGvYAplZX7zvqQKzuAQCIQvgWOn0unxtxc4vtXjxRdfJDjmrnifDefFgLtcYQmMAAEQIDjneBOAgEsJ8D6wpRzqZxxq9sEHH6iM7NphPagO165G8yaB+8cOpruu7u9N4x22+kBiCuUi4aHDlKHeiwTW7EigRev3O2b6/v376ZlnnnFMPxT7R4B/a7zAEnX9k8LVIAACThBAWLsTVKETBJQIcGK4X/IK+r9M1DVo0ICkrJpGYrhXpq6kD+ZvNjEDMkEk8L3L+9D/3X1ZEC1wd9frdh2hXYdOkpSR6tCiETXiuuk1IyOK9r/mF8h+90xKOJFGexKSaTc/Nuw+Sinp2e4eFKwDAQsCPdo1pTHDutM1Q7pR04b1LDRVLir7y6+44gpasWJF5RfhTDAI/IDD26cEo2P0CQIg8D8CcM7/xwLPQMCNBGI53CyRDTP6lbR+/XoaMGCA9bhOsZMy9pFJlMeJuNC8QWA0/7j+60+vtk6Y5o3RBsZKyVm1eV8i12nfW7SqmJaZE5iO0QsIOEigRZP6dB075GOGdqdOrZwv0f3OO+/Qgw8+6OCI3K+6Xr161LNnT2rdujXFxsZSTExM0UOO5+fnk1Rc+eabb4oeEmUg+/MD0OZwP9cFoB90AQIgUAUBOOdVwMEpEHADAXbO32I7fmpiy7XXXktffPGFiWg5mec4o/V0zmyN5n4CI/q0p388PLZoFdj91nrTQskYv5pDf79YuYuWbT7o+P5cb1KC1W4m0KFlI/rZuCE0alAXkmoOgWp79uyhH//4x7RmzZpAdRm0fqKjo6l3797Ut2/folruF1xwQdHfNm18L2eZk5NDixYtopkzZ9JHH31E8tqhVsDOeUvWfcoh/VALAiDgA4HAfRr7YAwuAQEQKE8gKiqqf2FhoXFMeUpKCkmIu22TJEE3/nEySRItNPcS6N+1JY3/3TiqHV3TvUaGmGWHj6fSv6avoiWbvgmxkWE4oUigeeMYevDGIXQ9V28IpFNeluXcuXPp4YcfpoMHD5Y95cnXTZs2pX79+lH//v2L/3br1o34BrvaeM6ePUuvvPIKPffcc06tpiO0XW22oAgEzAjAOTfjBikQCCgB/nJfzR1KLVK/2xtvvEEPPPCA33IVCTz5zkKatXp3RadwzAUEurWNo/88ejPVr1vLBdaEnwlSku3FD5fTwaSU8Bs8Rux6AlJS8c6r+tPPbxrqmiSfsv985cqVNGnSJJo+fTplZGS4nqOshnfp0oX69OlTyhFv1qxZwGzfvXs3XX755ZScnKzap+S44WS0v1JVCmUgAAJ+EYBz7hcuXAwCwSHAzvkPuOfJJr03bNiw6AtcIzHcoaQzdOvjUxDCazIRDsu0bRZL7z12KzVp4FzCXcmuPGLECLryyisdHo131UtkydSvttHrM9ZQDjLBe3ciQ8zyJrF16dkfX0XDerVz7chkX/XWrVtp2bJltGrVqiKn/dSp4ERYt2jRgjp16lT86NixY/FzOafxfWo7EXIjY8yYMdrbA6Tm+Qhb2yAPAiBgTgDOuTk7SIJAIAnUYgf9KHcYZ9Lphg0biu7wm8iWlfnD+Lm0aINzJXbK9ofX1ROIi61HE/90K7WKs9++UFlvzz77LMlD2rBhw+jf//530V7Kyq4P9+Oyei7/K1KuDQ0EgklgQLdW9OLPr6XGXI3Aa01Whvft20cHDhwofhw7dowkvDs9Pb34b3Z2xVUUJKS8Zs2aRQ9JvCah53FxcUWPks/lmLxu3rw5iSNeq5Y3oo94yxuNHj2alixZojK1HMmwn3V2VVEGJSAAAkYE4JwbYYMQCASeAJdVe57v1j9q0rOsdspqhEaTklJ3Pv2xhiroUCBQr040vfvHW0hC2p1q48ePL9obWlb/7bffTk8++SR179697Cm8ZgIZ2Xn08Ktf0JZ9SeABAkEhMLJfB3rxF9dSdE29fc9BGUg1nYqTmpWVVbSifd4ZF8c8HBqHoZ9r0qRJamZmZhOF8Z7klfPmCnqgAgRAwJBAhKEcxEAABAJMgH98SNZ2o2xsEiIoZVk0mtTBvbhvBw1V0GFJIIp/cL/MP7yddMw//vhj+tWvKt6COHXq1KLMw0OHDqW33367aBXLckghJR7DN04kOZ+bQ4lDCjgGU4rAsN7twsIxl0HzzeviUmSy6h0ujrmMnW9GRHJyvUx5rtCcC79SMA4qQCAcCGDlPBxmGWMMGQL8g2M2D+ZakwFpllXbuj+J7ntuuokZkFEiIMmd/vKT0VybuJuSxvJq5s+fTzfccIPPWYHlB7LsR5cySWPHjiVJnIRGJGXX/u+t+bR44wHgAIGAEBjcsw299usbKDoqPFaPAwLVxZ3wandhnTp1IiSCwLaxrijWUWCrB/IgAAJmBLBybsYNUiAQLALjTTueM2cOyV49jdavS0u6sEdrDVXQYUjg4e+NcNQxlxrEN998s8+OuQxDfhguWLCAbrvtNmrUqBHdddddRdspNH4wGmJyhZhEOPz9Z2PoikGdXWEPjAhtAu1bNKSXH7oOjnloT3Op0fGN+4jf/e53pY5ZvDhnIQtREAABSwJwzi0BQhwEAkmA72jP5YQth0z7fPRRoy3rFXZ3/9jBFR7HQecJ3HlVP7rnmoGOdbRz50667rrrKDc317gPkZWw91GjRhUlWXrooYfo66+/JimdFI5N6kn/9SdX0wUdAlduKRw5h/uYa0ZG0At8I0i2VKCFFwGpGa/QslhHeH5IK8CDChDQIICwdg2K0AECASTAocN/5MRwfzPt8sSJE8TJY0zFS8n98M+f0I6DJ0odwwtnCVw1uAv97cFrKELi2h1ohw8fpuHDh5O8T5xokhH5kksuoSFDhpDsVR80aJBnMiNr8DhyMq0ooWJmTp6GOugAgVIEfnHzUMKN01JIwupF586dST7DTRvfPN3JkU69TeUhBwIgYE8Am5HsGUIDCASUAH957mEHXW6R1zTpWDLaSm1UjdaYa+fOX7dXQxV0+EBgYLfW9PIvryNZHXOiSdmiSy+9lI4elap9zjR5/8XHx9PChQtpwoQJ9MILL9AXX3BG8y1bipIWig35+flUt27dkNyzHluvNjVrFENLNukkaHRmlqDViwR6d2xOz9x/lStqcHuRXyjYvGjRItq/37zUKd/4X82/MaaGAguMAQS8SsCZpRev0oDdIOARAry/7AM29S5Tc1NSUqhBA/ukrBKhfPtTH9L+o6dNTYGcjwQ6t25M7/3frVS/rjP1d6VusKxob9++3UeLnL+sYcOG1L59e2rZsiXVr1+/yGGPiYmhl19+uahusfMWONfDn96eT3PX4saWc4TDS7Nsm5j6zJ0knxOBbGezculUWiZ1bBnYfgM5Ri/1df/999OkSZOMTWbH/O+8cq63/83YEgiCQPgSMFp5C19cGDkIuIMA390ez1+ixs75Sy+9RM8++6z1YCSy+v7rLizKRG2tDAoqJdCcV1pf/+2Njjnmsj9csqu7yTEXGKmpqUWPrVu3FrMJBcdcBvPY3ZfTtv3HKfFUevHY8AQETAmMHd4jYI75waQUWr71EK3kx5Z9SbxST/TQLcPo7tEDi56bjgFy9gTS0+0+T/i3xT57K6ABBEDAhgBWzm3oQRYEgkiAQ9u38BdpP1MTZKWUS6+YihfLFRZ+Szf/6QNKOJFafAxP9AhIYqf3HruVurTWyRNQ1jJOMliUlX32bKnS5+5277330jvvvONuI/2wbuW2Q/Twq1/6IYFLQaBiAtP/chd1auXc6rU45HPW7KF56/ZRYnJahUb07dyCfnvHSJK/aMEhcNVVV9GSJUuMO+ffFMMLCgrWGCuAIAiAgDUB7Dm3RggFIBAcAuycS0HT6017l5BhSfxl2/jLnOrUiqJlWw7aqoJ8GQLRXILrX7+5gWQvqRONoy/ovvvuoxkzZjihXlWnvFc/+eQT4i0dqnrPK1u36wi9Nn01/Wvaavpk8XbauCeRCrg0XOumsSSl0Jxo7Zo3pE17jtExrJ47gTdsdA7r1Y5+MHqA+njTMnJoxtId9PwHS2n8p2tp895jJGHslbUTZzLo8xW76JtjKUVVCRpwfgW0wBL4xz/+QSdPnjTtNJdv1v6ahVHj3JQg5EBAgQBWzhUgQgUIBIlAHXZUDnHfRrWZ2LmnjIwMlaRbBecK6fpHJ9GJlIwgoQi9biVU9HnOyn7V4K6ODU5K60mYuNtbmzZtaMOGDRQXF6du6um0LHp2wle0glexK2q1o2vSZQM6FWXAdmI/79qdR+jnL39eUdc4BgI+EXidb+AN79Pep2t9uSgv/xy9N3sDTVmwhUyrCsgNrdtH9aUfc8nNBvWcyZPhy1jC6RpJtik33XnPuOmw57FzrpMt1tQCyIEACJAzywEACwIgEAgCBbxqHc2PUSadyapp27ZtaeDAgSbipWQkGVEUr2iu2n641HG8MCfw+++PpHEje5krqEbytddeo6eeeqqaq4J/unbt2iQZiDt27KhujKwE/viFT2nvkVOV6pYbT/sTT9Ony3bSmbPZ1IdDdsVh12ptmsXSCt67m5yaqaUSesKIQIcWjeh3379Eba/3oaQz9LOXPqeFG/ZTfsE5Y5Ky3WnbgeP02fKdlMvOfsdWjaguR1iFa8tjlvuOnKbVOxI4+iCPWsXZJ2Qty3LevHn08ccflz3s82v+TfAPfqz3WQAXggAIOEIAK+eOYIVSEAgYgYa8ep7AvdU36TE6OpokgUzNmvbORm5eAV33h4mUkp5tYgpkShC4m0NUf3P7xSWO6D6VMPY77riD5AaN29v06dNp3Lhx6mau332Ufv3PWZSdm++X7hZN6tNbj9xEbdmp1mqLNx6g378xR0sd9IQRgZ/dNJR+cv1glRFLOPpP//6pI5/hcgN3yAVt6Zoh3eiKgZ2pHufSCNV2Oj2r6Iaf3PTbl3CK9hxJpkNJqXSOV7TvvXYQ/fKW4Wo3U0oyvO222+jTTz8teciv57xq3oEFcIfdL2q4GAT0CcA512cKjSAQUAIcnv53Xj1/xLTTDz/8kORLXaN9tGgrvfjhcg1VYatDfrz+9aejHfnxJlBXrlxJkjRIaom7vT399NP0+OOPq5u5ZmcC/fa12SQ3lExaXGw9evORcWoJuOQeyS2Pf8A/4M+YmAOZMCbw4VN3UI/2Ta0JpGfm0m1Pfkgned+40y06KpJGcBj+iD4daEC3ltShRWPHPu+cHIvsv09MTqeD/H+7lx1wccblIVtlyjYJ8//TPZfTDSN6lj2l8jopKamo7KRpSDvfqN3Osn1VjIESEAABKwJwzq3wQRgEXEGgJa+eH2RLjDb2Sf3o06dPk+xBt22yMvC9Jz6Ek2EIcnDPNiT7R51KQBYfH08jRowoipYwNDFgYrfeeqtViGZlhu4+nEw/+tt0yjF0zM/rbdKgLn38zPepSWzd84es/uLGlhW+sBSuX7cWLXntJxQhCSos2+NvL6A5a/dYajETj+XEcX27tKD+XVtRP/7bpXWcK/apy02z5NQMOsrZ6Y+eTKcjJ/lv0XN5nUZpmTk+DTg2pja9/NC1NLBba5+uN7nowQcftKpkwc75X9g5f8Kkb8iAAAjoErD/RNe1B9pAAAQMCLBz/jaL/cRAtEjkyy+/pDFjdPLAoDyU2Sx0bRtH7/3xFsfCPWVlZejQoZSYmGhmYACl+vbtS6tXrybZb67ZZEXrB89OJckqrdEkTHf878aprPrJfvarfv0uFXpgq4EGO+iwJ3Bp/470j4fHWiuSveH3/nWatR5NBZJETioltOGHbCGR3AytmzaghuzIS0h80aN2NNWM9O+msuyjT+Us9PL/liqP888zsvnYd8f5+anULEo8lUaSHM+mdWjZiP71q+uL7LfRU5Xs3r17qXfv3jaJ4L7lkPbu3AdqnFcFGudAIEAE7DeaBshQdAMCIFA5Af5ifZEd9Pv5Cv9+qXyn8v777y9y2qQsmm27uG8HktI+EjqM5hsB2ccsK+ZO7cOUmvZy8+X/27sPMCmKtIHjL8susIDkZZEsCCIgwUAwoSgiCgpmMXLmM6Oe4fTM+pn1TGe4O5DzDKgYMIuIKCpJJUnOOWc24vfW6HoLbJjpqp7pnvn387SzO9P1dtWvR3beqeqqMCTmWVlZYr4scp2YmwmZBj/zobPE3FxZs/za0I8nRe4jje5Kl35U7b0ypXXTemJ69tkQiEbg4DaNozms3GP++/lP5R4T7wPMMPvN21bLLwvLXhbMDJGvrsl6VZOo6+gvs/xhoU7iaCak++3nXyP3epvnzOSO5t+BeG2n9GgXmTukmtbNr83MG3L11VfbJOamambCCxJzvy4ScRGIUcDTB/kYz8HhCCDgv4D5w+p5sWqzLurYsWOd1XLwWUfoMHn7RN9ZhQIcyHxwMz0rWbWq+VJLc2/5gAEDZNq0ab7Edxk0IyND3nvvPWnUyP3wz/uGfClTtYfQ9fbciO+1h22zk7CmJ54NgWgFDmpj//+Jucd81MR50Z4ycMeZnm0zCakZZr5w5YbI44p1WyJfwpmRMhu1F9zcG75dJ36MV2KeXae6PHvDyXL7BT3Fz8TcXAyz6saoUaOsrot+Kf+kVQAKI4CAUwGSc6ecBEMgcQJ6z/j/2Zz94osvdjZ7t1kP+rSj2ttUJyXKmi8wHrrieNm3cV1f2mt6VQYNGiRfffWVL/FdBtW6rhgyZIh06dLFZdhIrKGfTJaR42Y6j2sCmt64Vz6e7CR2Nx1xwoZANAKVdTm/1o3rRXNomceMnjw/0rNc5kG8GLXAgCPbyVv3nhMZPRZ1IY8Hfv7553LjjTd6LP1bMf13d1pBQcEXVkEojAACTgVIzp1yEgyBxAloD6nJED73WoP58+fL5MlukgxTh8v7dxUzYRFb6QJ/GdhDDtVZi/3abrnlFl8mVXNdX/2AuPj+++9vcOaZZ7oOLWOnLJSnh49zHrd4wPe+mVHiDM3Fj4nm5846IZYZpsuGQHkCZn1zF6OTJuqSgmz2ApHe8sEnyx0Xam95HJaJmz59upx++um2w9l1vgx6ze2vPhEQcCtAcu7Wk2gIJFRA/9Ba9Z5fconnOeX2aHet6pnO1t/dI3gSPDGwV0c5o+cBvrXEDHd87LHHfIvvMHDhE088kaVfJDi/D8Ks23zbC5/6PsmaGVr7+qifrUlMYt6hZQPrOARIfoH6te1vgzFzD06atTz5sXxuYf8j2v7WW94+PiNf1qxZI3379pWtW60ntlyt89W86jMP4RFAIEYBkvMYwTgcgSAL6PC0L7V+473WccqUKTJp0iSvxfcod9axHaVpdq09nk/1J47o2FzMffl+bW+//bYMHjzYr/DO4poJCF9++eXca665JtNZ0N8DmWWOrvv7SNm2I8916BLjjfnJrGZov+3X1H7NavtaECHoAtm1q1tXceHK9ZF7sq0DpWiAook8/zbomLj0lhvmnJwc6devnyxZssRaXUcsmS/zo1sPzvpsBEAAgWgFSM6jleI4BMIj8IBNVU899VRn956bZW5uPNu/JNSmnYkq21qXTHvw8uOdrE1cUhu++eYbOffcc51dw5LO4eK5GjVqyPDhw/MvvPBCNwuFF6tUoc7Y/JfnPo5MDlXsaV9/nLdsXWRiKtuTdG7d0DYE5VNAoL6D5HzZGjcTGaYA9y5NNCsrmL9r7z54nq+3Je1yUv1Fk2k577zzZOLEibu/FPPvGmu+rmv+bMwFKYAAAr4LkJz7TswJEIivgA5Te0/POMHrWZcuXSpvvfWW1+J7lDNLq/Xp1nqP51PxiXo1q8lT1/WTqpUzfGn+L7/8IieddJKYGdqDvJ1yyikyc+ZM6d+/vy8Qj/z3a5nwS3zvpTVDhCf8Yt+b1Ty7dpAvHXULiEB9nRHcdjMztbNFL2DuJTdzqXzw8AUysFcnqZQe3/khrr32WhkxYkT0FS7jSB21dKu+HJ9hRWXUg5cQQGBPAZLzPU14BoHQC+gf3r/aNMJ8O5+X5+7v9o1nHynmHvRU3qro7MpPXdtXXAxHLclxxYoVcvzxx8vmzcHtDWvTpo2YIfdvvvmm1K9fv6RmWD83fPRUefPLqdZxvASYq73ntpsZKsuGQHkCLv4dWbWe5Lw8Z/O6mQvivN6dZeRDF8ilJ3Xx7cvV0upivmw1q24899xzpR0S6/Pf65f4b8ZaiOMRQCA+AiTn8XHmLAjEVUDvPTezto/xelItLw88YDU6fpdTFw0D3OXJFPolTe+tvv/S3rJ/c38S0i1btkifPn1k2bJlgVPVJf5MD7l88cUXkbXWTz75ZN/qOEFnnn741a99i19e4C3b7b/QMl/isCFQnkAdHVptu62i57xMwor6b9cpPdrJ+/93vlx/5uFSs3qVMo/348X169dLr169ZNiwYc7C65f3NzgLRiAEEHAuQHLunJSACARDwLb3/L777pN16+x7Aos0Tui+X1zvzys6bxAerzn9UDn6wBa+VMX0qgwYMCCS+PpyAo9B69WrJ2YpN7NEn7lN4qijjvIYKbpiS1dvitxnbu43T9S2Lcc+OU9U3TlvuAQyHAypXrNxW7gaHafa6nep0rtra3n7/nPk9gt6iov7+71UfdasWdK1a1cx84g43Ibrl+/jHMYjFAIIOBbgK3rHoIRDICgC+gf424oVK36k9TnBa50uvvhiZ/e4mTr89fyj5fTbX5XtucG+J9qrV0nlTM/L+ccfWNJL1s+ZCYLMcMevvvrKOpaLAO3bt5cTTzwxspsPlfr+cxG23BhbdUb2a58aKZu2Jnbi4cLCxH0xUC4SBySVwE4zyYHlVsD7dRdBs7JI30PbyIm6753g20u+/PJLOe2001zfprRJh7Nfv0uj+QUBBAInQHIeuEtChRBwJ6BDim/XGVn7aERPa0h/8MEHMmPGDGnbtq2TSpkPPFed2l0e1gm7UmHr2raJ3HreUb411UwQ9Prrr/sWv7zAVapUkWOPPVZOOOGEyN64cePyijh/fefOX+WWf3wiC1asdx471oAtGtaJtcgex5svXNgQKE/AvO9tt4ppnv4s2J42UOX3qlpZjuvSSvodtr90aNkgEHV76aWX5MorrxT92+26PtdqwODd++S6lcRDIOQCJOchv4BUH4GyBHTI84/ae/m2HnNaWceV9Zr59n769Omiw+TLOizq1844poN8On6O/Dx3RdRlwnjgPnvXkUeuPEHMfYt+bE8++aTLCYKiqqJJxrt06SKHHnqoHHnkkdKjRw+pXLlyVGX9OuiJN7+RcVMX+RU+prgu1igvJDmPyTxVD3bRc27mg0jFzfybfOgBTbWXfH/p0XmfuM+6Xpq5ScZvuukmeeqpp0o7xOb597XXfKhNAMoigEB8BEjO4+PMWRBImID+Qf6bJugDtAKexhjPnj1bPv7440jPqItGmMnRHryst5x91+uyaVtihyG7aE9JMcwEeH+/vp9U16V3/NjMiAbzIc7vrVmzZtK9e/dIMm4eO3ToELeh6tG07d2xM+TVz36K5lDfj8nU5fFc9Lwx1Nj3S5UUJ3CxjFdFR1+4hgHU/FvcqVVD6dauqRyv95PXqWE/oZ7LduvEb7/qKikVPv30U5dhi2Kt088Blxb9wiMCCARbgOQ82NeH2iHgQuAXDfIf3S/wGuzMM8+MTA5XqZKbZNMsF3X3RcfKdX8f6bVKgS1nPjQ/fvWJ0qheDV/q+NNPP8nAgQPF9fDnjIwMOfjgg/9IxE0ynp2d7UsbXAQdPXm+3D90tItQTmKcqSNCXMzmnJ9f6KQ+BEluAbPmtu2WlsTD2uvVrCadWzeUA3U3j/s2rivmi+Egbu++++6vl19+eYW1a9f6Vb0/a+BVfgUnLgIIuBUgOXfrSTQEAimg35rfrb3nA7VyGV4quGPHDrnhhhvk6aef9lK8xDJHdtonsnbssE9/LPH1MD5pPvvdpV86dNx3b1+qb9Yy79evn5jr4WIzE7iZtdF79+4thx12mLj68sVF3cqK8ckPs+WOlz6XRM7MXrx+1apUkgscTfqXm19QPDQ/I1CiQNUqnv4p3yXWZf27ipmxfcbC1bs8H8ZfzGRuJgmPJOTaQ964fs3AN2Pbtm07dNLVzOHDh/v5rcEb+vf/zcBjUEEEEPhDwM9/EP44CT8ggEDiBTQ5f05rcYVNTX7++Wdp166dTYhdypohvBf939sydd7KXZ4P6y9XDOgml/Q7xJfqm4T88MMPF3MNvG516tSJrJlrkvHjjjtOGjQIxgRIsbTnnTHT5IFXvhIX99zGct6yjjXLLZlZ+V1sZkm4k255xUUoYiSxwPcv/FkqZXi6U2kPFfPv73vfzJBRE+cF/lajWtUzpWl2TWnWoHbk0UzC2EG/DK1bo+oe7QryE2PGjFl6xhlnNHa5XOnu7dXRVXP1PvaD9flNu7/G7wggEFwBkvPgXhtqhoBrgfqaoM/WoJ67FMww58WLFzu973jFui16//lrsnlbruv2xjWeWcf9vkuO8+WcZqKgU089Vcy95rFsZsKnbt26RXrGdWK/zfvtt99eWj60/+6bURZPvPFNLAS+H9v/iLbyt0HHODvPopUbZcBtw5zFI1DyCZgROhNevsr5MG0zF+GcpWtl4sxlMmnWUpm1eK2s1H+f4/1FmBmJ0qQoAdce8KJEvGl2balRLbETUNq+m/Tf8rWXXnrp+iFDhrS2jVVO+c3aY95NjzG3tbEhgECIBBjWHqKLRVURsBRYrd+k36Ozrj/mNc6qVavkvvvukzvvvNNriD3KmeXV7r6ol1wf4vvPzVDKOx0maLsj3XzzzTEl5r169ZILL7xQ+vTpIzVq/HHv+x8/7B4/6L+b5ODp4eNk6CeTA1XVts3ryy3nHeW0Tjt/db58ktP6ESzxAnW0l9iP+6dN0t+6Sb3IPrBXx0hD8woKZdmaTWK+NFq+dotsz8mTHbn5siOv4PefCyQn8rs+l2ueM6+Zn/Mjs6BXz6ws5v74vXSvXlV3/d1MzlZdlzAzSbh5LvLa78/Xr11d6tYMVy94tO+IefPmjdWVLtpob7nfibn5R8TcxkZiHu3F4TgEAiQQ2h6UABlSFQTCJJChvalTNUHfz6bS+iFDzEzeLrfHtUf0PyG8/7yJ9uy8cvsZTiYDK8nTrHl7xRXl341g7hfX2X7luuuuk/3337+kUKF8zoysuOffo+SHGUsCVX8zvPa1u86S7DrVndZr7tJ1csbf/us0JsGSS8B8KfSfv52ZXI1K4tbol+Kr9d/lKc8+++yx8Wimnu8W7aF/KB7n4hwIIOBegJ5z96ZERCDIAvmamF+vFfzIppLmnuUZM2aIy3Vyrzv9MDH3237143ybqsW1rBli+dR1/XxLzL/44gu58sory2yTmWV98ODBcv3110u9evXKPDZML5re8te/mCLPvvNdpBcuSHU3s1w/dMXxzhNz08agTHIXJG/qsqtAdh1zdwpbCAQK5s6dO1JXvui8YcOGuCTmavIqiXkI3hlUEYEyBNLKeI2XEEAgCQX0PrSPtVkf2jRNP3DIP/7xD5sQe5Q1Cc//XX68HLRfoz1eC+ITZsm0x646UZrrxER+bL/88ovofeJi7jcvbevRo4dMnz5d7r///qRKzOcuWycX3v+WPPra14FLzM21uFa/SDpk/8alXRar53fu1Bt/2RAoQ8D1aI0yTsVL3gR2bt68+T1dmvKDNm3anKSJudthZqXXabz+fb+49Jd5BQEEwiBAch6Gq0QdEXAsoH/AB2vIPJuw11xzjaxe7XYJHjP78JPX9JU2TbNsquZ72fSKafLwn/v49kWCWe/2xBNPlK1bt5bYlmrVqsnzzz8vo0aNkhYtWpR4TBif3LYjT/7+1jgZeNfrMm1+MGfw/9OJB0eWAPTLt9DMysWGQBkCJOdl4CT4pZycnE90ro9hujLG8T/99NMArU5cPmfrUPbp+nf9RD1fToIJOD0CCFgKxOUfDcs6UhwBBNwLzNY/5n+3DWsmHNM4tmF2KW8mD3pm8Mli7uUO4mZ6+O+/tLeYddr92PLy8uTkk0+OzIpfUvyWLVvKDz/8IJdccklJL4fyOTMj9NOalPf9y1AZ8tEkMUvsBXE7t3dnuerU7r5WjZ5zX3mTIni2TprGFiwBTYy/HjRo0LPVq1fv9vnnn1+gtYvbtPL6N3iWjrAyS0asDZYKtUEAAS8CJOde1CiDQBII6B/ze/WP+iqbppg1t++++26bECWWrVMjU56/sb9k1apW4uuJetLMZnzXn46VXofs61sVzCzrJvkuadMhkvLdd9+JeUyGbcLMpXLDMx9J35uHyr81Kd+0LbidPmf07CCDzzzcd/bCgH4x4XvDOUHUAg0cT0IY9Yk5cA8BHbI+84ILLvi0cuXKnYcNG2YmCKm1x0E+PqF/w+fp3/Keegqrv+U+VpHQCCAQowDJeYxgHI5AEgls1snhbrVtj1la7fvvv7cNs0f5hvVqyLM3nOzbZGt7nDCKJ24772jpe6h/ibFZou7NN98ssSZNmzYV7ZERHS5Z4utheXKbLsX01lfT5PQ7XpXLHh4hoyfP0/vq3Y6+cG0x4Mh2cvM5PVyHLTFeYcAtSqw0T8ZVwCw3xpZYgZUrV645++yz12ZlZbV59dVXe2tt4j5LnybmCzUxP1rPvTyxGpwdAQRcCmg/EBsCCKSwQIWKFSuO1/YfbGNgZgzXDytSs6b7oehLdAb3a5/8QBau3GBTReuyN5x1hJxzXCfrOKUF0A94oj0wJb6s10jGjx8vHTv+tvZwiQcF+MlV67fK2CkLZexPC+SHX5ZIXn5hgGu7a9VO1C9j7r7oWF/Wld71TL/9Nl6XjLv80XdLeonnEBAzeueHF68UM+8FW/wFZs6cuV2/kK76xhtvOL+lK5bWaGK+RBNz843hgljKcSwCCARfgKXUgn+NqCECfgr8qr3n1+gf+m/1JJ6/rMvPz5eePXvKhAkTnC6vZhpu7j0f8tfT5abnPpIJvyz106LU2Fee0s3XxPybb76Riy66qNTz33777aFKzM0yaNPmr5KxPy+Qr39eKHOWhPNWyEEnHCRX6j3maSYjitPGhHBxgg7paerUqEpiHudrp/OAFP73v/+toJNwpk2aNKlqnE+/x+n07/VsTcyP1xdIzPfQ4QkEwi8Qv08c4beiBQgkrYD2zL6ojbOeYeyGG26Qhx56yBcnM0nYg8O+khFfT/clfklBMytnyK3nHeXrUPZ58+ZJt27dRO9dLKkKYiaAM2vKm97zIG8btuyQiXoPuUnGv52ySDZu3RHk6pZZN7NM3h0X9hTTax7v7dupi+TqJ96P92k5X0gE2u2TLcPuOCMktQ13Nc2/uy+88IK88sorsmXLlqA05mudfM7MAr8+KBWiHggg4FaAnnO3nkRDIJQC+sf+xrS0tN7ai97UpgGPPfaYmBncjzrqKJswJZY1wzhNwtSsQS35+/BxYnpn/dxaNqoTWS5tn739u8d706ZN0rdv31ITc9O+wYMHBy4xN/bzlq6TKfNWys9zV0QeF6/a6OfliFvsutoz+djVJ0qHlg3ids7iJ2JCuOIa/Ly7APeb7y7i9vcpU6bIiBEjIvu0adPcBrePNkz/Vl+sYayWQbWvBhEQQMBPAZJzP3WJjUB4BDZrcn6JDpf71LbKvXv3lhUrVvg2cdn5xx8YSZweeOUrmbtsnW11Syx/0mH7yy3aY16lkn//RBYUFMgpp5wic+bMKbEO5knTW37++eeX+nq8XtiyPVemaiJelIybIetmYrdk21o3qSdPXtNXGtSN+9xOf1AyIdwfFPxQggAztZeAYvGUDg+XcePGRZLxd999VxYtWmQRzb+i+rf5Tq3rPf6dgcgIIBAUAf8+eQalhdQDAQSiEtBk8TNNBl/Sg62Gt+s3+3L44YeL6YFIT/fnn5hOrRrKa3efJa9+9pO8+N542Z6bH1UbyzvIDGO/5dwe0k+Tc7+3yy+/XMaMGVPmaTp16iSZmZllHuPHi6s2bJUfpi+J9IqbnvEFK9br5Ed+nCkYMc0t5WaptGtPP8zXL2Siaa3fI0KiqQPHBFegPsuoWV0ck4zrpG6RFUbMXB8fffSRrF0b6DkxcrXBF2m9X7VqOIURQCA0Av58cg5N86koAggUF3A1vH327NnSr18/+fDDD51PEFdU34ppaWJ60Xt3bS2P/vdrGTVpXtFLMT/WqFZZTj+6g5x9bEcxa6z7vT388MMyZMiQck9jvuSIx5abVyCTZi2T76Yvlu+mLZb5y1PndsZGWTV17fpj5KD9GsWDutxzmOSBDYHSBBqwjFppNCU+v27dukgibpb7NLtZ9WLbtm0lHhu0J7W3fJF+YX6WTrjqfq3SoDWW+iCAwB8CJOd/UPADAgiogLPh7WZN7kGDBsnQoUN9hc3WD6uPXHlCJKH85IfZYvaluvxaNJspa5ZHO+Wo9lJVe83jsb399tty2223RXUqM1GcX5uZQb0oGf9xzvJQLW/mwsT0lpsvZK49/VAxIyaCsjGsPShXIpj1yKbnvNQLY24V+umnn3ZJxhcuXFjq8QF/YZh+UXeV7psDXk+qhwACjgVIzh2DEg6BsAu4Gt5uHMza3Q0aNPBtBvfi1i0a1pE/D+gW2actWCWjtSd9+botsn7Tdlmr++ZtOdIoq4a00vuKWzWuq3s9OUAn/YrnesGffPKJDBw4sHi1y/w5Ozu7zNdjfXGCzqb+wTe/yPc6ZH3tpnD0HsXaxmiON++Vm/X2hUPaNI7m8Lgew4RwceUO3cmy6yRuPoSgYGmPsqxevVoWL14sc+fOlYkTJ0YS8smTJ4tZ1jPkmxm2dLmOYhse8nZQfQQQ8ChAcu4RjmIIJLOAq+HtxsjM4G4S9Ouvvz5uZO11uSGzB2kz95ebCeDMPfnRbjp7frSHlnvczEVr5LYXPpV1+kVFqm6m1/GK/t0iS+OlpbmzdenJOucuNZMrVpr+e5BVq5qTRj311FNi7rk291ub3Uw+2apVK2ndunVkb9OmTeSxdu3aTs4XS5Dc3FxZunSpLFiwIJKAmyTcTNRmHs2+ZMkSMb3kSbh9pn8fBmm7lidh22gSAghEKUByHiUUhyGQYgLOhrcbt5tuukn23ntvOeuss1KM8bfmmvsczT34eXmxzXBuhmQeccQRTszaNMuSt+47R55881sZ+e1MKUyhe5trVq8iF514sJxxTAcxa5gHedu5M4ln3gsyfAjqVkeX+XMx0sckvjfeeKNO8rjre62kpcNq1Kgh++67b+Tf7/r164vZzYieop9r1qwp5ktEkyyb3Xz5aHYT2/yek5MT+b3o9aJHc4zp5Tb3f5v6FE++169PnTkvfn/bbVOvW3QI+7P6+64XJQTvS6qIAAJuBUjO3XoSDYGkEdAPUWb29he1QZe6aNS5554b+UDXs2dPF+FCE8PMWn/88cfL9u2x91h/9913ct555zlra81qVeTOQcfI5Sd3lf989qOMGDPd2Uz3zirpMJCZ7O00nU/A7NUyKzmM7F8oJoTzzzbskV3db24m6tw9MS/NZvPmzWKGi7P5ImBmf3xFv6i4Qx+X+nIGgiKAQOgESM5Dd8moMALxE9APDdfr+ueHas9IexdnNUnq2LFjpWvXri7CBT7GrFmzpFevXmI+4HrZzOzCfmzmQ/4NZx0hl57URYaPnhpJ0pet9VZHP+pnE9MM/T2sQ7PI0mjd2zcV83uYNiaEC9PVim9dXSXnZu4LtoQLjNS/r7dqLaYlvCZUAAEEAiUQrk8tgaKjMgikjEBr7UGfoK2t4aLFZgjk8OHDpX///i7CBTZG0ZD0FStWWNVx06ZNUq2am/tMy6rIrMVr5EudRG/05Pkyd9m6sg4N5GttmmZJj84t5KTD95e964Z30qzXv/hZHtalAdkQ2F3ALPV408Ajd386pt9Nj3mtWrVCs5xYTI0Lx8Hf6d/Am3Vk2thwVJdaIoBAvAXoOY+3OOdDIHwCs7XKZpKat11U3Xw4PO200+See+6JekkxF+eNZwyTkB9zzDFim5ibOpul184//3zfq7+fJrdmv0JnvF+iS9H9OHu5TJm3QqbMXRlZpm7nbven+l6hck5g7h0/ZP/GcmSnfSK7WRYv0duOHTskMzPTqhpBc7ZqDIWdCrjoOTeTv4VlnW+neIkPNlGrcL/2lr+b+KpQAwQQCLIAPedBvjrUDYEACaSnpz+qifUNLqtkJogz66CbmYKTZZs/f37kHnPz6GKrUqWKbNiwQTIyErcW99YdeTJt/ir5ee4KmblodSR5N8Pgc/PiN2NyfU2+27fIjix/d4A+tm2eLVUqBef75RkzZsi3334rl1xyidVlH/bpj/LEG99YxaBwcgo8eFlv6d21tVXjfvjhBznssMOsYlA4agEzBOk1vTVsqE5+Z5JzNgQQQKBcgeB8sim3qhyAAAKJFNBheLdoEt1F6+Bm+nAN9Prrr8ucOXNk9OjRUrVq1UQ2z8m5zb2cZgI3k0y72sxsxw8++KD87W9/cxUy5jjVdTK1bu2aRPaiwqYjfc3GrbJszWZZsmaTLNXe9qJ9w9YcycsvkFzdczSBz8svLCpW4mONapWlXs1qkWWi6ulSUWa5KLMXPWfWp3e1hFSJFbB80lz3M888U+666y7LSCLM1m5NmLQBXKxx7upLw6RFtm+YWWj9Q92Hai+5eczXR/uoREAAgZQRIDlPmUtNQxGwFijQDxlnai/AZL1nroF1tN8DTJo0ScyaumZm8kaNGrkKG9c4ZnmgO+64Qx555BFfzmtuAbjgggukWbNmvsT3EtTMs2Z6s83euXXDMkOYRP63ZL0wkrCbHvccTdwzK2dIlibllTLCO3LCrBddtCyVixEgqbTEXZlvGl7cQ8DFsHYzwoPNF4GJOrJsqK628JpGD9+kHb6QEBQBBLwIkJx7UaMMAqkrsEKT8zP1Q8goJXD278fy5ctl//33j9xfbWY3D9Nm1ug1w/P9mlm9yKJ79+4yd+7cUI4wMIl8ZR2Cbnb9qahJoX40X8hceeWV8s9//vOPduitH3/87PUHZmv3Kpfc5cyqA/Vr208MybJo7t4n+ndwmUb7jybkr+gj33q4oyUSAiktkJbSrafxCCAQs4AmJV/rh5LbYi5YTgGzDnifPn0iPcRbtmwp5+hgvGzWC+7UqZPviblp7erVq+Xwww8Xhkgm/tqbif7Ml0jFE3NTKxc956xznvjrG8Qa1KlRVSqm2X9k++mnn4LYvLDUSf/0/WqS8Gd19Nhx+v9qU91v0d9JzMNyBaknAiEQsP+XPgSNpIoIIOBWQD+QmPHbw91G/S3aq6++Kk2bNpWXX35Z9IOQH6ewjqmT+8hNN90kJ598smzcuNE6XrQBpkyZImeccUZgXaJtR5iPe+2116R9+/YyduyeKyG5SM7pOQ/zu8O/ujeoY78agfn31HzJxxa1gJnxcoIm4o/r4wD9YrS+/u1rp49X6ZfUn+tzO6OOxIEIIIBAlAIk51FCcRgCCOwqoB9QzPpeo3d91s1vpuf88ssvl4MOOkimT5/uJqijKOPGjZNDDjlEnnjiCUcRYwvz3nvvRWYED+oXF7G1JjxHm6Tm1FNPjUz4Z9aeL2lzkZwzIVxJsjxX30Fybpb649+NMt9LO/TVr9ToXtMzrn/jauveRRPxG/TRLIG2tszSvIgAAgg4ECA5d4BICARSVCBHP7CcpG0f71f7TU9xx44d5dJLL5VED3UfM2aMnHDCCXLkkUfKtGnT/GpyVHGHDBkiffv2lby8vKiO5yA7gTfffFPatWsn5ouRsjYXyTkTwpUlnLqvueg5d7mKRJJcCTPs6UNNxm/RZPww/XtWS/ejtXf8b7/3jG9NknbSDAQQCJEAyXmILhZVRSCAAlv1w0wf/XAz1c+6/etf/5KGDRtGZsU2E7DFa9MPaZFJ6rp27SrHHHOMfPbZZ/E6dbnn+fTTTyOz3P/444/lHssB3gTWrFkjp59+ugwcODCq5fGYEM6bM6XKFzCrIthuq1atsg0RxvJ5+vdpllZ8pCbgT+jPf9bHY/XvVjPdTc94X/13/iFNxsfpMXzbGcYrTJ0RSDIBkvMku6A0B4EECKzXDzfH6YeeuX6e2wzJfPLJJ6V58+bSrVs3efrpp2X9+vW+nNKsLf7iiy9Gkl+zfrVZ7i2I2+LFiyND7K+//nox98GzuRHIzc0Vs0SaWeJvxIgRUQd10XNuvhBiQ2B3gQZ19tr9qZh/t/his6+e7BLdX9J9rP5bvzLmk/tboOD3vz8fa+L9d/35an08XhPvlrpX1f+n2uhjP03AB+vPz+ujWW1ksb9VIjoCCCDgTcB+3Rdv56UUAggkl8BK/dBzrC6z9o1+KGrsd9MmTpwoZh88eLD07NlTzj33XBkwYIBUr+6td0k/rMns2bPFLDP08ccfR/bNmzf73Qxn8c0XFe+//7689dZb0rlzZ2dxUy2QSYyHDRsmd955p3hJZFwk50wIl2rvuuja66LnfP78+dGdbLejNLH9Rp8yEy28XOylvTIyMvbV/2daaTLcUv/tz9ZH8w+wWe/N7FXNoz5X9Hs1/dsQeU6fL61jaLseb86zSY81/wBHfv799016rshz+lrRMRv13+4l+voC3c3kbX9s5v9lNgQQQCCMAiTnYbxq1BmBYAos0g9Ex2qCYqaxzopHFfWDnIwaNSqy/+lPf5LWrVtH7lE3Q+AbNGjwx56dnR352fQum6Tb9Dib+9mnTp0aefzll1/EJOiuN63fSv0g2cB13JLiLVq0KNKLfs4558gjjzwi9evXL+kwnitFwNxP/te//lVmzpxZyhHlP+0iOWdCuPKdU/EIF/ecz5plRnfHvG3TEiYZ3n3bov+emntqIvfVxJgMV9FyRQl8Bf256Bzu/xHevdb8jgACCARcgOQ84BeI6iEQMoFZ2oNi1n81s7jXimfdTaJuPnx6/ADqvKpan6lqMVgfzZI7cdvMUnRmuS9zr7TpATZfWLCVLGDeM2akxL333isTJkwo+aAYnnWRnNNzHgN4ihyaVqGCZNU2uazdZr6QjHXT/0eWxlomiuNz9Bizr4viWA5BAAEEUkqgtKFFKYVAYxFAwJ2A9qb8ZBJ0jZiyH7z0A+0s/YKil/bGf6EO77jTjS6S6cV64403pG3bttK7d2/59ttvoyuYIketXbs2MrqgVatWctJJJzlJzA2dm+Sc4bgp8jaMupl1a1aVimn2H9cWLDCjv2PbdOTPsthKcDQCCCCAgI2A/b/2NmenLAIIJKWAJugT9D7Frpqk/pKUDSyjUdrmBZocH6uHRKZGVoeL9Lk5ZRTx9SUz7L9Hjx6RNeNfeOEF2bjRrB6UmptZo/68886Txo0by6233ioLFy50CuFitnaGtTu9JEkRLNvBZHD6b5CY1Qc8bH70nHuoBkUQQACB1BAgOU+N60wrEUiEwDxNUrvriT9JxMkTcU79ALxE23yMnrv4B9qN+tzJ+lxCZ5j7+eef5corr5SsrCw5+uijI7Pde/ywnghaz+c0vYWPP/64dOjQIbJGvRny78f8AqaC9Jx7vkwULEMg28GQdrMChUnQY920TPF/y2ItzvEIIIAAAjEKpMd4PIcjgAACsQhs0p7jvtqj+Jh+yLs2loJhO1bbN0WT8BO13iV9mDUjCM7W/W3dzWRICdvMB/SxY8dGdrME28EHHyz9+/ePrOPeqVMn0RmYE1Y3Fyc27TP3j5sJ3swM9mayv3htLpJzes7jdbXCcx4XPecWq08wrD08bxVqigACSSBAcp4EF5EmIBBwgULtqbxOE5fpWs9ndQ939lcy9r80Mb9KX9pR8ssi+iXFR5r4HqmPI/Q+zkalHRfv54uWpbv99tsjPb9mKbauXbtG9sMOO0yaNWsW7yrFfD6zRNT3338vo0ePlpEjR3odvhvzeSmAQDwEsut4WyKyeN28jpLRf6tK+rKxeGh+RgABBBBwKEBy7hCTUAggULqAJqUvaQ/6bO3ZNL3HdUs/MlSvbNXaXqFt+080tTb34utxB+sXFWaSODPkP1CbtiOyfrxJ2J991nyPolPu16oVSdRNr3rLli2lRYsWYiZS23vvvUUn/ot7/VevXi1miL5Jxn/44YfIvmHDhrjXo6QT6vUt6emYnstIrxjT8Ryc/AIullFbsWKFJyj9f3yp+XeBDQEEEEAgPgIk5/Fx5iwIIKAC2oM+Rh+6aHL6uj4eEmaU34exn6FtiHXx4JX6Yfco/dB7n/ZKDdbygc7GzARyn376aWQvfr3MEO599tknkqybhL0ocW/UqJFUr15dMjMzI3uVKlXE7JUqVSpefJefddSBmBnUTQJR3u4iAd7l5A5/ycvLs46WXjH+X3hYV5oAvgrUr23fc+518kP9/41h7b5eXYIjgAACuwqQnO/qwW8IIOC/wHxNTg/V5HSwJqd36OnsP3n6X+fdz/CiJpTmHnqzVq+XLU/L/0WHub+mjw9qgN5egiSyjOlNmzt3bmSPth4mQS9K1k3ybhL8bdu2RYahmwQ97JuLLw4y0knOw/4+cF3/Bg5ma589e7aXaplvm1Z7KUgZBBBAAAFvAiTn3twohQACdgIFmow9rCH+ownaI/o40C5c3Epv0TNdponpay7OqMncjxrneE3SD1SPW/XnU3RP2uzM9Cyb3WJyKhfsvsWg59w32pQNnFahgtSrVdW6/dOnmyk/Ytt0dNByLRH7FO+xnYajEUAAAQSKCSTth8BibeRHBBAIrsByTXTP0R70HmaYeHCrGanZh1rXTq4S8+Jt1SR9ssY9Xfe2+vwQ3e1vXi5+An6Oi4CTnnMdTcCGQJFAvVrVpKKDuR2mTIn9n1f9d5kh7UUXgkcEEEAgTgIk53GC5jQIIFC6gN6L/rX2HB+oCfrVelQwZvf6X3U/1w+pvTRx7qtPzf/f0778NEvPM0j3Jmpxo57BTCDHFj8BM8Gf581JzznD2j37J2NBF/eb678lsnLlSi88S70UogwCCCCAgHcBknPvdpREAAG3AoWaoD+jiWlr/TD5gIbe6DZ8TNEK9OhX9b74zlqf4/TLgy9iKm1/8Cq1eEzP3UX3Fupxi+5mCDybPwLmej+j++U24V30nKfTc25zCZKurIuZ2r1+aUTPedK9nWgQAgiEQIDkPAQXiSoikGICazUx/asmpQ213WfqPkL33DgZbNEPpE/ouVvqfq4mWz/F6bxlnWaBejyk+4FaJ/PFxR26TyurAK/FJPCZunbU3Yza2BxTyd0OdpOc82d5N9aU/tVFz/nWrd4GhOi/OfScp/S7j8YjgEAiBPgUkAh1zokAAtEI7NCE6U3dT9E9WwsM0v0z3V0vumumCf9OE94b9TxNtZd8sP6+WPcgbnP0A/N9uh+gdW2ndb5H95lBrGjQ66RuP2sd+6mjmSl/xu/1tZoy3msPZXErZmsvrsHPLnrO169f7wlSv6gkOfckRyEEEEDAuwCztXu3oyQCCMRPYJMmUUP0dGbP0hne++vjoZpgHaIfIJvqz5bjOCIAADACSURBVHvpHs2WZ5JZLTNVH6eYR407UQuuiaZwwI6ZoUn6nVons3fQIfgDtD099OfOutfSna1kgU/Vydwy8HkJL1sl5256zpkQroTrkrJPZdexX2nS4/3mov+fMCFcyr7zaDgCCCRKgOQ8UfKcFwEEvAqs0cTqJS1s9qItU3/I1iXJsjVhNb3s9TX5rq+PJtnarh8yV2uZqfrzLN3N/cXJtk3Rdhefjrm5foHRWQ06aduLHpskW6NjaI+5LeJVfQ88ro+lrimlVjvVLIawux5Kz/muHvxmL5DtYI3zxYu9DQTSUUT0nNtfQiIggAACMQmQnMfExcEIIBBQgR1ar4Xac7kwoPWLd7UWaiJqLMz9+kVb3fT09E6axHfWJLSTJqHmcT99MWm7arWNC7R9Q7XN/9DHVUUQZTwGoOecu83KuD4p99LedaMdFFQ6zbx580p/sfRXzP8LK0p/mVcQQAABBPwQIDn3Q5WYCCCAQPAE1mlP2CitltmLtkwdbXCAJq+d9AkzHN48dtC9qu6h3DQh/0Ur/o6OHHhbv6yJdYZ7793melI3PedJ+11JKN9Piax0ZuUMydJ1zm23adNinz9S/z9arefNtz035RFAAAEEYhMgOY/Ni6MRQACBZBLYoQnseG2Q2Ys203XbuviweP3dJO1ZRQcE7NEkEJM0mRipXzK8oz+b5Fz0Z/MQ6+apUNFJXNxznlGRnvMiz1R/bFjPvtfcGH7zzTcxU+qomqUxF6IAAggggIC1AMm5NSEBEEAAgaQSMAnqTB0Wb2aBf61Yyxpqwm6Gw7fWyeea62Mz3Zvrh/hmekztYsf5+qOec76e8wd9HK/1GK+jASbrCXMcndQqOXfRc56eTs+5o2sZ+jAN69WwboP+fyyrV5tO8Jg3kvOYySiAAAII2AuQnNsbEgEBBBBIBYHl+kF/uTb0oxJ6pU0W0UyT90jSXpS8m+c0ia6jjxm6V/h9N13D5uc0TbIjj8Vf0+PN5G1r9KXF+rhYf19sftZ9kSbiZsmz9bpHthLqUfSS10er5Jyec6/slCtJoHFWzZKejuk5rzO160mYqT0maQ5GAAEE3AiQnLtxJAoCCCCQygKbtfFmWTozI77XIeVB8Et4cp7OsPYgvA8CUYdGWfY951OnRv6XjLk9+qUYPecxq1EAAQQQsBfg5jZ7QyIggAACCCSHgFVy7mJYewbD2pPjneSgFS6Gtc+cae5OiX3TkSr0nMfORgkEEEDAWoDk3JqQAAgggAACySCgCYlVcu5iWDs958nwTnLThkYO7jlfsMCsJhj7pv8v0HMeOxslEEAAAWsBknNrQgIggAACCCSJgFVy7qbnnD/LSfJesm5GQwfD2r0m5zq/A8m59RUkAAIIIBC7AJ8CYjejBAIIIIBAcgpYJedues6ZrT0531qxtapm9SpSrUql2AqVcLTX5FxDMay9BE+eQgABBPwWIDn3W5j4CCCAAAJhEbBKzl30nKen82c5LG8WP+vpYki7qZ/H5HyDFt3uZ/uIjQACCCBQsgCfAkp24VkEEEAAgdQTsErO3fSc82c59d52e7bYxUzta9askZycnD2Dl/MMM7WXA8TLCCCAgI8CfArwEZfQCCCAAALhEdDkutCmti56zpmt3eYKJE9ZFzO1e+w1F2ZqT573ES1BAIHwCZCch++aUWMEEEAAAX8EdtiEpefcRo+yxQUaZdUs/qunn+fPn++pnBZiMjivcpRDAAEELAVIzi0BKY4AAgggkDQCsY8BLtZ0F8l5RkUmhCtGmrI/urjn3GvPOcPaU/ZtR8MRQCAAAiTnAbgIVAEBBBBAIBACVj3nLoa1s855IN4HCa8Ew9oTfgmoAAIIIJAQAZLzhLBzUgQQQACBAAokvuec2doD+LaIb5UqVBDZu95e1if12nOu95wzrN1anwAIIICANwGSc29ulEIAAQQQSD4Bes6T75qGrkVZtapLpXT72xu8JucFBQULQodGhRFAAIEkESA5T5ILSTMQQAABBKwFzFJqeV6juLjnPJ17zr3yJ005F0PaCwsLZcmSJV5MftVCC70UpAwCCCCAgL0Aybm9IREQQAABBJJHwPPQdhf3nJshzRXT+NOcPG+n2FviYo3zZcuWiUnQY910MrgVWiY31nIcjwACCCDgRoBPAG4ciYIAAgggkAQCmpx4HtruoufcEGZw33kSvJO8NyGRM7Xr/eYMafd+6SiJAAIIWAuQnFsTEgABBBBAIIkEPCfnLnrOjSMztifRu8lDUxpm1fBQatciFmuck5zvSslvCCCAQFwFSM7jys3JEEAAAQQCLuB5WLtOpOWkaRkOJgNzUhGCJEQgkT3nOnKE5DwhV52TIoAAAr8JkJzzTkAAAQQQQOB/Ap57zr3c4/u/0/7vJ5Lz/1mk4k+Ns2paN9vrTO0Ma7emJwACCCBgJUBybsVHYQQQQACBZBLQ5MRzcm4cXNx3zrD2ZHpHxdYWc+2zaleLrVAJR5Ocl4DCUwgggEAIBEjOQ3CRqCICCCCAQNwEPA9rNzV0kZwzIVzcrnXgTrR33b0kzUzZb7l5Tc5Z49wSnuIIIICApQDJuSUgxRFAAAEEkkrAqufcxaRw9Jwn1fsppsa4WEYtJydHVq1aFdN5fz84Xx+XeilIGQQQQAABNwIk524ciYIAAgggkBwCie85r1gxOSRpRcwCDevZ32++aNGimM9rCuhkcEv0IfbF0T2djUIIIIAAAiUJkJyXpMJzCCCAAAKpKkDPeape+QC020XPuddl1JgMLgBvAKqAAAIpL0BynvJvAQAQQAABBIoJWCXnLu45T2cptWKXI7V+TOQyairNMmqp9XajtQggEEABkvMAXhSqhAACCCCQMAGrYe0u7jnP0Bm72VJToGFWDeuGe50MjjXOrekJgAACCFgL8AnAmpAACCCAAALJIqAJSgB6zvnTnCzvp1jbkciec4a1x3q1OB4BBBBwL8AnAPemREQAAQQQCK+AVXLuouec2drD++axqXlm5QypvVemTYhIWa8952lpaQxrt9YnAAIIIGAnQHJu50dpBBBAAIHkErAa1u7invMqldKTS5TWRCXgotfcnMhrcq7v3flRVZSDEEAAAQR8EyA5942WwAgggAACIRSw6jk3a0zbbtWqVLINQfkQCri433zTpk2yefNmL63froVWeylIGQQQQAABdwIk5+4siYQAAgggEH4Bq+zaY2K0i1r1qpV3+Z1fUkPARc+5115zJoNLjfcYrUQAgeALkJwH/xpRQwQQQACBOAnopFhbbE5lei5tN3rObQXDWb5RVk3rirPGuTUhARBAAIGECpCcJ5SfkyOAAAIIBEzAKrt20nOeybD2gL0n4lKdZg1qWZ/Ha8+5npjJ4Kz1CYAAAgjYC5Cc2xsSAQEEEEAgSQS053yjTVNcJOfVSM5tLkFoyzZPYHLOsPbQvm2oOAIIJJkAyXmSXVCagwACCCDgXaCgoMCq55xh7d7tU7lkRnpF2btuDWuCOXPmeIrBGuee2CiEAAIIOBcgOXdOSkAEEEAAgRALWCXnLnrOq9NzHuK3j7eqN9b7zdPSKngrXKzU7Nmzi/0W/Y+scR69FUcigAACfgqQnPupS2wEEEAAgbAJJHxYO8l52N4y9vVtvrf9/eZmGb+lS5d6qoyucc49557kKIQAAgi4FSA5d+tJNAQQQACBcAts1erv9NoEJ8Pa6Tn3yh/ack2z7ZPzefPmid477sVgvRbytDi6l5NRBgEEEECgdAGS89JteAUBBBBAIPUETHbjOVFxMaydCeFS703XrEFt60Z7HdKuJ6bX3FqfAAgggIAbAZJzN45EQQABBBBIEgHtffQ8tN1Fz3n1KiylliRvpaib4WKmdpLzqLk5EAEEEAisAMl5YC8NFUMAAQQQSJCA50nhXPScV9XkvIL93GAJouO0XgSaZieu55xl1LxcMcoggAAC/giQnPvjSlQEEEAAgZAK6LJSCU3OTWJuEnS21BAwEwDWqZFp3dhZs2Z5jcGwdq9ylEMAAQQcC5CcOwYlHAIIIIBA6AUSOqzd6DG0PfTvoagb0NzB/ebmZF6HtbOMWtSXigMRQAAB3wVIzn0n5gQIIIAAAiET8NxzXlhYKLm5udbNZVI4a8LQBGjawH6m9o0bN8r69WbS9di3goICes5jZ6MEAggg4IsAybkvrARFAAEEEAixgOeec9NmF5PCkZyH+N0TY9UTPFN7oVaX5DzGa8bhCCCAgF8CJOd+yRIXAQQQQCCUAjpBlueec9NgF5PCMaw9lG8dT5VO5Ezt+l5fpJXO81RxCiGAAAIIOBcgOXdOSkAEEEAAgZALJDw5p+c85O+gGKrfNNt+WLvX+8118kPPs8jF0EQORQABBBCIUoDkPEooDkMAAQQQSA0BTVgSPqy9RrUqqYGd4q00M/OTnKf4m4DmI4AAAsUESM6LYfAjAggggAACKmDVc24m57Ld6jpYWsu2DpT3X6B+reqSWTnD+kRee8537txJz7m1PgEQQAABdwIk5+4siYQAAgggkAQCNuucm+avWrXKWqFuzarWMQgQfAEXM7WbVs6ZM8dTY3UZNZJzT3IUQgABBPwRIDn3x5WoCCCAAAIhFbAd1u4iOa9Tg+Q8pG+fmKrdzMH95suXL5cdO3bEdN6ig3UZNZLzIgweEUAAgQAIkJwH4CJQBQQQQACB4Ajk5+dvsKmNi+S8Lsm5zSUITdkEL6O2VaGWhwaLiiKAAAIpIEByngIXmSYigAACCMQkYDUufeXKlTGdrKSD6TkvSSX5nmvWIHEztesyarOTT5QWIYAAAuEWIDkP9/Wj9ggggAAC7gU2a0hv44S1oJOec+45d39VAxgxkT3nLKMWwDcEVUIAgZQXIDlP+bcAAAgggAACuwtor6Ln7m8XyXn1zEpSKb3i7tXi9yQSSK+YJo3q1bBukdeZ2vU9zv3m1voEQAABBNwKkJy79SQaAggggEASCGivoueh7S6GtRvCOvSeJ8E7qfQmNK5fU9LSdKFzy23WLG85Nj3nlvAURwABBHwQIDn3AZWQCCCAAAKhF/Dcc56TkyPbtm2zBmBSOGvCQAdwMVO7zrYuCxcu9NROllHzxEYhBBBAwFcBknNfeQmOAAIIIBBSAc/JuWmvi6HtdWpkhpSOakcj4OJ+8wULFkhhYWE0p9vjGF2VgAnh9lDhCQQQQCCxAiTnifXn7AgggAACARSwuefcNMfF0HZ6zgP4xnBYpQTP1L5Mm2I/vMOhB6EQQAABBERIznkXIIAAAgggsKeA53vOTSgXPed1ued8z6uSRM8kMjnnfvMkeiPRFAQQSCoBkvOkupw0BgEEEEDAhYAmL1bD2l30nLPWuYsrGcwYaRUqyH5Nsqwr53Wmdj2xt1nkrGtMAAQQQACBsgRIzsvS4TUEEEAAgZQU0MmyrJJzJz3nNaqmpH0qNHqfhrWlmi6XZ7t5Tc5ZRs1WnvIIIICAPwIk5/64EhUBBBBAIMQCOllWwoe103Me4jdQOVU/oEWDco6I7mWvy6gxU3t0vhyFAAIIxFuA5Dze4pwPAQQQQCAMAlY95y6GtWfVqhYGJ+roQeCAlvbJ+erVqz1PPKhLsDGs3cN1owgCCCDgtwDJud/CxEcAAQQQCKPADq30Zq8VdzGsvVFWDUlLq+C1CpQLsICL5Pz777/32sJcLbjIa2HKIYAAAgj4J0By7p8tkRFAAAEEQixgs5zasmVmpSq7Lb1imjSsV8MuCKUDJ2DuNW/RsI51vbwm5/q+nqsn32ldAQIggAACCDgXIDl3TkpABBBAAIFkENAZ2z3fd758+XLJzTUdlHZbs+xadgEoHTiB9vtki5mt3XbzmpyzjJqtPOURQAAB/wRIzv2zJTICCCCAQLgFPN93rr2TMm/ePOvWN2tQ2zoGAYIl4GJIe2FhoUyYMMFTw5ip3RMbhRBAAIG4CJCcx4WZkyCAAAIIhFDAc3Ju2up1maviTs0a0HNe3CMZfnaRnE+fPl127DDTIsS+0XMeuxklEEAAgXgJkJzHS5rzIIAAAgiESkB7GD0PazcNnTNnjnV7GdZuTRi4AAe0yLau03fffec5BsuoeaajIAIIIOC7AMm578ScAAEEEEAgjALaw7jQpt5ues4Z1m5zDYJWtkn9mlKreqZ1tbzeb25OnJ+fP9u6AgRAAAEEEPBFgOTcF1aCIoAAAgiEXUB7GK1uGnfRc16/dnWpXCk97JTU/3cBF0PaTSiL5Hy1Fl//e3V4QAABBBAImADJecAuCNVBAAEEEAiGgPYwWiXnLnrOzaTeTZmxPRhvCAe16NauqXWUDRs22NwyMcm6AgRAAAEEEPBNgOTcN1oCI4AAAgiEXGCN1n+L1zasXr1atm7d6rX4H+W47/wPilD/UCm9ohzVuYV1G8aPH+85hs6j8K3nwhREAAEEEPBdgOTcd2JOgAACCCAQVgFNZubb1H3u3Lk2xSNlmbHdmjAQAQ49oJlUz6xkXRfLyeBIzq2vAAEQQAAB/wRIzv2zJTICCCCAQMgFdFI4q+TcxdD25qx1HvJ30W/V792llZN2WNxvnl9QUOC9291J7QmCAAIIIFCWAMl5WTq8hgACCCCQ0gLac25137mLSeEO3K9RSl+DZGh8FZ3U78hO+1g3RZNrseg5/1ErsN26EgRAAAEEEPBNgOTcN1oCI4AAAggkgUDCe873rruXMLQ93O+kIzo2l8zKGdaNGDNmjGzbts1THB0FwpB2T3IUQgABBOInQHIeP2vOhAACCCAQMgHb5dRmzZrlpMUuZvl2UhGCeBLo3aW1p3K7F3rjjTd2fyrq35kMLmoqDkQAAQQSJkBynjB6TowAAgggEHQBHUZs1XM+depU0SXZrJvZ3cESXNaVIIAngWpVKsnhHZp7Klu8kBnS/s477xR/KqafCwsL6TmPSYyDEUAAgfgLkJzH35wzIoAAAgiER2CRVrXQa3Vzc3PFYgKvP057UJtGkl6RP9l/gITohx6d95FKGRWtazxq1CjZuHGjpzi/rzqw0lNhCiGAAAIIxE2Av/Rxo+ZECCCAAAIhFMjXxGaJTb0///xzm+KRsqb39YCWDazjECD+AkEY0s795vG/7pwRAQQQ8CJAcu5FjTIIIIAAAikjoImN1YztLpJzg83Q9vC95bJrV5fu7ZtaVzwvL09GjBjhOQ73m3umoyACCCAQVwGS87hyczIEEEAAgRAKWN13PnHiRM/DkYtbHXVgi+K/8nMIBC45qYuT2xHMFzxbtmzx3OKdO3dyv7lnPQoigAAC8RMgOY+fNWdCAAEEEAihgPY6WvWca3kZPXq0dcv3bVRXDmzNmufWkHEK0KR+TTn5iP2dnM1mlnatgLlRfbqTihAEAQQQQMBXAZJzX3kJjgACCCAQdgHbYe2m/a6Gtp95TIewc6ZM/S/v300qptl/zDKTCr733ns2bt9p4V9tAlAWAQQQQCA+AvZ/NeJTT86CAAIIIIBAQgR0CSrrXkdXyXnPg1pIfb2PmS3YAvs2riu9u7ZyUsmPP/5Ytm3b5jmWjtwY47kwBRFAAAEE4ipAch5Xbk6GAAIIIBBCgVlaZ+/ZkRZesGBBZLdtu+mJPfWo9rZhKO+zwJWndJe0ChWcnOXNN9+0iqP3m39gFYDCCCCAAAJxEyA5jxs1J0IAAQQQCKnATq33z7Z1HzlypG2ISPlTerSTjHT7dbOdVIYgewi0b9FAenTaZ4/nvTyxadMmef/9970UjZTRXnMz6mOG5wAURAABBBCIqwDJeVy5ORkCCCCAQEgFJtvWe9iwYbYhIuXr1qgqA45s6yQWQdwLXHVKN2dBX3jhBcnJybGJZ9ftbnNmyiKAAAIIxCxAch4zGQUQQAABBFJQYJJtmydPnizjx4+3DRMpf1HfQ6RSBr3nTjAdBjmkTWPp0raJk4hbt26VRx55xCqWDml/wyoAhRFAAAEE4ipAch5Xbk6GAAIIIBBGAZ0Uzrrn3LT7mWeecdL8rFrV5IyezNzuBNNRkCqV0uXW849yFE3kySeflA0bNniOp0Pap2hhM18CGwIIIIBASARIzkNyoagmAggggEBCBcx9u1bji03tzeRe69atM/ewW2+DTjhIMitnWMchgBuBwWcdIc0b1HYSzCTljz76qG0shrTbClIeAQQQiLMAyXmcwTkdAggggEAoBQq01qYn0morKCgQvY/Yyd/e2ntlytnHdrSqD4XdCBzRsbmc5nAWfZOYm2HtNhtD2m30KIsAAggkRsDJB4TEVJ2zIoAAAgggEFcBJ0Pbn3/+edEhx056z88//kCpnlkprgicbFeBxvVryt0XHbvrkxa/rV69Wp566imLCJGiX+t/59oGoTwCCCCAQHwFSM7j683ZEEAAAQTCK+AkOV+xYoV89913i10w1KhWWc7t3dlFKGJ4EKhZvYo8c/1JUqt6pofSJRd58MEHbWdoN4HdTG5QchV5FgEEEEDAJ4EKPsUlLAIIIIAAAkklkJGRcZAOFZ7oolHdu3ffMHbsWCc3KO/IzZcz/vaaLFuzyUXViBGlgJkt/4WbBkjHffeOskT5hy1btkz23Xdfyc/PL//gUo7QURnL9H3aXF82t2KwIYAAAgiESICe8xBdLKqKAAIIIJA4AU2YpurZvWdNxaquPee1dfjyuGJPef7RTAp378XHSloFvm/3jBhjwbS0CnL/pb2dJuamCvfee69VYv57M/6hjyTmv2PwgAACCIRJgOQ8TFeLuiKAAAIIJFIgT0/+s6sKXHbZZbM11q8u4nVq1VDOY3i7C8pyY6RXTJOHrugjxxzUstxjYzlgwYIF8u9//zuWIiUdm6e95i+W9ALPIYAAAggEX4DkPPjXiBoigAACCAREQIcMf+mqKu+//34XjTXCVbwrTukmLRvVcRWOOCUImKHsj199ovPE3Jzq1ltvlcLCwhLOGtNTZvm01TGV4GAEEEAAgcAIkJwH5lJQEQQQQACBoAukpaWNdFXHChUqtH3ppZde1nhOZm6vlF5R7r3kODE9u2zuBerUyJTnbjhZDu/Q3Hlw/aJG3nrrLeu4+v58wjoIARBAAAEEEibADWoJo+fECCCAAAIhFKio2yqtd10Xddee+Bu1t/QgjXW2i3gmxksfTJDnR3zvKhxxVMBM+vbQFcdL/drVnXusWrVKDjjgAFm/fr1t7Hf1vTTANgjlEUAAAQQSJ8DX64mz58wIIIAAAuETMOOOP3ZY7WtWrlx5n8azHs9cVKc/nXiQtN8nu+hXHi0FBvbqKC/dfIovibmp2qBBg1wk5js1Mb/dsqkURwABBBBIsADJeYIvAKdHAAEEEAidwAeuaqxD25s2btz4MI33iquYFdPS5DG9Lzq7jvteXld1DEOcJvVrylPX9pMbzz7St1sFnn76afnss89ccLyqQaa7CEQMBBBAAIHECTCsPXH2nBkBBBBAIJwCNXRo+1qteoaL6uvQ9oW6HdukSZNpGq+Ki5gmxrxl62XQA8Nl6w4zyTxbtALVMivJJf0OkbOP7SgZeh+/X9vUqVOlS5cuLpZOy9de8/20ngv8qitxEUAAAQTiI0ByHh9nzoIAAgggkEQCmpx/oc05xmGTLiooKDBj0R9wGFMmzFwqVz3+vuQXOBs177J6gYpl1onvf2Rb+fOA7mImf/Nz0zXupVu3brJ48WIXp3lOk/MrXQQiBgIIIIBAYgX8+0o4se3i7AgggAACCPgmoMPRa+t+vKsTaO/5AevWrTu3T58+x2rMxq7iNqpXQ9o2ry9fTp6ny3Q5mRTeVdUCFeeg/RrJY1edIKf0aC+ZlZ0MiCi1fTt27JDevXvLzJkzSz0mhhe2amJ+mh6/NYYyHIoAAgggEFABes4DemGoFgIIIIBAoAVaaO/5PMc1vEx7z7/SmD/p7rTrdvLsZXLtkyNlWw5D3ItfM/PlxXVnHu7LuuXFz1P0886dO+X000+X9957r+gpq0f9UucGjfm4VRAKI4AAAggERoDkPDCXgooggAACCIRJQJPzcVrf7g7rvEV7QTtrwnWixnzKYdxIqOkLVsl1T42UdZu3uw4dunhtmmVJ/yPaRYaxm/Xh47XdcMMN8tRTzi7teH2/mPcfQyLidQE5DwIIIOCzAMm5z8CERwABBBBITgFNzs/Rlv3Hceu+79Sp05ETJ078VOMe7Ti2rNu0XW578VOZ8MtS16EDH69mtSrSp/t+mpS3ldZN6sW9vo8++qjccsstrs5rJoE7UIOZSQTZEEAAAQSSRIDkPEkuJM1AAAEEEIi7gK5aljZD7z1v7fLM2nN+ryZe/9SYU3Sv4TK2ibXz11/lnyMnygvv/SA7d/7qOnyg4plJ3rq2axJJyHt0biHx7CUvDnH//ffLnXfeWfwpq5/1PXK3Dme/yyoIhRFAAAEEAidAch64S0KFEEAAAQTCIqC95+dpXZ2tUf57uws14e+Rn59vlscySbov24+zl8uDw76SucvW+RI/kUEbZdWUkw7fX046bP+Er/f+l7/8RR5/3N1t4ZqYT9fE3PSaM4FAIt9knBsBBBDwQYDk3AdUQiKAAAIIpIyA6T3/RZPpVi5brAnYQk3AOurjqxq3r8vYxWOZnvO3x0yT50f8IBu37ij+Uuh+Ngl517aNpXfX1nLwfo1FO80Tuun1kz//+c/y8ssvu6xHnr7fuusXN5NdBiUWAggggEAwBBL8pysYCNQCAQQQQAABrwLae36+lh3qtXwZ5d5cvnz5NfXr15+gxzQp4zjrl7Zsz5WhH0+OJOqbtuZYx4tHgLo1qsoh+zeWLm2bSBd9bKgzrwdl2759u1x44YXyzjvvuK7SZXrLw4uugxIPAQQQQCAYAiTnwbgO1AIBBBBAILwCpvd8pvae7+tDE/69adOmp6pVq/a1xvY9+8zLL5RPfpgtr4/6WWYuWuNDc7yHrJZZSXvEG2lCrsm49pDv26iu92A+lpwzZ46ceuqpMmPGDNdneVkT80tcByUeAggggEBwBEjOg3MtqAkCCCCAQEgFtPf8Aq36EJ+q/++cnJz/pqenf6TxM3w6xx5hp85bKZ9PnCvfTFkoC1ds2ON1v5+olFFROu67t/aKN4kMV2/bPFvS0oL9sWXEiBGRHvNt27a55jHLph2pQXNdByYeAggggEBwBIL9Vy44TtQEAQQQQACBsgRM7/lU7T3fv6yDLF77d25u7mj9EmCoxoj73+5lazZpkr5Ixk1dJLOXrpXVG7aKTvruZDMzqDfbu7a0aFhHWupuHls0qiNN6tcURXVyDr+DFBQUyK233ipPPPGEH6darYn5QRo49da/80OTmAgggECABeL+Bz7AFlQNAQQQQAABzwLas91TJ3D7QgP49bf133l5ebP1S4AHPVfSUcGcvAJZtHKD7htloT6aZD0nt0By8gskV1/L1cecvEJdqm2n7FW1stTQNcZrVqssNatXifxu1hyvvVemNGtQO5KEB71HvCy26dOny8UXXywTJpipAZxvefqFTy9N/s1tDWwIIIAAAkku4NcHiCRno3kIIIAAAgjsKaAJ+pOaoF+75yvOnjEJ+hxN0B9wFpFAngTWr18vd911l/zjH/+IfAnhKUjZhQr15YHaa/5m2YfxKgIIIIBAsgiQnCfLlaQdCCCAAAJBEKisifME7e08wMfKDNF7msdXrlz5GT1HOMZ9+4gR79BmCLtJyO+8807Ryfr8Or25aeBCTcxf8esExEUAAQQQCJ4Af9SDd02oEQIIIIBAeAVydSj3QK2+n+uRXaizt5+rw6mv1vPkh5cqfDX/7LPPpGPHjnLdddf5mZjr/fy/XkFiHr73BzVGAAEEbAVIzm0FKY8AAggggMCuAtM0ubpl16ec/3aoJol3P//88/doZOdTgzuvbcgDzp49W/r16ycnnHCCzJo1y9fW6Hvnev2C5wVfT0JwBBBAAIFACjCsPZCXhUohgAACCIRcoILOrP6xtqG3z+34tVevXv/58MMPu+lw+lY+nyvlwpth6/fcc48888wzoj3ZvrfffKmjiflDvp+IEyCAAAIIBFKA5DyQl4VKIYAAAggkgUADTdCnaDuy/G6LDnNfPHny5HktW7Y82u9zpUJ8XVdeXnrpJbn33nvFTPwWh61Az3GlfgHwYhzOxSkQQAABBAIqwLD2gF4YqoUAAgggEHqBldqCi+LRCp0grul+++13tE5SNl57X3Pjcc5kPMe0adPk+uuvlyZNmkQe45SYb9QJBPuQmCfjO4o2IYAAArEJ0HMemxdHI4AAAgggEJOADje/X5Ov22IqZHFwmzZt8t9///2NLVq08L3H3qKagSm6efNmef311+Wf//ynTJo0Ka710i9S5usw9hP1pDPjemJOhgACCCAQSAGS80BeFiqFAAIIIJBEAub+85e1PX+KV5v0ywAZNGhQ4ZNPPllQtWrVyvE6b5jO8/XXX0cS8rfeektycxMy2OBb7S3vr2Zrw+RGXRFAAAEE/BMgOffPlsgIIIAAAggUCaT9nqAPKnoiHo96L7rcfffdv15zzTWiPfgp/zd/xYoVMnToUPnXv/4l8+fPj8clKO0cz2piPlhfzCvtAJ5HAAEEEEg9gZT/Q516l5wWI4AAAggkSCAhCbppq04UJ4899pj07ds3QU1P3Gl37NghH330kQwZMkQ++eQTs4Z44iojskZP/idNzEcmshKcGwEEEEAgmAIk58G8LtQKAQQQQCA5BRKWoBtOnTRObr75Zjn77LMlIyMjKYULCgpkwoQJMmrUKPnyyy9l3LhxYp4LwPaJJuVm5ISZKJANAQQQQACBPQRIzvcg4QkEEEAAAQR8FUhogm5aZoa7X3bZZTJ48GBp0KCBr431O7jpCZ86deofyfiYMWNk+/btfp82lvi5WsebdeK3v2uhhHbbx1JpjkUAAQQQiL8AyXn8zTkjAggggAACCU/Qiy7BMcccI5dccon06dMnkrQXPR/kx3nz5kWScdM7Pnr06HitRe6F5GvtLb9CC87wUpgyCCCAAAKpJUBynlrXm9YigAACCARHIDAJuiExM7wfeOCB0r9/fzn55JNFl2Qzk8glXCs/P1/mzJkTWebMJOImIV+2bFnC61VWBbSnfJl63qSJ+WtlHcdrCCCAAAIIFBcgOS+uwc8IIIAAAgjEVyAtPT39CU3mronvacs/21577SU9e/aUww8/XDp27Cht27aV7OzsSBJffunYjzD3hZskfPr06X/sM2bMiDynSW7sARNTIk+v5RM6hP0+Pf3WxFSBsyKAAAIIhFWA5DysV456I4AAAggkjYAus3aRNuYZ3asEuVFmErlWrVpFJpYzk8s1b95cateuLbqWeom7OX7btm2RYefr168v8XHNmjUyd+7csCXhJV2mkfolwg36wuySXuQ5BBBAAAEEyhMgOS9PiNcRQAABBBCIg4Amsp00uXtLh0O3jMPpOIU7gZE6/P9eHX4/3l1IIiGAAAIIpKIAyXkqXnXajAACCCAQVIGa2os+RCvXP6gVpF4RATPr+ru/J+U/YoIAAggggIALAZJzF4rEQAABBBBAwKGAJn3XaQ/6gxoy0MPcHTY5LKF2akXf0hEO5p7yqWGpNPVEAAEEEAiHAMl5OK4TtUQAAQQQSD2BltqL/pw2+7jUa3qwWqyTvC3RGr2iE739Sx/nB6t21AYBBBBAIFkESM6T5UrSDgQQQACBpBTQBP0sMwO49qQ3SMoGBrdR27Vq76j7EJ1JfrT+bHrN2RBAAAEEEPBNgOTcN1oCI4AAAggg4EzA3Iv+gEa7TPeKzqISaHcBcy/5WN2H6tD14fq4ZfcD+B0BBBBAAAG/BEjO/ZIlLgIIIIAAAu4F9tck/Q4Ne6buae7Dp2ZEHZmwQFtuhq2/oo8MW0/NtwGtRgABBBIuQHKe8EtABRBAAAEEEIhZYD9N0m/XUmfrTk96zHyRAlv1v8N12PpQHbb+tf5ses3ZEEAAAQQQSJgAyXnC6DkxAggggAAC1gKtNEn/q0Y5R/d062hJHkB7yJdqMj5Km/mxDlsfqY/bkrzJNA8BBBBAIEQCJOchulhUFQEEEEAAgVIEGuvya4P0tQs0+WxZyjGp+PRabfRoTcq/1CHrJimfk4oItBkBBBBAIBwCJOfhuE7UEgEEEEAAgagE0tPTj9Bk9EI9+HTd94qqUPIcZCZw+9ok4zqiYFR+fv4U/Z3h6slzfWkJAgggkNQCJOdJfXlpHAIIIIBACgtU1QT1VG3/GbofrXu1JLTI1TaN02R8lI4c+FLvHZ+gvxckYTtpEgIIIIBACgiQnKfARaaJCCCAAAIpL1BJe9QP1aHdvXTYey/VOEj3MM72vkbrPUWT8e81GR+tyfi3+nuO7mwIIIAAAgiEXoDkPPSXkAYggAACCCAQs0Ad7VU/RksdqXtH3dvpXkf3oGw7tCLTdZ+qifhUTcSnaiI+VX9fFZQKUg8EEEAAAQRcC5CcuxYlHgIIIIAAAuEUaKC96+21d72d9q6bZL2dJsYt9Ocs/dn1cm05Gnulxl6hsSO7/r5Mf5+ls6ibJHye7jt1Z0MAAQQQQCBlBEjOU+ZS01AEEEAAAQQ8CZjPCjV1r5ORkVFXk+ii3fS0m72y7oW6m3u9i+9Fz+Vr0r1V95Xa+12UjG/QY9kQQAABBBBAAAEEEEAAAQQQQAABBBBAAAEEEEAAAQQQQAABBBBAAAEEEEAAAQQQQAABBBBAAAEEEEAAAQQQQAABBBBAAAEEEEAAAQQQQAABBBBAAAEEEEAAAQQQQAABBBBAAAEEEEAAAQQQQAABBBBAAAEEEEAAAQQQQAABBBBAAAEEEEAAAQQQQAABBBBAAAEEEEAAAQQQQAABBBBAAAEEEEAAAQQQQAABBBBAAAEEEEAAAQQQQAABBBBAAAEEEEAAAQQQQAABBBBAAAEEEEAAAQQQQAABBBBAAAEEEEAAAQQQQAABBBBAAAEEEEAAAQQQQAABBBBAAAEEEEAAAQQQQAABBBBAAAEEEEAAAQQQQAABBBBAAAEEEEAAAQQQQAABBBBAAAEEEEAAAQQQQAABBBBAAAEEEEAAAQQQQAABBBBAAAEEEEAAAQQQQAABBBBAAAEEEEAAAQQQQAABBBBAAAEEEEAAAQQQQAABBBBAAAEEEEAAAQQQQAABBBBAAAEEEEAAAQQQQAABBBBAAAEEEEAAAQQQQAABBBBAAAEEEEAAAQQQQAABBBBAAAEEEEAAAQQQQAABBBBAAAEEEEAAAQQQQAABBBBAAAEEEEAAAQQQQAABBBBAAAEEEEAAAQQQQAABBBBAAAEEEEAAAQQQQAABBBBAAAEEEEAAAQQQQAABBBBAAAEEEEAAAQQQQAABBBBAAAEEEEAAAQQQQAABBBBAAAEEEEAAAQQQQAABBBBAAAEEEEAAAQQQQAABBBBAAAEEEEAAAQQQQAABBBBAAAEEEEAAAQQQQAABBBBAAAEEEEAAAQQQQAABBBBAAAEEEEAAAQQQQAABBBBAAAEEEEAAAQQQQAABBBBAAAEEEEAAAQQQQAABBBBAAAEEEEAAAQQQQAABBBBAAAEEEEAAAQQQQAABBBBAAAEEEEAAAQQQQAABBBBAAAEEEEAAAQQQQAABBBBAAAEEEEAAAQQQQAABBBBAAAEEEEAAAQQQQAABBBBAAAEEEEAAAQQQQAABBBBAAAEEEEAAAQQQQAABBBBAAAEEEEAAAQQQQAABBBBAAAEEEEAAAQQQQAABBBBAAAEEEEAAAQQQQAABBBBAAAEEEEAAAQQQQAABBBBAAAEEEEAAAQQQQAABBBBAAAEEEEAAAQQQQAABBBBAAAEEEEAAAQQQQAABBBBAAAEEEEAAAQQQQAABBBBAAAEEEEAAAQQQQAABBBBAAAEEEEAAAQQQQAABBBBAAAEEEEAAAQQQQAABBBBAAAEEEEAAAQQQQAABBBBAAAEEEEAAAQQQQAABBBBAAAEEEEAAAQQQQAABBBBAAAEEEEAAAQQQQAABBBBAAAEEEEAAAQQQQAABBBBAAAEEEEAAAQQQQAABBBBAAAEEEEAAAQQQQAABBBBAAAEEEEAAAQQQQAABBBBAAAEEEEAAAQQQQAABBBBAAAEEEEAAAQQQQAABBBBAAAEEEEAAAQQQQAABBBBAAAEEEEAAAQQQQAABBBBAAAEEEEAAAQQQQAABBBBAAAEEEEAAAQQQQAABBBBAAAEEEEAAAQQQQAABBBBAAAEEEEAAAQQQQAABBBBAAAEEEEAAAQQQQAABBBBAAAEEEEAAAQQQQAABBBBAAAEEEEAAAQQQQAABBBBAAAEEEEAAAQQQQAABBBBAAAEEEEAAAQQQQAABBBBAAAEEEEAAAQQQQAABBBBAAAEEEEAAAQQQQAABBBBAAAEEEEAAAQQQQAABBBBAAAEEEEAAAQQQQAABBBBAAAEEEEAAAQQQQAABBBBAAAGR/wfMV12giF45XQAAAABJRU5ErkJggg==;" vertex="1" parent="1">
          <mxGeometry x="-480" y="242.27" width="120.51" height="100" as="geometry" />
        </mxCell>
        <mxCell id="CZB_nalEj2wyvRyLv4B4-7" style="edgeStyle=orthogonalEdgeStyle;rounded=0;orthogonalLoop=1;jettySize=auto;html=1;" edge="1" parent="1">
          <mxGeometry relative="1" as="geometry">
            <mxPoint x="-462" y="292.82000000000005" as="targetPoint" />
            <mxPoint x="-517" y="292.12" as="sourcePoint" />
          </mxGeometry>
        </mxCell>
        <mxCell id="CZB_nalEj2wyvRyLv4B4-8" value="Load" style="edgeLabel;html=1;align=center;verticalAlign=middle;resizable=0;points=[];" vertex="1" connectable="0" parent="CZB_nalEj2wyvRyLv4B4-7">
          <mxGeometry x="-0.3639" y="-1" relative="1" as="geometry">
            <mxPoint as="offset" />
          </mxGeometry>
        </mxCell>
      </root>
    </mxGraphModel>
  </diagram>
</mxfile>
